/* XPM */
static char * BrolyWalkDos1_xpm[] = {
"64 64 22 1",
" 	c None",
".	c #AD7939",
"+	c #FFFB4A",
"@	c #C69252",
"#	c #FFFBFF",
"$	c #DEAA63",
"%	c #946129",
"&	c #845118",
"*	c #F7C373",
"=	c #D66100",
"-	c #FF7100",
";	c #AD4900",
">	c #5A0000",
",	c #AD0810",
"'	c #D61029",
")	c #FF3031",
"!	c #FFD300",
"~	c #FFFBDE",
"{	c #7B797B",
"]	c #A5A2A5",
"^	c #C6C3C6",
"/	c #DEDBDE",
"                                                                ",
"                       .. ....   .  .                           ",
"                   .   .+. .++@ .. .. .                         ",
"                    ....#+..$#+.$+.+...   .                     ",
"                    .+$.##$.$.$.$.+#.+. ..                      ",
"                     .+.+#+.+..$$##+$+..+.                      ",
"                     .$.$+$+$.$.+#+.+#.+$.                      ",
"                ...   .$.$.+.$+$.++$#+.$.  ..                   ",
"                 .+....+.....+#+$...+$......                    ",
"                  .+#+$@+..+$+##+.$.$.$+#$.                     ",
"                   .+#$.+$.#+$++$++..+##+.                      ",
"                    .++$..$##+..+#+.$++$.                       ",
"                    ..$.@.$+#$.$+#$.$.......                    ",
"                    .$..$+..+.+.$+...+##+$.                     ",
"                     .+..$#$.+#+.$.$+##+$.                      ",
"                      .$+.$+..$+$.$..$$..                       ",
"               ....  ..%$#..$+$...++$...... &&&&                ",
"             ..@$$@%%.+$%$+.$#+.$$.#+.$++$%%@$@.&&              ",
"            .@$@@$$@.%...%.+$...#$..#....%.@$$.@@.&             ",
"           .@@$.$**$@.%  %...%%.+.%%..  %.@$**$%$@.&            ",
"          .@@$.$***$$@.%=.%%%@@..%@..%=%.@@$***$%$@.&           ",
"          .@$@@$***$$@@..==@$$@.%@@.==...@$$***$..$@&           ",
"          .@$.$****$@@@@@@@==--=-===.@@@.@$$****$%$@&           ",
"          .@$@$***$$@@@@$$$$@...@$$$$@$@@@$$****$.$@&           ",
"          .@$****$$@@@@$$**$$@@@$$***$$@@@@@$***$@@.&           ",
"          ..@$$$$$$@@@@$*****$..@$****$$@.@@$$*$$@@.&           ",
"         .@%.@@$$$@.%%.$****$@...@$**$$@@@..@$$$@@.%.&          ",
"         .$@%.@@.%%%...$***$$$@.@@$$$$$$@@.%%%.@@.%..&          ",
"        .@*$.%.%..@..@.$$***$$@.@@@@$**$@......%.%.@..&         ",
"        .$**$@@..@@%.@%$$***$@.%.@@$$**$...%.@..@@@$@.&         ",
"        .****$@.@$@%.@%@$$*$$@.%.@@$***$%..%@@@.@@$$$@&         ",
"        .$***$@%@$@&%.@%@$*$@@.%..@$*$$%..%&@@@%@$$$$@&         ",
"        .@$**$@.@$.&&.@.%..%..@%@@.%..%.@.%&.@@.@$$$$.&         ",
"         .@$$@..$@&  &...%%.@@@%@@@.%%.@.%  &@@..@$$@&          ",
"          %@@@%@@.&  &.@@.%@$$$.@$$@%.@@.%  &.@@%.@@%           ",
"         .$%.%%..&    %.@@%@@$@.@$$@%@@.%    &.%%%%%.&          ",
"         .$.*.@.&      %.@@.@@@.@@@.@@.%      &.@%@%.&          ",
"         .$.@.$@;     >>,,,,,,>>,,>,,,,>>     ;@@.$%@&          ",
"         =@@.$$.;;    >,,>',')'))','')''>    ;;.$@.@.;          ",
"         ==@@$.;-;     >>,>,,,>>>'''>>''>    ;-;.$@.;;          ",
"         =!===;--;      >,,>>>>>,,>>>,>>     ;--;;;;-;          ",
"         =!!~+!!-;     >,'',,,,>,,,,>,,>     ;-!!+!--;          ",
"         =!!+~+!-;     >''','',>,'',,>,>     ;-!+!!--;          ",
"         =!!!++!!%    >,)',''',>,''',,,,>    %!!+!!-;           ",
"          =!!!!!=@%   >')',)'',,,')'',,,>   %@;!!!!-;           ",
"          =!!!!!=@%  >,))',))',,,')'',,,,>  %@;!!!!-;           ",
"           =!!!=@.&  >,'',')'',,,'))'',,,>  &.@;!!-;            ",
"            ===%.%%   >>>,'''',,,'''',,,>   %%.%;;;             ",
"            %@%.@.%   {]]>>,'',>,,,,,,>>]{  %.@.%@%             ",
"             %.@.%    {^/^]>>>>>>>>>>>]]^{   %.@.%              ",
"              %%%     {/#]{{{]{  {]]]]^^{{    %%%               ",
"                      {{##/^^{   {^^^^^^^{                      ",
"                      {^===;;{   {^]{{]/^{                      ",
"                      {=+!!!-;   {{{]^^#/{                      ",
"                      =!~+!!-;    {^/##/^;                      ",
"                      =!+,==,;    ;]^//^;;                      ",
"                      =>,=&&;     ;;;==;-;                      ",
"                       >;&&&;     ;-!+!-;                       ",
"                       >;&&&;     ;-!+!-;                       ",
"                       ;&&&&;      ;!===;                       ",
"                       ;&&&;       ;=,,,,>                      ",
"                       ;&&&;       >,'',,>                      ",
"                        ;==        >,''',;                      ",
"                                    ;===;                       "};
