/* XPM */
static char * BrolySide0_xpm[] = {
"64 64 26 1",
" 	c None",
".	c #AD7939",
"+	c #DEAA63",
"@	c #FFFB4A",
"#	c #FFFBFF",
"$	c #C69252",
"%	c #946129",
"&	c #F7C373",
"*	c #949294",
"=	c #845118",
"-	c #C6C3C6",
";	c #DEDBDE",
">	c #D66100",
",	c #FF7100",
"'	c #FFD300",
")	c #6308AD",
"!	c #1851F7",
"~	c #AD4900",
"{	c #FFFBDE",
"]	c #AD0810",
"^	c #5A0000",
"/	c #D61029",
"(	c #FF3031",
"_	c #7B797B",
":	c #A5A2A5",
"<	c #000000",
"                           .       .                            ",
"                            ..     .                            ",
"                       .    .+.   .+.     .                     ",
"                        ...  .@.  .+.    ..                     ",
"                        .@+. .@@. .+@.  ..                      ",
"                         .@@..+#@..@#. .+.                      ",
"                       ...+#.@++#+.+@..+@.                      ",
"                    ... .+.@+.@@+@.++.+@.                       ",
"                     .@....+@++#@.+..+@#.                       ",
"                      .#@++.++.+#+.@+.@.                        ",
"                       .@#@@+.$.+.@#@.+..                       ",
"                        .@###@+..@+...%@#.                      ",
"                         .+@##+.+..&++.+@#.                     ",
"                       ....++@+..$++&&&.%%.                     ",
"                         .@...%%.$$.+&&.  %.                    ",
"                          .+.%$$.+$*%.+.   %                    ",
"                        =%%%+%+..++-#;%%    .                   ",
"                      ==.$$$%%%$%$++--+%                        ",
"                     =.$$$++$%.%%.$++&&$.                       ",
"                    =.$$++$&+$%%.%$$+.%..                       ",
"                   =.$$++.&&&+$%.$%$$+.%                        ",
"                   =$$$+.&&&&&+%>$$%$+%                         ",
"                   =$$+$$&&&&&+%,>$$%%.=                        ",
"                   =$$&.&&&&&&+%.,>+%..=                        ",
"                   =$$&.&&&&&&$%$>'>+%.=                        ",
"                   =.$+$&&&&&+%$+.,,>>>=                        ",
"                  =%%$+++&&&+$%$+$>@,))                         ",
"                  =$$=$+$.%=%%.$&+>')!)=                        ",
"                 =.$+$=%.$+$.%+.+&$>,))=                        ",
"                 =$$&$.$+&&+%%.+&&+$>'>=                        ",
"                 =$$+.$+&&&&..%.+&++.>>=                        ",
"                 =$$+.+&&&&+.$.%....$.%=                        ",
"                 =.$%$+&&&&%%$$++$+&+%=                         ",
"                  ==.$+&&&+%.%%.$&$.%>~                         ",
"                  =%$.$+++%..$+$&$.+.>,~                        ",
"                 =+%$+..>>%.$+&+$%.%>,',~==                     ",
"                 =$=~>>>''>%.$+$%$+.>>,~.%$=                    ",
"                  =~,','@{'>]]]]]]]]~>~.%.+$=                   ",
"                   ~),','@{'>]^]/(//]~~$%$%.=                   ",
"                   )!)@','@{@>^]]]]]]~=.=%===                   ",
"                    ))'@',,,>>%%>>'>  ====$=                    ",
"                     ~,'@',>+$.+%]>>   =.==                     ",
"                      ~,',>$&&+..%]]]   ==                      ",
"                       ~,>.+&&&&$%//]_                          ",
"                       ^~>.+&&+.$%]/]]_                         ",
"                      ^]]~=.+&+.%^]//]:_                        ",
"                      ^]/]^=.+.=_^]]/]]_                        ",
"                      ^//]^_===::_^]/]]-_                       ",
"                      ^//^_-##---_^]]]::_                       ",
"                      ^/]__:####--^^^:-_                        ",
"                      ^]^____:##-:_:-:__                        ",
"                      ^^^_-###--__::~~~                         ",
"                      ^^_-#>>>:__:~~,)~                         ",
"                       _-->,',~_<~,,,)                          ",
"                       _->,@,),~~,,',~                          ",
"                       _~,'')!)~~,''~                           ",
"                       ~,'@',)~<~,'~~                           ",
"                       ~,'',',~<~~~]^^                          ",
"                       ~,@',,~<<^]]]~>~                         ",
"                        ~,>>>~<<^]]~,',~                        ",
"                        ~>]/]]^<~~~~~~~~                        ",
"                        ^]///>>~                                ",
"                        ^]]]>'@,~                               ",
"                        ~~~~>>>~~                               "};
