/* XPM */
static char * BrolyWalkFace1_xpm[] = {
"64 64 26 1",
" 	c None",
".	c #AD7939",
"+	c #C69252",
"@	c #FFFB4A",
"#	c #DEAA63",
"$	c #FFFBFF",
"%	c #F7C373",
"&	c #946129",
"*	c #949294",
"=	c #C6C3C6",
"-	c #DEDBDE",
";	c #845118",
">	c #D66100",
",	c #FFD300",
"'	c #FF7100",
")	c #6308AD",
"!	c #1851F7",
"~	c #AD4900",
"{	c #AD0810",
"]	c #5A0000",
"^	c #000000",
"/	c #FFFBDE",
"(	c #D61029",
"_	c #FF3031",
":	c #A5A2A5",
"<	c #7B797B",
"                                                                ",
"                          .  .   .... ..                        ",
"                        . .. .. +@@. .@.   .                    ",
"                    .   ...@.@#.@$#..@@....                     ",
"                     .. .@.$@.#.#.#.#$@.#@.                     ",
"                     .@..@#@$$##.@..@$@.@.                      ",
"                     .#@.$@.@$@.@.@.#@#.#.                      ",
"                  ..  .#.@$#.@@..@.@.#.#.   ...                 ",
"                   ......#@.#.#.@$@.#..@....@.                  ",
"                    .#$@#..#$#..$$$#..@+@@$@.                   ",
"                     .@$$#.$$@#.@..@.#@.#$@.                    ",
"                      .#@.$@..@..#+.#..@$@.                     ",
"                   .....#.@.##.##%#+&.+@#..                     ",
"                    .@$#.@.#%%#%%%#+&.@#.#.                     ",
"                     .@@..#..#%%%#.&.&&.@.                      ",
"               ....&& .&%.#%*&.#.&*++&+&.                       ",
"             ..+###+...&#.+%=$-&-$=+.&#&..                      ",
"            .+#%%%##++@#&#&#%==#==#+&+&#@.&                     ",
"            .#%#++%##+...&&+%%%+%%#.&&... &&&&;;                ",
"           .#%#+#%%%#+++>&+&+%.&.#+&+.&>&&+++++.;;              ",
"           .%%+#%%%%#++>&+#+&+#%#+&+#+>&+#..##+++.;             ",
"           .%%.%%%%%#++>+#%%+&+#+&+#%>&+#%%#+%##++;             ",
"           .#%.%%%%##+.+>#%#.#&&&#.#>>&#%%%%%.%##+.;            ",
"            .#+%%###++.+>>>.%%%%##>>>.&#%%%%%#+%#++;            ",
"           .&#####+++.##>,'>#%%#>>',>+.#%%%%%%.%#++;            ",
"           .+&+.&&&+.&+%#>,@'>>>',@>.###%%%%%%.%#++;            ",
"          .##+.##++&.&#+##>,@')'@,>.++#+%%%%%#.%#++;            ",
"          .%#.#%%#++&.+%%+#>,)!),>.+#+..#%%###+%#+;             ",
"          .%#.#%%%#+&&.#%%..>')'>..%###+&#;...###+&             ",
"          .#.#%%%%#+;&.#%%%##>,>+#%%%#+.;.+##+.#+&.;            ",
"          .+.#%%%%#+;&+.#%%%#+>+#%%%%##+&+#%%#;+;.+;            ",
"           .&#%%%%#+;&++&&&&..#.+#%%#+..&#%%%%+.+#+;            ",
"           &.+#%%#+; &&+#.+++++#.&&&..++.%%%%%#.+%+;            ",
"          ~&#.+##+;   &#.#%#+...+++.#%#+&%%%%%#.#++;            ",
"          ~>#+...;~   &+#%%%.%.#.+##..%#;#%%%%+.#+.;            ",
"          ~'>>>>~~'~   &#%%#..&&.&%%##++&+#%%#+.++;             ",
"          ~',@,,,''~   &+#%#.%+.#+&#{{{]^&####.++.;             ",
"          ~',/@@,,'~  {({{{{{{{{{{{{(({{]^&+++#+.;              ",
"          ~',@/@@,'~  {((_(({(__(_({(]{{]&#>>>~~.;              ",
"           ~',@@,'~   {((]]((({{{{{{]{]]^>>@,','~;              ",
"           ~',,..'~    {]{{]]{','>{]{{]^>,@,',@,'~              ",
"           ~,..+%&~    {((]{({>>>{{]{({]>@/,'@),'~              ",
"            &+%.&%&   {(_{{{((({{{{]]{(]>/@',)!)~               ",
"            &%+%.&;   {_{==:{_{(({{]<](>,/,',))'~               ",
"            &+%%+.&; {({=$-=:{_{(({]:<{>/,',@@'~                ",
"             &%+%+.& {{=$$--={({_({]:&&>@,',@,'~                ",
"             &+%%++& {<-$:=--:{_{({];.++>',@,'~                 ",
"              &&+%&   <$=<-$-={_{({;&+%%+>@,'~                  ",
"                &&    <-<-$$-=<({({;.&%%%%>'~                   ",
"                      <:-$$--=<{]]];+%%+%%>~                    ",
"                      <$$-=<=:<  <:;.++%%+&                     ",
"                     <-$$$-=<:<  <<:;.%%+&                      ",
"                     <=>>>==:<<  <<=-;&&&                       ",
"                     <~,,'~::<   <=<$-:<                        ",
"                     ~'')',~:<   <<$=:<~                        ",
"                     ~')!)@'~    ~'<<<'~                        ",
"                     ~,')'@,~    ~,'''~                         ",
"                      ~,@@,'~    ]@,!)~                         ",
"                      ~',@,'~    ]{,'{                          ",
"                     >>>~>'~     ~@{{~                          ",
"                    >;;;>({]      ~,'~                          ",
"                    >;;;;>{]       >>                           ",
"                     >;;;;>~                                    ",
"                      ~~~~~                                     "};
