/* XPM */
static char * BrolyFace0_xpm[] = {
"64 64 25 1",
" 	c None",
".	c #AD7939",
"+	c #C69252",
"@	c #FFFB4A",
"#	c #DEAA63",
"$	c #FFFBFF",
"%	c #F7C373",
"&	c #946129",
"*	c #949294",
"=	c #C6C3C6",
"-	c #DEDBDE",
";	c #845118",
">	c #D66100",
",	c #FFD300",
"'	c #FF7100",
")	c #6308AD",
"!	c #1851F7",
"~	c #AD4900",
"{	c #AD0810",
"]	c #5A0000",
"^	c #D61029",
"/	c #FFFBDE",
"(	c #FF3031",
"_	c #7B797B",
":	c #A5A2A5",
"                                                                ",
"                          .  .   .... ..                        ",
"                        . .. .. +@@. .@.   .                    ",
"                    .   ...@.@#.@$#..@@....                     ",
"                     .. .@.$@.#.#.#.#$@.#@.                     ",
"                     .@..@#@$$##.@..@$@.@.                      ",
"                     .#@.$@.@$@.@.@.#@#.#.                      ",
"                  ..  .#.@$#.@@..@.@.#.#.   ...                 ",
"                   ......#@.#.#.@$@.#..@....@.                  ",
"                    .#$@#..#$#..$$$#..@+@@$@.                   ",
"                     .@$$#.$$@#.@..@.#@.#$@.                    ",
"                      .#@.$@..@..#+.#..@$@.                     ",
"                   .....#.@.##.##%#+&.+@#..                     ",
"                    .@$#.@.#%%#%%%#+&.@#.#.                     ",
"                     .@@..#..#%%%#.&.&&.@.                      ",
"                      .&%.#%*&.#.&*++&+&.                       ",
"               .... ...&#.+%=$-&-$=+.&#&..  &&&;                ",
"             ..+##+&&#@#&#&#%==#==#+&+&#@.&&+++.;;              ",
"            .+#%%%#+.&...&&+%%%+%%#.&&...&.+##+++.;             ",
"           .#%%%%%%#+.&  &+&+%.&.#+&+&  &.+#%+##++.;            ",
"          .+%%%#+%%#++.&>&#+&+#%#+&+#+>&.+#%%%.##++.;           ",
"          .#%%#+#%%#++..>+%%+&+#+&+#%#>..#%%%%%.#+++;           ",
"          .%%%++%%%#++++>>%#.+&&&+.##>>+.#%%%%%++#++;           ",
"          .%%%.#%%%#++.++>>>#%%%###>>>.+##%%%%%%.%++;           ",
"          .#%%.%%%#+++.+#>,'>>#%#>>',>+###%%%%%%.%++;           ",
"          .+#%+%%##++..#%+>,@'>>>',@>.++###%%%%%+#+.;           ",
"         .+&+##%##+..&.+##+>,@')'@,>.++...+#%%%###+&&;          ",
"         .#+&+++.&&&.+#%%%%+>,)!),>.++###+.&;&.+#+;++;          ",
"        .+%#+&..+++.+.+#%%+..>')'>..+###+.+.+#+.&;+#+.;         ",
"        .#%%+.+##++&.+#%%%%%#+>,>+#%%%%##+.&#%%#+.+%++;         ",
"        .%%#&#%%%#+&+.+%%%%%%#+>+#%%%%%##.+.%%%%#+.#++;         ",
"        .#%+.%%%%#+;&+.+#%%%#+.+.+#%%%#+.+&.#%%%%#.#++;         ",
"        .+#.+%%%%+.;&++.&&&&..+##.&&&&..+.;&+%%%%#+.+.;         ",
"         &+&+#%%#+;  &++++.+++.&.+++.+#++;  &#%%%#+&.;          ",
"          &&++##+.;  &+#..#%#+%.#.+##..#.;  &+###++.;           ",
"         &#&>>~..;    &+#%%%+..&..&%%#++;    &++>>>&.;          ",
"         &+>','~;      &+#%#.%+.#+&+{{{]      &>,@,~+;          ",
"         &>',@,'~     {^{{{{{{{{{{{{^^{{]     >,/@,'~&          ",
"         ~',',@,'~    {^^(^^{^((^(^{^]{{]    >@/@,','~          ",
"         ~)@,''..~    {^^]]^^^{{{{{{]{]]     >&&'',@)~          ",
"         )!'@..+%+&    {]{{]]{','>]]{{]     &+%+&&@'!)          ",
"          )'.+%.&%+&   {^^{]^{>>>{{]{^{]   &%#&.%+&')           ",
"          ~&+%+%.&+&   {(^{{^^^{{{{]]{^]   &+&.+%%+&~           ",
"           &%+%%++.;  {(^{={(^^^{^{]_]^{]  &.+%%+%+;            ",
"            &&%+%++&  {^{=={(^(^^^{]:_{^]  &+%+%%+;             ",
"             &+%%++& {^{=$={(^(^{^{]:=_{{] &+++++;              ",
"              &++%&  {{=$_-{(^(^{^{]:=_={]  &+%+;               ",
"               &&&   _=$$:${^^(^{^{]=_=$=_   &&;                ",
"                     _-$_=${^{^^{^{]==$$=_                      ",
"                     _=_=$${{{{{]]]]=$$=:_                      ",
"                    __:=$=-==_   _::=$=__:_                     ",
"                    _=$$$-_=:_   ____==$==_                     ",
"                    _=>>>=-___   _:$$=>>>:_                     ",
"                    _~,,'~:=:_   _=$=>','~_                     ",
"                    ~')','~:_     _=>'@')'~                     ",
"                    ~)!)@,'~       ~',@)!)~                     ",
"                    ~')'@,'~       ~'@@')'~                     ",
"                    ~,@@,'~         ~,@,',~                     ",
"                    ~',@,'~         ~'@,',~                     ",
"                    ~>>>'~           ~'>>>~                     ",
"                   {^^^{>~           ~>{^{{]                    ",
"                  >>>>{{{]           ]{^^>>>~                   ",
"                 >,@,'>{{]           ]^{>,@,'~                  ",
"                 ~>>>>~~~~           ~~~~>>>~~                  "};
