/* XPM */
static char * Crystal4_xpm[] = {
"64 64 13 1",
" 	c None",
".	c #732900",
"+	c #101010",
"@	c #DE6300",
"#	c #FFC610",
"$	c #FFAD10",
"%	c #FF8C00",
"&	c #F77B00",
"*	c #FFEF52",
"=	c #FFFFFF",
"-	c #F74200",
";	c #E70000",
">	c #A50000",
"                                                                ",
"                                                                ",
"                                                                ",
"                                                                ",
"                                                                ",
"                                                                ",
"                                                                ",
"                                                                ",
"                                                                ",
"                                                                ",
"                                                                ",
"                                                                ",
"                                                                ",
"                                                                ",
"                                                                ",
"                                                                ",
"                                                                ",
"                                                                ",
"                                                                ",
"                            ......++                            ",
"                          .@###$$%&@.+                          ",
"                        .@###%%%%%%%%@.+                        ",
"                       .*==*##%%%%%%%%%@+                       ",
"                      .*====##$%%%%%%%%&@+                      ",
"                     .%=====###%%%%%%%%%@@+                     ",
"                     @#====*###%%%%%%%%%&@.                     ",
"                    .##*==####$%%%-%%%%%%@@+                    ",
"                    @####$%$##%%%&;&%%%%%@@.                    ",
"                   .##$#$%---%%%-;;;-%%%%@@@+                   ",
"                   .#$%$#--;%%%%%;;;%%%%%@@@+                   ",
"                   .#%%%%-%-%%%%%-%-%%%%%@@@.                   ",
"                   .$%%%%%%%%%%%%%%%%%%%&@@@.                   ",
"                   .$%%%%%%%%%%%%%%%%%%%@@@@.                   ",
"                   .%%%%%%%%%%%%%%%%%-%&@@@&.                   ",
"                   +&%%%%%%%%-%%%%%%&;&@@@@&+                   ",
"                   +@%%%%%%%&;&%%%%-;;>>@@@&+                   ",
"                    .&%%%%%-;;;-%%%%;>>@@@%.                    ",
"                    +@&%%%%%;;;%%%%&>@>@@&%+                    ",
"                     .@@&%%%-&-%%%&@@@@@@%.                     ",
"                     +@@@@&%%%%%&@@@@@@@%%+                     ",
"                      +@@@@@@@@@@@@@@@@%%+                      ",
"                       +@@@@@@@@@@@@@&%%+                       ",
"                        +.@@@@@@@@@&%%.+                        ",
"                          +.@@@&&&%%.+                          ",
"                            ++....++                            ",
"                                                                ",
"                                                                ",
"                                                                ",
"                                                                ",
"                                                                ",
"                                                                ",
"                                                                ",
"                                                                ",
"                                                                ",
"                                                                ",
"                                                                ",
"                                                                ",
"                                                                ",
"                                                                ",
"                                                                ",
"                                                                ",
"                                                                ",
"                                                                ",
"                                                                "};
