/* XPM */
static char * attack2_xpm[] = {
"64 64 26 1",
" 	c None",
".	c #FFFBFF",
"+	c #AD7939",
"@	c #DEAA63",
"#	c #FFFB4A",
"$	c #C69252",
"%	c #F7C373",
"&	c #946129",
"*	c #845118",
"=	c #949294",
"-	c #C6C3C6",
";	c #DEDBDE",
">	c #D66100",
",	c #FF7100",
"'	c #FFD300",
")	c #D61029",
"!	c #5A0000",
"~	c #6308AD",
"{	c #1851F7",
"]	c #7B797B",
"^	c #AD0810",
"/	c #FF3031",
"(	c #AD4900",
"_	c #A5A2A5",
":	c #000000",
"<	c #FFFBDE",
"                                                                ",
"                                                                ",
"                                                                ",
"                                                                ",
"                                                                ",
"                                                                ",
"       .                                               .        ",
"                                                                ",
"      .                                                 .       ",
"      .                                                 .       ",
"     .                                                   .      ",
"     .                                                   .      ",
"     .                                                   .      ",
"                                                                ",
"    .                                                     .     ",
"    .                                                     .     ",
"    .                                                     .     ",
"    .                                                     .     ",
"    .                                                     .     ",
"    .                                                     .     ",
"   .                                                       .    ",
"   .                                                       .    ",
"   .                               +                       .    ",
"   .                        +      +   +                   .    ",
"   .                     +  +     +@+  +                   .    ",
"   .                     + +#+ +  +#+ +@+ +                .    ",
"   .                  + +#++#+++ $##+ +@+ +                .    ",
"   .                  +++##+##+@+#.@++##+++ +              .    ",
"   .                + +#++##+#+@+@+@+@.#+@+ +              .    ",
"   .                + +#++#@+..+@+#++#.#+#++#+             .    ",
"   .                ++ +#+.##+.#+#+#+@#@+@++#+             .    ",
"   ..               +#++@#+.@+##++#+#+@+@+%+#+            ..    ",
"   ..              &&+#++++#+@+@+#.#++++#++#+&            ..    ",
"   ..            +&$++@.#@++@.@++...##@+$##.++&&          ..    ",
"    .           +$$$+++#..+#..#@+#+++++@+@.+$@$+*         .     ",
"    .          +$@@@+#++@+#.+++#++@$+@++#.#+@@@$+*        .     ",
"    ..        +$@%@$@+#+++#+%@@+@@%@$&+$#@++%$%@$+*      ..     ",
"    ..        +@%%$@@+#.@++%@%%@%%%@$&+#@+@+%%+@@$*      ..     ",
"    ..       +$%%@+%@++##+&@++@%%%@+&+&&+#+@%%+%@$+*     ..     ",
"    ...      +@%%$$%@+#+&%+@%=&+@+&=$$&$&++@%%$$@$$*    ...     ",
"     ..      +@%%+%%%@+#&@+$%-.;&;.-$+&@&#+@%%%+@$$*    ..      ",
"     ..      +$%%+%%@$*+@&@&@%--@--@$&$&@+&$@%%+@$+*    ..      ",
"     ...      +%%@%@++*$++&&$%%%$%%@+&&++$*&+$@%@$*    ...      ",
"      ..      +$@@$+$$+*$>>,&$%+&+@$&,>>$&$@$+$@$+*    ..       ",
"      ..       &$&+$@%$+*+@>#&$@%@$&'>$+&$%%@$&*+*     ..       ",
"      ...     +$&+&@%%%$*)+*>#&$@$&#>*+)&@%%@$++*+*   ...       ",
"       ...    +@$$&@%%%@+*))*>'&&&,>*))&$%%%@$+$$+*  ...        ",
"       ...    +$%@&$%%%@$*!!))>~{~>))!!&@%%%@$+@$+*  ...        ",
"       ....   ]+@%$+@%%@$*^^!!!>'>!!!^^&@%%@$+%@$*] ....        ",
"        ...   ]+@%@&$@@$+*^))/)^>^^^^^!&$@@$$+@$+*] ...         ",
"         ...  ]-+@%$&$>>((]^^)^))^)!!!]>>>>+&@$+*_]...          ",
"         ....  >>+@@$>',',(  !!!!!!   >#',,>@$+*>(....          ",
"          .... (,'+@>,',#',(         >'#',',>$*,,....           ",
"          .....:(~+$>~#',#'(         ><#,',~>+*~.....           ",
"            .....{~(~{~#,#',(       >'#','~{~(.....             ",
"            ........(~<#',#&&&     &&&','#,........             ",
"              ...........,&$@%&& &&%@$...........               ",
"                ........#&$@%$&$&$&$%@$........(                ",
"                ^)......'&&$$%*%&%*%$$&......^^^!               ",
"               (>>>>^...,&$@%$&$&$&$%@$...!!)>>>>(              ",
"               (#',(!   (&&$$%*& &*%$$&&(   !(#',(              ",
"               (>>(      &$@%$&   &$%@$&      (>>(              ",
"                          &$$@*   *@$$&                         ",
"                           &&&     &&&                          "};
