/* XPM */
static char * attackB0_xpm[] = {
"64 64 31 1",
" 	c None",
".	c #B83878",
"+	c #F870B0",
"@	c #F888B8",
"#	c #981858",
"$	c #F8A0C8",
"%	c #D85090",
"&	c #F8B8D8",
"*	c #F8D0E0",
"=	c #000008",
"-	c #880050",
";	c #703800",
">	c #F87000",
",	c #F8A800",
"'	c #F8D040",
")	c #A84800",
"!	c #F8B8E0",
"~	c #C00000",
"{	c #F80000",
"]	c #606060",
"^	c #D8D8D8",
"/	c #F0F0F0",
"(	c #787878",
"_	c #A0A0A0",
":	c #909090",
"<	c #D06000",
"[	c #C0C0C0",
"}	c #F8D000",
"|	c #F8F8F8",
"1	c #382000",
"2	c #503000",
"                                                                ",
"                                                                ",
"                                                                ",
"                                ...                             ",
"                               .+@+.                            ",
"                               .#+$.                            ",
"                              #.#@$#                            ",
"                             #+#@$@#                            ",
"                            #%.#$&@#                            ",
"                            #.##**@.#                           ",
"                             .%#&*@.+#                          ",
"                             .%.$&@.+#                          ",
"                            .#.@$@.=@@#                         ",
"                            .+++$%@@$+#                         ",
"                           ..+#@%@.$$+.#                        ",
"                   --..- ...%@++@$+$+.+@#                       ",
"               ;;;;%-%%%-%$.+.@&+$@.++%-.                       ",
"              ===>,;++@.%-$.%=.@%@.=+.+%#                       ",
"             ;'')=>,;$$.+$!+.==~.~==$%##                        ",
"            ;...,)=>;$+.%@@.%.={@{=$@.                          ",
"            .%%@.)=);+.%.%%...+%.%+@+..                         ",
"            .%+$.);;    .@..%+.%@%@+.+$..                       ",
"            ..$+.;       .+%@%+.+$@.%$++%..                     ",
"             ...         .+&@.%+...%-%++++%.                    ",
"                         .$*&%#+++-%&@%+@!$.                    ",
"                          .$*&@@%@@@*&.%@.@.                    ",
"                          .+$$@+.@@+$*..%+%.-                   ",
"                           .@$+%.+@$+%-%+%.++-                  ",
"                           %....#+++$%--+%@$+-                  ",
"                           %$@@@$%%%%-  -%+$$+-                 ",
"                           %+$@$+*@++- ]]].+@@-                 ",
"                           %%+$$.$*%%]]^/(];;;-                 ",
"                           ==+$@.$$+]_^/^:_]=;;                 ",
"                           ==<,%.+%](^^/_^[];>>;                ",
"                           ]=<)}<)](_^/_^/^],...                ",
"                           ](),>))]__(/^/|^].@$+.               ",
"                           ]_())}](_[(^/||[_]%+$.               ",
"                           ]__()][_[(_(^||_[]%%..               ",
"                           ][__(]_//_(^_//_^]...                ",
"                           ]^_[_(][[^]^/^_^^]                   ",
"                           ]^^___]_[(]^|/_^[(]                  ",
"                           ][/[^^_]_]][^_^/[(]                  ",
"                           ]^^//^(]] ](([/^_(_]                 ",
"                           ]^/|^_(]  ]_^/|[(__]                 ",
"                           ]/|/[(_]  ][^|/:^[_]                 ",
"                           ]||^_[[]   ]]__(_]]                  ",
"                          ][|/[^[_]    =]]]]1                   ",
"                          ]^/^//[(]    )====)                   ",
"                          ]/[/|^_]]    2)>>)2                   ",
"                          ]|_^^_](]    12==21                   ",
"                          ][/^__(_]]    1==1                    ",
"                          ]/||/^[[(]    1==1                    ",
"                          ][^^/^^_[]=====11                     ",
"                          ]/^____[_]========                    ",
"                          ][|/[[[_]===========                  ",
"                         ==]__((_]=============                 ",
"                        ========================                ",
"                        =======))===============                ",
"                         ==),>)21==============                 ",
"                          =12;;21=============                  ",
"                          111111============                    ",
"                               ==========                       ",
"                                                                ",
"                                                                "};
