/* XPM */
static char * attackB1_xpm[] = {
"64 64 32 1",
" 	c None",
".	c #F8F8D8",
"+	c #000008",
"@	c #B83878",
"#	c #F870B0",
"$	c #F888B8",
"%	c #D85090",
"&	c #F8A0C8",
"*	c #981858",
"=	c #F8B8D8",
"-	c #F8D0E0",
";	c #C00000",
">	c #F80000",
",	c #D8D8D8",
"'	c #C0C0C0",
")	c #703800",
"!	c #F8F8F8",
"~	c #F8A800",
"{	c #F8B8E0",
"]	c #880050",
"^	c #F87000",
"/	c #301000",
"(	c #A84800",
"_	c #606060",
":	c #F0F0F0",
"<	c #787878",
"[	c #909090",
"}	c #A0A0A0",
"|	c #D06000",
"1	c #F8D000",
"2	c #382000",
"3	c #503000",
"                      .                                         ",
"                      .                                         ",
"             .       . +                                        ",
"             .  .... .                                          ",
"              .     .@ +   @@@@                                 ",
"             ..     . @   @#$#%@                                ",
"             . .   . . @ @#&#*@#*                               ",
"            .  . ++.     @&$*  @*                               ",
"           .    . . +   @$&$*  *@*                              ",
"           .    .   ++@@@=-$** @#*                              ",
"           .  +  .    @#@&=$@+*@%*                              ",
"           .     . . @$*@$&$@##*@*                              ",
"           .        .@#$$%&####*                                ",
"                     @+@$%$@+#@@*                               ",
"                    @@++;@;++$#%#*                              ",
"              +     @%$+>$>+%@%*#*                              ",
"                    @@,$$$$$'#*%%*                              ",
"                     @#,,,,,%##**         )))@@@                ",
"                    $+@!!!''%#*          )~+@{#@@               ",
"                     +@$!!'%##* ]]]] ]]])^/@#@]{#@              ",
"                   + .@#$%@%#%@]##%@]@#$)/)]]##@&@              ",
"                   + . @#%$%%*@%#$$%@#&$/)~@#@&&]               ",
"                   + ***@$&#*@$%#{@#@&&#/)^]@&@#]               ",
"                    *@@&@$&@+&$%%&$%@$#@%)(]]@#]                ",
"                   *#$$@&{@&{&$%@%@]%%%%%]))]]]                 ",
"                  *#@&$@&&@&&$%@]@] ]]]]]                       ",
"                  *$&&$@$&$@&$%%@]]                             ",
"                 *%$@@#@%$%@%%%@]%*@                            ",
"                 *&@&#@&@@@]@@]]$$%*                            ",
"                 *@@#&#@@{&&$$$&{%$*                            ",
"                 *#@&{#@*@&%{@@$@$$___                          ",
"                 *$@#$#*.@$@&$%@$&_,:<_                         ",
"                 *%$@#%* @%@&$%@&_,:,[}_                        ",
"                *%@@#@*+++|~1|(+_},:},'_                        ",
"                *((|#*+ ++|(1|(+_,:},:,_                        ",
"                )^~^()+ _+(~^((+<,:,:!,_                        ",
"                )++++)+ _<<(((__}<,:!!'}_                       ",
"                ++++++.._}}_<__<}<<,!!}'_                       ",
"                +++(().._}}<<_'}'},}::},_                       ",
"                )((~^). _'}}<_}::<,:,},,<_                      ",
"                )^~(() @_,}'}<_''_,!:},'<_                      ",
"                )((%#*@@_,,}}}_}'_<<':,}<}_                     ",
"                *%#&$@@ _':',,}_}_},:!'<}}_                     ",
"                *@#$**  _,,::,<___',!:[,'}_                     ",
"                 *@@%*  _,:!,}<_  __}}<}__                      ",
"                  ***   _:!:'<}_   ++++++                       ",
"                        _!!,}''_    (++++                       ",
"                        _'!:','}_   2(^^(2                      ",
"                        _,:,::'<_   23))32                      ",
"                        _:':!,}__    22222                      ",
"                        _!},,}_<_      222                      ",
"                        _':,}}<}__                              ",
"                        _:!!:,''<_                              ",
"                        _',,:,,}'_++++++                        ",
"                        _:,}}}}'}_+++++++++                     ",
"                         _'!:'''}_+++++++++++                   ",
"                        ++_}}<<}_+++++++++++++                  ",
"                       ++++++++++++++++++++++++                 ",
"                       +++++++((+++++++++++++++                 ",
"                        ++(~^(32++++++++++++++                  ",
"                         +23))32+++++++++++++                   ",
"                         222222++++++++++++                     ",
"                              ++++++++++                        ",
"                                                                "};
