/* XPM */
static char * attack12_xpm[] = {
"64 64 25 1",
" 	c None",
".	c #AD7939",
"+	c #DEAA63",
"@	c #FFFB4A",
"#	c #FFFBFF",
"$	c #AD4900",
"%	c #D66100",
"&	c #FF7100",
"*	c #845118",
"=	c #C69252",
"-	c #FFD300",
";	c #946129",
">	c #F7C373",
",	c #949294",
"'	c #DEDBDE",
")	c #C6C3C6",
"!	c #FFFBDE",
"~	c #6308AD",
"{	c #1851F7",
"]	c #AD0810",
"^	c #5A0000",
"/	c #D61029",
"(	c #FF3031",
"_	c #A5A2A5",
":	c #7B797B",
"                                                                ",
"                        .       .                               ",
"                        .     ..                                ",
"                 .     .+.   .+.    .                           ",
"                 ..    .+.  .@.  ...                            ",
"                  ..  .@+. .@@. .+@.                            ",
"                  .+. .#@..@#+..@@.                             ",
"                  .@+..@+.+#++@.#+...                           ",
"                   .@+.++.@+@@.+@.+. ...                        ",
"                   .#@+..+.@#++@+....@.$$$$$$                   ",
"                    .@.+@.+#+.++.++@#.%&&%$***                  ",
"                   ..+.@#@.+.=.+@@#@.&--%$.==.**                ",
"                  .#@;...+@..+@###@.&-&%%$=>+=.;*               ",
"                 .#@+.++>..+.+##@+.$%&%;;+**=+=.;*              ",
"                 .;;.>>>++=..+@++....;;>+*+>+=.*;*              ",
"                .;  .>>+.==.;;...@.  ;>+*+>>++=.*               ",
"                ;   .+.;,=+.==;.+.  ;*****+++==.*               ",
"               .    ;;'#)++..+;.**%;=+>+=.*.==..*               ",
"                    ;+))++=;=;;...%;;=+>+=.*.=.;*               ",
"                   .=>>++=.;;.=..%===..+++=;...*                ",
"                   ..;.+==;+==.%%=+=.==.=+=.*.;*                ",
"                    ;.+==;++%%%=+>>+=.+=;=..*;*                 ",
"                     ;+=;*+%;;;;*=+++..=;...**                  ",
"                ;;*   ;;  ;;=++=.**=+=.+=;.;*                   ",
"               ;+=.*     ;=+>>++==.*=+=.=;.*                    ",
"              ;+>+=.*   ;=+>+++>+==*=+=;=;;*                    ",
"              ;%%%%.*   ;+>+=+>>>+=.*==;=;*                     ",
"              $--&-%   ;=>+.+>>>>+=.*=+=;.*                     ",
"              $-&---%;;*+>.+>>>>>+=.;.+=;*                      ",
"             $@-&--;;+=;+==+>>>>>+=...+=;*                      ",
"             $!-&-;+>>+;+.+>>>>>>+=...=;.*                      ",
"             $@-&;+>>>+;+=+>>>>>+==.;=.;.*                      ",
"             $!@&;+>>+=.==+>>>++==.*==;;*                       ",
"             $-@&;+>+=.=.;=+++==.**=+.=;*                       ",
"             $~@&;=+..=++=;;;;;**==++==.*                       ",
"             ~{-$=;.=++>>++=.**.=+>>++=.]^                      ",
"              ~-$+.=+>>+++=.*;.=+>++=]]]/^                      ",
"              $&;>;.=+++==.* ]]]]]]]]]//]^                      ",
"               $*+=;*.==.** ]//(/]^]/^^^^                       ",
"                $*** ****   ]]]]]]^^^]]]]^                      ",
"                             %-%%]]]^^]]]^                      ",
"                             %%]]]]^__^^]/^                     ",
"                            :]]]/]^_))__^/^                     ",
"                           :_]]/]]^_#)))_^/^                    ",
"                          :__]]/]^_)###)):^^                    ",
"                          :)_]]/]^_####))_:^                    ",
"                         :_))_]/]^_)####)_:^                    ",
"                         :)))_]/]^:)####))_:                    ",
"                        :_))))_^^^:_)###))_:::                  ",
"                        :))______: :_)###):))_:                 ",
"                        :_)))_:::   :_)##_#)%$$$                ",
"                         :$$$$__:    :_))#)%-&&&$               ",
"                         $~&&&$$_:    ::)_%-@--&$               ",
"                          ~~--&&$$      :$&-~-@&^^^$            ",
"                           $&---&$       $$~{~@-%]]$            ",
"                           $$$$-&$         $~&-@%]]$            ",
"                            ^]]$$$           $&-%/]$            ",
"                           $%$]]]^            $&%//%%           ",
"                          $&-&$]]^             $%/%-%           ",
"                          $$$$$$$$              ^]%@%           ",
"                                                 ^$&$           ",
"                                                  $$            ",
"                                                                ",
"                                                                "};
