/* XPM */
static char * attack14_xpm[] = {
"64 64 25 1",
" 	c None",
".	c #AD7939",
"+	c #FFFB4A",
"@	c #FFFBFF",
"#	c #DEAA63",
"$	c #C69252",
"%	c #946129",
"&	c #F7C373",
"*	c #949294",
"=	c #845118",
"-	c #DEDBDE",
";	c #C6C3C6",
">	c #D66100",
",	c #FF7100",
"'	c #AD4900",
")	c #FFD300",
"!	c #6308AD",
"~	c #FFFBDE",
"{	c #1851F7",
"]	c #AD0810",
"^	c #D61029",
"/	c #FF3031",
"(	c #5A0000",
"_	c #7B797B",
":	c #A5A2A5",
"                                                                ",
"                                                                ",
"                                                                ",
"                                                                ",
"                                                                ",
"                                                                ",
"                    .                                           ",
"                   .+.                                          ",
"                    .@. .                                       ",
"                    .#.  ..     .                               ",
"                     .@#..#.     .                              ",
"                     .+#. .+.   ..                              ",
"                     .+#. .++. .#+.                             ",
"              ....   .@+..+@#..++. .                            ",
"            ..+@##....+#.#@##+.@#..  .                          ",
"              ...+#+#.##.+#++.#+.#. ..                          ",
"                 ..@+#..#.+@##+#.....                           ",
"                   .+.#+.#@#.##.##+@.                           ",
"                  ..#.+@+.#.$.#++@+.                            ",
"                 .@+%...#+..#+@@@+.                             ",
"                .@+#.##&..#.#@@+#.                              ",
"                .+%.&&&##$..#+##....                            ",
"                %% .&&#.$$.%%...+.                              ",
"                %  .#.%*$#.$$%.#.  %===                         ",
"                 % %%-@;##..#%#%%%%.$$.==                       ",
"                @  %#;;##$%$%%..%$#$...$.====                   ",
"                  .$&&##$.%%...>%#&&###..$=..==                 ",
"             @    ..%.#$$%$$..>%$&&&&&&&#.$=$..=                ",
"            @      %.#$$%$$$$.>%#&&&&&&#$$.=$$$=                ",
"           @        %#$%=$#$$>>%$&&&&&#%%%=%.$%.=               ",
"          @         =%%$>=##$>,>%#&&&#=$##$.%.>>''              ",
"         @          =#$=>&=#$>,>%$&&#=$#&&#$.>),),'             ",
"        @@         =#&#=>>=#>),>$%$#$%#&&&&#>)+,)!!             ",
"        @          =&#$=>)>>>,>$##%%%=#&&&#$>~,)!{!             ",
"       @@          =&#$=>)!!,)>#&#.$.%$#&&#>)+,),!'             ",
"       @          ==#$===>!{!)>#&.&#%.%%##$>~),+),'             ",
"      @@         =#===#$=>!!,>$#&&#.%$..%=>)+,)+,'              ",
"      @@         =$=$#&#$=>)>%.$##.%##$..%%%),+),'              ",
"      @         =#=$#&##$.=>>#$%..##&#$%%&#$=)+,'               ",
"     @@         =$''''.$$$.=..#$%%.%#$%$%$&#$=),'               ",
"     @@         ='>,,>''===   .=.#$]]]%&=&$$%=,'                ",
"     @@         '!!)),>=$$#==    =]^/^%$%$&#$='                 ",
"     @@         '!{+))=$##%%$=   ]]]]]]%=&$$%='                 ",
"     @@@        ',)+),%%%%#=#=    >)>>(=%$&#$=                  ",
"     @@@        '>,)+,=$##%%$=  _(((((::=#$$%(                  ",
"      @@@        '>,),%%%%#== __:;;;;::::%%=^(                  ",
"      @@@@@       '',>=$##%%=_:;@@@@;;;::::(^(                  ",
"       @@@@@@@      '''=%%#=_:@@@@@@@;;::__(]^((                ",
"        @@@@@@@@@@@@@@@@=== _;@@@@;;;::__:::(((                 ",
"          @@@@@@@@@@@@@@@@@_:@@;;;@;:__::;::__'''               ",
"             @@@@@@@@@@@   _;@;___::__:;;;:_:',,,'(             ",
"                           _;@@@;:___ _:;;;:',,),']''           ",
"                           _:>>>>':_   _:;;:',)),']'='          ",
"                            ',)+),''    __::',))),']'='         ",
"                            ',!)+),,'     __''',,,']'='         ",
"                             !{!++),'          '''(]]'='        ",
"                              !,))+,'             '(]'='        ",
"                               '>>>>'            ',),'='        ",
"                               (]]^](            ''''''         ",
"                              '>>^^](                           ",
"                             ',+)>]]'                           ",
"                             ''>>>''                            ",
"                                                                ",
"                                                                "};
