/* XPM */
static char * attack15_xpm[] = {
"64 64 25 1",
" 	c None",
".	c #AD7939",
"+	c #DEAA63",
"@	c #FFFB4A",
"#	c #FFFBFF",
"$	c #C69252",
"%	c #946129",
"&	c #F7C373",
"*	c #949294",
"=	c #DEDBDE",
"-	c #C6C3C6",
";	c #845118",
">	c #D66100",
",	c #FF7100",
"'	c #6308AD",
")	c #1851F7",
"!	c #FFD300",
"~	c #AD4900",
"{	c #AD0810",
"]	c #D61029",
"^	c #FF3031",
"/	c #5A0000",
"(	c #7B797B",
"_	c #FFFBDE",
":	c #A5A2A5",
"                                                                ",
"                                                                ",
"                                                                ",
"                                .       .                       ",
"                                .     ..                        ",
"                         .     .+.   .+.    .                   ",
"                         ..    .+.  .@.  ...                    ",
"                          ..  .@+. .@@. .+@.                    ",
"                          .+. .#@..@#+..@@.                     ",
"                          .@+..@+.+#++@.#+...                   ",
"                           .@+.++.@+@@.+@.+. ...                ",
"                           .#@+..+.@#++@+....@.                 ",
"                            .@.+@.+#+.++.++@#.                  ",
"                           ..+.@#@.+.$.+@@#@.                   ",
"                          .#@%...+@..+@###@.                    ",
"                         .#@+.++&..+.+##@+.                     ",
"                         .%%.&&&++$..+@++....                   ",
"                        .%  .&&+.$$.%%...@.                     ",
"                        %   .+.%*$+.$$%.+.                      ",
"                       .    %%=#-++..+%+                        ",
"                            %+--++$%$%%%%;;                     ",
"                           .$&&++$.%%.$$$$.;                    ",
"                           ..%.+$$%%$++..+$.;                   ",
"                            %.+$$%$%+&&++.+$.;                  ",
"                           ;$.+$%$%$&&&&&+.+$;                  ",
"                          ;$+$%%$$%+&&&&&&$$+.;                 ",
"                          ;+&$;;+>%+&&&&&&+.+$;                 ",
"                         ;+&+;>;+>%$&&&&&&&+.$;;                ",
"                         ;+&+;>>>,,%+&&&&&&+.$;.;               ",
"                         ;$+$;'',@>%$+&&&++++$;$.;              ",
"                         ;.$.;')'!>+%$+$;;%.$.;$$;              ",
"                          ;.;;'',>+&+%%;$++$%;$&$.;             ",
"          #              ;+;$;>!>+&+$.%$+&&&+$.+$$;             ",
"                         ;;+&$>>$....$%+&&&&&+.$+.;             ",
"        #               ;+;+&+.;&+$+$+$%+&&&&+$.$;+;            ",
"                        ;+;$++$.%.%.+$.%+&&&&&+%.;$;            ",
"       #                ;~~~~$$..%+.%+&+%++&&&+.>~~;            ",
"       #                ~>,,>~..; .+$%+$$%%+++$>!,,~            ",
"      #                ''!@!,>~.; {{{{{{{{{%>>>!,',~            ",
"      #                ')@@!!,>~  {]]^]]/]]>!!,!')'~            ",
"      #                ~,!@@!,>~   {{{{{//{>@!,@!''~            ",
"      #                ~,!!@,,~    >!>>]]{/>!@,!@!,~            ",
"       #               ~,;;%,>~   (>>]]]]{/{>_!,@!,~            ",
"       #               ~;%+&%~   ({^]/////{{>_@,@!,~            ",
"        #              ;$+%%+%  ({^//:::::/{>!_,!!,~            ",
"        #              ;$.+&%%%(:{/::----::/]>@,!,~             ",
"                       ;.+&.&%%(-(:--###--:/{>!,,>;             ",
"          #             ;$.&.&%:(:-######-:(/>>>>.;             ",
"                        ;%$.+%(-(-#####--:(;%$++&$;             ",
"              #          ;%%% ((:###-((::(,%+&&&+$;             ",
"                              ((--###-:((,!%&.&+$.;             ",
"                               (:>>>>-:(,,!,%$+$.;              ",
"                                ~,,!,>~(~~,!,%%;;               ",
"                                 ~',@,,~  ~~,{{>~               ",
"                                 ')'!@!,~   ~/{>,~              ",
"                                  ',!@!,~     /~!~              ",
"                                  ~,!!@,~       ~               ",
"                                   ~>>>,~                       ",
"                                   /{{]>~                       ",
"                                  ~>>]]{/                       ",
"                                 ~,@!>{{/                       ",
"                                 ~~>>>~~~                       ",
"                                                                ",
"                                                                "};
