/* XPM */
static char * attackB0_xpm[] = {
"64 64 14 1",
" 	c None",
".	c #B83878",
"+	c #981858",
"@	c #000008",
"#	c #F888B8",
"$	c #F8A0C8",
"%	c #F870B0",
"&	c #F8B8D8",
"*	c #F8D0E0",
"=	c #A84800",
"-	c #F8A800",
";	c #F87000",
">	c #703800",
",	c #D85090",
"                                                                ",
"                                                                ",
"                                                                ",
"                                                                ",
"                                                                ",
"                                                                ",
"                                                                ",
"                                                                ",
"                                                                ",
"                                                                ",
"                                                                ",
"                                                                ",
"                                                                ",
"                                                                ",
"                                                                ",
"                                                                ",
"                                                                ",
"                                                                ",
"                                                                ",
"                                                                ",
"                                                                ",
"                                  .+                            ",
"                                 .@+                            ",
"                                .#+                             ",
"                          ...  .$. .+                           ",
"                          .@#..$#.+#@+                          ",
"                           .%$.&$#%++                           ",
"                            .#&*&%..                            ",
"                             .#===##@+                          ",
"                             +=--;=++                           ",
"                             >;===;>                            ",
"                             >=@@@=>                            ",
"                             @@@@@@@                            ",
"                             @=;-;=@                            ",
"                             >====>>                            ",
"                             >+%#,,>                            ",
"                           @@++%$#++@                           ",
"                        @@@@@@+.,,,+@@@@                        ",
"                      @@@@@@@@+,%%+@@@@@@@                      ",
"                     @@@@@@@@@+%#$+.@@@@@@@                     ",
"                    @@@@@@@@++,#$$#.@@@@@@@@                    ",
"                    @@@@@@@@.,.#$.%+@@@@@@@@                    ",
"                     @@@@@@@@@@@@@@@@@@@@@@                     ",
"                      @@@@@@@@@@@@@@@@@@@@                      ",
"                        @@@@@@@@@@@@@@@@                        ",
"                           @@@@@@@@@@                           ",
"                                                                ",
"                                                                ",
"                                                                ",
"                                                                ",
"                                                                ",
"                                                                ",
"                                                                ",
"                                                                ",
"                                                                ",
"                                                                ",
"                                                                ",
"                                                                ",
"                                                                ",
"                                                                ",
"                                                                ",
"                                                                ",
"                                                                ",
"                                                                "};
