/* XPM */
static char * attackB1_xpm[] = {
"64 64 32 1",
" 	c None",
".	c #B83878",
"+	c #F870B0",
"@	c #F888B8",
"#	c #D85090",
"$	c #F8A0C8",
"%	c #981858",
"&	c #F8B8D8",
"*	c #F8D0E0",
"=	c #000008",
"-	c #703800",
";	c #880050",
">	c #F87000",
",	c #F8A800",
"'	c #F8B8E0",
")	c #301000",
"!	c #C00000",
"~	c #F80000",
"{	c #F8F8F8",
"]	c #900000",
"^	c #606060",
"/	c #A0A0A0",
"(	c #A84800",
"_	c #F8D000",
":	c #D8D8D8",
"<	c #D06000",
"[	c #F0F0F0",
"}	c #787878",
"|	c #C0C0C0",
"1	c #909090",
"2	c #382000",
"3	c #503000",
"                                                                ",
"                                                                ",
"                                                                ",
"                                                                ",
"                                                                ",
"                                                                ",
"                                                                ",
"                                                                ",
"                                                                ",
"                                ...                             ",
"                               .+@+#.                           ",
"                              .+$+%.+%                          ",
"                             ..$@%  .%                          ",
"                             .@$@%  %.%                         ",
"                            ..$&@%% .+%                         ",
"                           .#.**@%+%.#%                         ",
"                           .#.&*@%+#%.%                         ",
"                          .+%.$&@.=@#%.   ==-...                ",
"                          .++++$@.@+@%;;-==>.###.               ",
"                         .#++%@#+.$+.@%.>==,..@$#.              ",
"                        .+#+@+@@$+$+.@%#,==>.#.@'.              ",
"                       .#++#.@&+$@.+#+%$>==)>'.'.               ",
"                      .#+###=.@#@.=#.#%''-)))-..                ",
"                      .#+..+==!.!==+%%..%                       ",
"                     .#+@+$.#=~@~=@.#.$%                        ",
"                     .#@&+;.++#.#@+.+.'%                        ",
"                    .#+@+#@.!{{{{{!.+.%                         ",
"                    .#+.+@&.&!!!!]@.+;=                         ",
"                    .$'@+++$.+]]]@.+;=^                         ",
"                    .;$@@+#++.....$;=/^                         ",
"                    ;#+##.;.##+$@.;(//^                         ",
"                    #....;#;....._(//:/^                        ",
"                    .%$@+#%/====<([[/:/}^                       ",
"                    %++.#%||[{|^/::{|::/^                       ",
"                    %##+%|:/[|:/^/:{{/[:}^                      ",
"                    %.#+%/:|1/^1^/:{:|/:/^                      ",
"                    %%$$%|:[/:|1^}|:{:|[:}^                     ",
"                   ^%.*#%/:[:|/}}^}}/||[[/^                     ",
"                  ^|%#*#%/}|//}^^^/|://[::}^                    ",
"                  ^:.#*#%}/}^^^   ^/{:::[:/}^                   ",
"                  ^:.#&#%/}^       ^:{:/[[:/^                   ",
"                 ^|:.@&#%}^        ^/::::[/:}^                  ",
"                 ^[:.@$#%^^         ^||/[[/:/^                  ",
"                 ^|{.@$#%           ^|:[:/::}^                  ",
"                  ^/.@@#%            ^/:{[/:|}^                 ",
"                   }.@+#%            ^}|:/:[|}^                 ",
"                   =.@+#%======       ^}}|[:/}/^                ",
"                  (,.@@#%=========    ^/:[{|}//^                ",
"                ==23.@+#%===========   ^:{[1:|/^                ",
"               ==222.@@#%============   ^//}/^^                 ",
"              ======.@+#%=============   =====                  ",
"              ======.@+#%=============   (====                  ",
"               =====.@@#%============    2(>>(2                 ",
"                ====.@+#%===========     23--32                 ",
"                  ==.@+#%=========        222222                ",
"                    .@+#%======                                 ",
"                                                                ",
"                                                                ",
"                                                                ",
"                                                                ",
"                                                                ",
"                                                                ",
"                                                                ",
"                                                                "};
