/* XPM */
static char * attackB2_xpm[] = {
"64 64 32 1",
" 	c None",
".	c #F8F8D8",
"+	c #B83878",
"@	c #981858",
"#	c #703800",
"$	c #000008",
"%	c #D85090",
"&	c #F870B0",
"*	c #F888B8",
"=	c #F8A0C8",
"-	c #A84800",
";	c #F87000",
">	c #F8A800",
",	c #F8B8D8",
"'	c #F8D0E0",
")	c #D06000",
"!	c #C00000",
"~	c #F80000",
"{	c #D8D8D8",
"]	c #C0C0C0",
"^	c #F8F8F8",
"/	c #880050",
"(	c #F8B8E0",
"_	c #301000",
":	c #606060",
"<	c #F0F0F0",
"[	c #787878",
"}	c #909090",
"|	c #A0A0A0",
"1	c #F8D000",
"2	c #382000",
"3	c #503000",
"                    .                                           ",
"                   +.                                           ",
"                 +++.. @@@                                      ",
"                +++..#$$+%@                                     ",
"              .++ ...$$&*@@    ++++                             ",
"              +. ..$.@%&=*+   +&*&%+                            ",
"              + ..$#.#--%&@  +&=&@+&@                           ",
"             ++ ...#.#;>--#  +=*@  +@                           ",
"             + . $. ..-->;# +*=*@  @+@                          ",
"           . + . $#  $$$--#++,'*@@ +&@                          ",
"           .++   $#  $$$$$+&+=,*+$@+%@                          ",
"            .+. $# **#$$$+*@+*=*+&&@+@                          ",
"             .. $ ** #;>;+&**%=&&&&@                            ",
"            + ..$ *  @--)+$+*%*+$&++@                           ",
"           ++. $. * =@%+++$$!+!$$*&%&@                          ",
"           ++. $#.  = @%+%*$~*~$%+%@&@                          ",
"           + .   * =  @*++{*****]&@%%@                          ",
"           + .   * =  @&++&{{{{{%&&@@                           ",
"           + . $#* =  @++&+^^^]]%&@           ###+++            ",
"         . +   $#*    @=+=+*^^]%&&@ //// ////#>$+(&+            ",
"          .+   $      @%*++&*%+%&%+/&&%+/+&*#;_+&+/(+           ",
"           ... $       @*==+&%*%%@+%&**%+&=*#_#//&&+&+          ",
"              .$.*     @&+=*+*=&@+*%&(+&+==&_#>+&+===+          ",
"           +            @&**+*=+$=*%%=*%+*&+_#;/+=+&/           ",
"           +  .          @++=(+=(=*%+%+/%%%%%#-//+&//           ",
"                          @+==+==*%+/+/ //////##///             ",
"            +   $# *       +*=*+=*%%+//                         ",
"            + . $          +%*%+%%%+/%@+                        ",
"              .  .          +++/++//**%@                        ",
"                .           +(==***=(%*@                        ",
"             + . $           +=%(++*+**:::                      ",
"              ..             +*+=*%+*=:{<[:                     ",
"              +              +%+=*%+=:{<{}|:                    ",
"               +  $         $$)>1)-$:|{<|{]:                    ",
"                 .          $$)-1)-$:{<|{<{:                    ",
"                 +          :$->;--$[{<{<^{:                    ",
"                   $        :[[---::|[{<^^]|:                   ",
"                            :||:[::[|[[{^^|]:                   ",
"                            :||[[:]|]|{|<<|{:                   ",
"                            :]||[:|<<[{<{|{{[:                  ",
"                            :{|]|[:]]:{^<|{][:                  ",
"                            :{{|||:|]:[[]<{|[|:                 ",
"                            :]<]{{|:|:|{<^][||:                 ",
"                            :{{<<{[:::]{^<}{]|:                 ",
"                            :{<^{|[:  ::||[|::                  ",
"                            :<^<][|:   $$$$$$                   ",
"                            :^^{|]]:    -$$$$                   ",
"                            :]^<]{]|:   2-;;-2                  ",
"                            :{<{<<][:   23##32                  ",
"                            :<]<^{|::    22222                  ",
"                            :^|{{|:[:      222                  ",
"                            :]<{||[|::                          ",
"                            :<^^<{]][:                          ",
"                            :]{{<{{|]:                          ",
"                            :<{||||]|:$$$$$$                    ",
"                             :]^<]]]|:$$$$$$$$$                 ",
"                             $:||[[|:$$$$$$$$$$$$               ",
"                            $$$$$$$$$$$$$$$$$$$$$$              ",
"                           $$$$$$$--$$$$$$$$$$$$$$$             ",
"                           $$$$$;-32$$$$$$$$$$$$$$$             ",
"                            $$->##32$$$$$$$$$$$$$$              ",
"                             $23222$$$$$$$$$$$$$$               ",
"                             222$$$$$$$$$$$$$$$                 ",
"                                  $$$$$$$$$$                    "};
