/* XPM */
static char * attack7_xpm[] = {
"64 64 25 1",
" 	c None",
".	c #AD7939",
"+	c #DEAA63",
"@	c #FFFB4A",
"#	c #FFFBFF",
"$	c #C69252",
"%	c #946129",
"&	c #F7C373",
"*	c #949294",
"=	c #C6C3C6",
"-	c #DEDBDE",
";	c #845118",
">	c #D66100",
",	c #FF7100",
"'	c #6308AD",
")	c #FFD300",
"!	c #1851F7",
"~	c #AD4900",
"{	c #AD0810",
"]	c #D61029",
"^	c #5A0000",
"/	c #FF3031",
"(	c #FFFBDE",
"_	c #7B797B",
":	c #A5A2A5",
"                                                                ",
"                                                                ",
"                                                                ",
"                       .       .                                ",
"                        ..     .                                ",
"                   .    .+.   .+.     .                         ",
"                    ...  .@.  .+.    ..                         ",
"                    .@+. .@@. .+@.  ..                          ",
"                     .@@..+#@..@#. .+.                          ",
"                   ...+#.@++#+.+@..+@.                          ",
"                ... .+.@+.@@+@.++.+@.                           ",
"                 .@....+@++#@.+..+@#.                           ",
"                  .#@++.++.+#+.@+.@.                            ",
"                   .@#@@+.$.+.@#@.+..                           ",
"                    .@###@+..@+...%@#.                          ",
"                     .+@##+.+..&++.+@#.                         ",
"                   ....++@+..$++&&&.%%.                         ",
"                     .@...%%.$$.+&&.  %.                        ",
"                      .+.%$$.+$*%.+.   %                        ",
"                        +%+..++=#-%%    .                       ",
"                     ;;%%%%$%$++==+%                            ",
"                    ;.$$$$.%%.$++&&$.                           ",
"                   ;.$+..++$%%$$+.%..                           ",
"                  ;.$+.++&&+%$%$$+.%                            ",
"                  ;$+.+&&&&&$%$%$+.$;                           ",
"                 ;.+$$&&&&&&+%$$%%$+$;                          ",
"                 ;$+.+&&&&&&+%>+;;$&+;                          ",
"                ;;$.+&&&&&&&$%>+;>;+&+;                         ",
"               ;.;$.+&&&&&&+%,,>>>;+&+;                         ",
"              ;.$;$++++&&&+$%>@,'';$+$;                         ",
"              ;$$;.$.%;;$+$%+>)'!';.$.;                         ",
"             ;.$&$;%$++$;%%+&+>,'';;.;                          ",
"             ;$$+.$+&&&+$%.$+&+>)>;$;+;              #          ",
"             ;.+$.+&&&&&+%$....$>>$&+;;                         ",
"            ;+;$.$+&&&&+%$+$+$+&;.+&+;+;               #        ",
"            ;$;.%+&&&&&+%.$+.%.%.$++$;+;                        ",
"            ;~~>.+&&&++%+&+%.+%..$$~~~~;                #       ",
"            ~,,)>$+++%%$$+%$+. ;..~>,,>~                #       ",
"            ~,',)>>>%{{{{{{{{{ ;.~>,)@)''                #      ",
"            ~'!'),))>]]^]]/]]{  ~>,))@@!'                #      ",
"            ~'')@,)@>{^^{{{{{   ~>,)@@),~                #      ",
"            ~,)@),@)>^{]]>>)>    ~,,@)),~                #      ",
"            ~,)@,)(>{^{]]]]>>_   ~>,%;;,~               #       ",
"            ~,)@,@(>{{^^^^^]/{_   ~%&+%;~               #       ",
"            ~,)),()>{^:::::^^/{_  %+%%+$;              #        ",
"             ~,),@>]^::====::^{:_%%%&+.$;              #        ",
"             ;>,,)>{^:==###==:_=_%%&.&+.;                       ",
"             ;.>>>>^_:=######=:_:%&.&.$;             #          ",
"             ;$&++$%;_:==#####=_=_%+.$%;                        ",
"             ;$+&&&+%,_::__=###:__ %%%;          #              ",
"             ;.$+&.&%),__:=###==__                              ",
"              ;.$+$%,),,_:=>>>>:_                               ",
"               ;;%%,),~~_~>,),,~                                ",
"               ~>{{,~~  ~,,@,'~                                 ",
"              ~,>{^~   ~,)@)'!'                                 ",
"              ~)~^     ~,)@),'                                  ",
"               ~       ~,@)),~                                  ",
"                       ~,>>>~                                   ",
"                       ~>]{{^                                   ",
"                       ^{]]>>~                                  ",
"                       ^{{>)@,~                                 ",
"                       ~~~>>>~~                                 ",
"                                                                ",
"                                                                "};
