/* XPM */
static char * attack6_xpm[] = {
"64 64 25 1",
" 	c None",
".	c #AD7939",
"+	c #FFFB4A",
"@	c #FFFBFF",
"#	c #DEAA63",
"$	c #C69252",
"%	c #946129",
"&	c #F7C373",
"*	c #845118",
"=	c #949294",
"-	c #C6C3C6",
";	c #DEDBDE",
">	c #D66100",
",	c #AD4900",
"'	c #FF7100",
")	c #FFD300",
"!	c #6308AD",
"~	c #1851F7",
"{	c #FFFBDE",
"]	c #AD0810",
"^	c #D61029",
"/	c #FF3031",
"(	c #5A0000",
"_	c #A5A2A5",
":	c #7B797B",
"                                                                ",
"                                                                ",
"                                                                ",
"                                                                ",
"                                                                ",
"                                                                ",
"                                           .                    ",
"                                          .+.                   ",
"                                       . .@.                    ",
"                               .     ..  .#.                    ",
"                              .     .#..#@.                     ",
"                              ..   .+. .#+.                     ",
"                             .+#. .++. .#+.                     ",
"                            . .++..#@+..+@.   ....              ",
"                          .  ..#@.+##@#.#+....##@+..            ",
"                          .. .#.+#.++#+.##.#+#+...              ",
"                           .....#+##@+.#..#+@..                 ",
"                           .@+##.##.#@#.+#.+.                   ",
"                            .+@++#.$.#.+@+.#..                  ",
"                             .+@@@+#..+#...%+@.                 ",
"                              .#+@@#.#..&##.#+@.                ",
"                            ....##+#..$##&&&.%+.                ",
"                              .+...%%.$$.#&&. %%                ",
"                         ***%  .#.%$$.#$=%.#.  %                ",
"                       **.$$.%%%%#%#..##-@;%% %                 ",
"                   ****.$...$#$%..%%$%$##--#%  @                ",
"                 **..*$..###&&#%>...%%.$##&&$.                  ",
"                *..$*$.#&&&&&&&$%>..$$%$$#.%..    @             ",
"                *$$$*.$$#&&&&&&#%>.$$$$%$$#.%      @            ",
"               *.%$.%*%%%#&&&&&$%>>$$#$*%$#%        @           ",
"              ,,>>.%.$##$*#&&&#%>'>$##*>$%%*         @          ",
"             ,')')>.$#&&#$*#&&$%>'>$#*&>*$#*          @         ",
"             !!)'+)>#&&&&#%$#$%$>')>#*>>*#&#*         @@        ",
"             !~!)'{>$#&&&#*%%%##$>'>>>)>*$#&*          @        ",
"             ,!')'+)>#&&#$%.$.#&#>)'!!)>*$#&*          @@       ",
"             ,')+'){>$##%%.%#&.&#>)!~!>***$#**          @       ",
"              ,'+)'+)>*%..$%.#&&#$>'!!>*$#***#*         @@      ",
"              ,')+')%%%..$##%.##$.%>)>*$#&#$*$*         @@      ",
"               ,'+)*$#&%%$#&##..%$#>>*.$##&#$*#*         @      ",
"               ,')*$#&$%$%$#%.%%$#..*.$$$.,,,,$*         @@     ",
"                ,'*%$$&*&%]]]$#.*.   ***,,>''>,*         @@     ",
"                 ,*$#&$%$%^/^]*    **#$$*>'))!!,         @@     ",
"                 ,*%$$&*%]]]]]]   *$%%##$*))+~!,         @@     ",
"                  *$#&$%*(>>)>    *#*#%%%%')+)',        @@@     ",
"                  (%$$#*__(((((:  *$%%##$*'+)'>,        @@@     ",
"                  (^*%%____----_:: **#%%%%')'>,        @@@      ",
"                  (^(____---@@@@-_:*%%##$*>',,       @@@@@      ",
"                ((^](::__--@@@@@@@_:*#%%*,,,      @@@@@@@       ",
"                 (((___::__---@@@@-: ***@@@@@@@@@@@@@@@@        ",
"               ,,,::__-__::_-@---@@_:@@@@@@@@@@@@@@@@@          ",
"             (,''',_:_---_::__:::-@-:   @@@@@@@@@@@             ",
"           ,,],')'',_---_: :::_-@@@-:                           ",
"          ,*,],'))',_--_:   :_,>>>>_:                           ",
"         ,*,],')))',__::    ,,')+)',                            ",
"         ,*,],''',,,::     ,'')+)!',                            ",
"        ,*,]](,,,          ,')++!~!                             ",
"        ,*,](,             ,'+))'!                              ",
"        ,*,')',            ,>>>>,                               ",
"         ,,,,,,            (]^]](                               ",
"                           (]^^>>,                              ",
"                           ,]]>)+',                             ",
"                            ,,>>>,,                             ",
"                                                                ",
"                                                                "};
