/* XPM */
static char * attack9_xpm[] = {
"64 64 24 1",
" 	c None",
".	c #FFFBFF",
"+	c #946129",
"@	c #C69252",
"#	c #AD7939",
"$	c #845118",
"%	c #DEAA63",
"&	c #FFFB4A",
"*	c #AD4900",
"=	c #FF7100",
"-	c #FFD300",
";	c #6308AD",
">	c #1851F7",
",	c #D66100",
"'	c #F7C373",
")	c #FFFBDE",
"!	c #5A0000",
"~	c #AD0810",
"{	c #D61029",
"]	c #FF3031",
"^	c #7B797B",
"/	c #A5A2A5",
"(	c #C6C3C6",
"_	c #DEDBDE",
"                                      ..++.....                 ",
"                                    ..++@#++.....               ",
"                       ## ####   #  #$+@@%@#++.....             ",
"                   #   #&# #&&@ ## ##$#%%@***** ....            ",
"                    ####.&##%.&#%&#&###%$*#=--=*  ...           ",
"                    #&%#..%#%#%#%#&.#&#%##&-=&-=*  ...          ",
"                     #&#&.&#&##%%..&%&##&#&&-=&-=;  ...         ",
"                     #%#%&%&%#%#&.&#&.#&%#-&-=--;>;  ..         ",
"                ###   #%#%#&#%&%#&&%.&#%#*=##-=-=;;* ..         ",
"                 #&####&#####&.&%###&%######-&=--==*  ..        ",
"                  #&.&%@&##&%&..&#%#%#%&.%#==--,,,,=* ..        ",
"                   #&.%#&%#.&%&&%&&##&..&#*=++++@##$*  ..       ",
"                    #&&%##%..&##&.&#%&&%# *+@@@#+@##$  ..       ",
"                    ##%#@#%&.%#%&.%#%#######''%@#+@#$   .       ",
"                    #%##%&##&#&#%&###&..&%#%'''%@#+#$   .       ",
"                     #&##%.%#&.&#%#%&..&%#@%%%%@@#+#$   ..      ",
"                      #%&#%&##%&%#%##%%##$#@++++##+@#$   .      ",
"                     ##+%.##%&%###&&%######+#@@#++#@#$   .      ",
"                     #&%+%&#%.&#%%#.&#%&&#@%%%%%@#+##$   .      ",
"               ####+++###+#&%###.%##.####@%%'''%%@#+#$          ",
"             ##@%%@@@++  +###++#&#++##  +%%'''''%@#+#$          ",
"            #@%'@@%%@@@+,#+++@@##+@##+,+#%''''''%%+#+           ",
"           #@%'@#%'%%@@##,,@%%@#+@@#,,#+@%''''''%%+@$           ",
"           #%''#%'''%%@@@@@,,==,=,,,#@@+@%''''''%@+#$           ",
"          #@%'@@%'''%%@@%%%%@###@%%%%@%+@%'''''%%+@$            ",
"          #@%'#%''''%@@@%''%%@@@%%'''%%+@%'''''%+@#$            ",
"          #@%'@%'''%%@@%'''''%##@%''''%#@%%'''%%@#$             ",
"          #@%'''''%%@@@%''''%@###@%''%%@#@%%%%%@#$              ",
"          #@%%'%%%@@@#@%'''%%%@#@@%%%%%%#@@%@@@#$               ",
"          #@@%@@+##++##@%'''%%@#@@@@%''%@#@@##$$                ",
"         ,-#@@+#@@@###@#%'''%@#+#@@%%''%####$$                  ",
"        ,-=+@+@%%%@@#$@+%%'%%@#+#@@%'''%+##$                    ",
"        ,&#@+@%''%%@#$@+@%'%@@#+##@%'%%+##+                     ",
"        ,)##@%''''%@#$@#+##+##@+@@#+##+#@#+                     ",
"        ,&##%''''%%@$+###++#@@@+@@@#++#@#+                      ",
"        ,-#@%'''%%@#$+#@@#+@%%%#@%%@+#@@#+                      ",
"         ,&#@%'%%@#$  +#@@+@@%@#@%%@+@@#+                       ",
"         ,-#@%@+@#$    +#@@#@@@#@@@#@@#+                        ",
"          ,-#'%@+$    !!~~~@@@@@@@@@~~~!!                       ",
"           ,,+@#$     !~{~{~~~~~~~~~{]{{!                       ",
"              $$       !!!~~{]~]]{~{{{!!!                       ",
"                       !~~!!~~~!!{{{!!~!                        ",
"                      !~]{~~!!!!~~!!~~!!                        ",
"                     !~{]]{{~~~!~{~~~~~~!                       ",
"                     !{]]{{~~{~!~{]{{~~~!                       ",
"                    ^/!{]{{~]{~!~{]]{{~~~!                      ",
"                    ^(/!{{~{]{~~~{{~~!!!!!                      ",
"                    ^(_/!!{]{{~~~~~!!////^!                     ",
"                    ^_.^//!!{{~!~!!//((_(/^                     ",
"                    **_/^^^^!!!!! ^/(_.._(^                     ",
"                    *-******      ^/__/^^/^                     ",
"                     *-)&-=*       ^(/_.._/^                    ",
"                      *-&-=*       ^/(.__((^                    ",
"                     *!,,,,*        ^/****/^                    ",
"                     *!{~~~!        ^*=-&-*^                    ",
"                      *{{~~!         *=-&-=*                    ",
"                       *,,*          *=-&-=*                    ",
"                                      *=&-=*                    ",
"                                      *=,,,*                    ",
"                                      *,{~~!*                   ",
"                                       !{{~~!*                  ",
"                                       !,,**!*                  ",
"                                       *$$$$*                   ",
"                                        ****                    "};
