/* XPM */
static char * attack1_xpm[] = {
"64 64 25 1",
" 	c None",
".	c #AD7939",
"+	c #946129",
"@	c #C69252",
"#	c #FFFB4A",
"$	c #DEAA63",
"%	c #FFFBFF",
"&	c #F7C373",
"*	c #845118",
"=	c #D66100",
"-	c #AD4900",
";	c #FFD300",
">	c #FF7100",
",	c #FFFBDE",
"'	c #949294",
")	c #DEDBDE",
"!	c #C6C3C6",
"~	c #AD0810",
"{	c #6308AD",
"]	c #1851F7",
"^	c #5A0000",
"/	c #D61029",
"(	c #FF3031",
"_	c #7B797B",
":	c #A5A2A5",
"                                                                ",
"                          .  .   .... ..                        ",
"   +++                  . .. .. @##. .#.   .             +++    ",
"  +@+++             .   ...#.#$.#%$..##....             +++$+   ",
" +@.&@.+             .. .#.%#.$.$.$.$%#.$#.            +&&@.@+  ",
"+@&+.&@+             .#..#$#%%$$.#..#%#.#.             +&@.+$*+ ",
"+&+&@=--             .$#.%#.#%#.#.#.$#$.$.             ===&$+@+ ",
"+.&@=;;>-         ..  .$.#%$.##..#.#.$.$.   ...       =>>>=$@.+ ",
" +@=;#;;>-         ......$#.$.$.#%#.$..#....#.       =>;##>=@+  ",
"  ->;,#;;>-         .$%#$..$%$..%%%$..#@##%#.       =>;#,#;>-   ",
"   ->,##;;>-         .#%%$.%%#$.#..#.$#.$%#.       =>;#,#;>-    ",
"   ->;,;>--..         .$#.%#..#..$@.$..#%#.       **==>;#;>-    ",
"    ->;>-@+@@..    .....$.#.$$.$$&$@+.@#$..     **@@.@=>;>-     ",
"    ->;-@+@$$@@.    .#%$.#.$&&$&&&$@+.#$.$.    *@$$@@.@=;>-     ",
"     ->-@+$&&&$@.    .##..$..+&&&+.+.++.#.    *@$&&$@.@->-      ",
"      -.$.$&&&&$@.++  .+&.$&').$.!'@@+@+.  +**@&&&&$@.@+-       ",
"       .$$.$&&&&$+@$...+$.@&!%)+)%!@.+$+..+..*$&&&$@.$.+        ",
"        .&$.$&&&$@.&$@#$+$+$&!!$!!$@+@+$#.@@+@&&&$@.$@+         ",
"         .&$.$&&$@+$&@...++@&&&@&&$.++...@$@+$&&$@.$@+          ",
"          .&$.@$$@.@&$@+ +@+$&%%%$$+@+ +@$&+.$&$@.&@+           ",
"          .$&$.+@@+.$$@+=+$+@~~~~~@+$@=+$&$*.@@..&$@+           ",
"           .$&$@++@+@$@+==&$+%%%%%+$&==+$&@+@..$&$@+            ",
"            .$&&$$@@.@@.@===.+@$@+.===.+$&+.@$&&$@+             ",
"             .+@@@@.+@.@@=;>==+++==>;=@@@$*.@$@@++              ",
"               .+*+.+..@$@=;#>===>;#=@@$$.*.*+++                ",
"                 +@..+.$&&@=;#>{>#;=.@$$..@*.*                  ",
"                  +@..@.@$$@=;{]{;=.@$$@$.@.*                   ",
"                  +@@.@$&&&&@=>{>=..@.$$@.@.*                   ",
"                   +@@.$&&@...=;=....$&$.@@*                    ",
"                   +$@.@&&&&$@.=.@$&&&$@.@.*                    ",
"                    +@@.$&&&&$@.@$&&&$@.@@*                     ",
"                    +$@@++$&$@.@.@$&$++@@.*                     ",
"                     +$@@@++..@$$.+++$@@.*                      ",
"                      +$@@.@@@.+.@@@.@$@*                       ",
"                      +$..$&$@&.$.@$$..@*                       ",
"                       +$&&&@..+..+&&$@*                        ",
"                       +@$&$.&@.$@+@~~~~^                       ",
"                      ~/~@&$.$@.~~~~~/(/^                       ",
"                      ~//~~~~~~~/(//~/^^                        ",
"                      ~//(//~/~~~~~~^^/~^                       ",
"                       ~^(///~>;>=^^~//~~^                      ",
"                       ~/^^^^~===~~^^~///~^                     ",
"                       ~(/~~~//~~~(^_^^~~/^                     ",
"                       ~/~:~////~~/^:!:^^~/^                    ",
"                      ~/~::~(/(~/~^:)))::_~^                    ",
"                      ~~_!:~(/(~/~^_)%%!):~^                    ",
"                      ~~!)!~(/(~/~^_)%)!%)_^                    ",
"                      ~_)%!~//(/~~^_!)!_%)_^                    ",
"                      ~_)%:~/~//^^ _:!!_)%_                     ",
"                       _%)_~~~~~    _::!_%_                     ",
"                       _%_)!::_     _:!)_)_                     ",
"                       _)_))!:_     __)%_)_                     ",
"                       _):)%)__     __!%%%_                     ",
"                        _%%%!__     _:_%%)_                     ",
"                        _)%%_:_     -:!))!_                     ",
"                        _!))!:-     --====-                     ",
"                        -====--     ->>{]-                      ",
"                         -]{>>-     ->;#>-                      ",
"                         ->#;>-     ^===-                       ",
"                          -===^      ~--~                       ",
"                          ~--~       ->;-                       ",
"                          -;>-        ==                        ",
"                           ==                                   ",
"                                                                "};
