/* XPM */
static char * attack10_xpm[] = {
"64 64 24 1",
" 	c None",
".	c #FFFBFF",
"+	c #AD7939",
"@	c #FFFB4A",
"#	c #C69252",
"$	c #DEAA63",
"%	c #946129",
"&	c #845118",
"*	c #AD4900",
"=	c #FF7100",
"-	c #FFD300",
";	c #F7C373",
">	c #D66100",
",	c #FFFBDE",
"'	c #AD0810",
")	c #5A0000",
"!	c #6308AD",
"~	c #D61029",
"{	c #1851F7",
"]	c #FF3031",
"^	c #7B797B",
"/	c #A5A2A5",
"(	c #C6C3C6",
"_	c #DEDBDE",
"                                                                ",
"                         ...............                        ",
"                      .........      .......                    ",
"                   ........                 ...                 ",
"                 .......   ++ ++++   +  +      ..               ",
"                ...... +   +@+ +@@# ++ ++ +      ..             ",
"               .....    ++++.@++$.@+$@+@+++   +    .            ",
"              ..%%&&&&**+@$+..$+$+$+$+@.+@+ ++      .           ",
"              .%+##++*===+@+@.@+@++$$..@$@++@+                  ",
"              .%$$$#*-@@-+$+$@$@$+$+@.@+@.+@$+                  ",
"              .%;$$$+++>>>+$+$+@+$@$+@@$.@+$+  ++    .          ",
"               %%;$$*+@++++@+++++@.@$+++@$++++++                ",
"                 %$#*-+@.@$#@++@$@..@+$+$+$@.$+                 ",
"                  %% **+@.$+@$+.@$@@$@@++@..@+                  ",
"                       *+@@$++$..@++@.@+$@@$+&                  ",
"                        ++$+#+$@.$+$@.$+$+++++++                ",
"                        +$++$@++@+@+$@+++@..@$+&                ",
"                         +@++$.$+@.@+$+$@..@$+#+&               ",
"                          +$@+$@++$@$+$++$$++##+&               ",
"                         ++%$.++$@$+++@@$++++++#+&              ",
"                         +@$%$@+$.@+$$+.@+$@@$##+&              ",
"                          +++%+@$+++.$++.++++#$#+&              ",
"                     +++%%   %+++%%+@+%%++#$$$$#+&              ",
"                   ++#$$$#%%>&%%%##++%##>##$;;$#+&              ",
"                  +#$;;$#$##%>>#$$#+%###>$#+$;$+&               ",
"                 +#$;;#+$$$##%#>>$####>>$;$#+$$+&               ",
"                 +$;;;+$;;$$##%$#>==>=#$;;;$+#+&                ",
"                +#$;;$+$;;;$###$$$#+++$;;;$$+%+&                ",
"                +#$;;##;;;;$$##$;$$$###$$$;$+%&                 ",
"                +#$;;+$;;;;$$##$;;$#+++#$;;#+%&                 ",
"            %%% +#$;;#$;;;$$##$;;;$#++#$;;$%+%                  ",
"           %##+%+#$;;;;;;$$##+$;;$#++#$$;$#%+%                  ",
"          %#$#%+%+#$;;$$$###++$;;;$#%+%+++%++%                  ",
"          %$#***%+##$$##++%+++#$;$$#%#+%%%+#%                   ",
"          %$>>-=+#%###%+##++&+%+++%#%##+%+#+%                   ",
"           %>->-+$#%#%#$$##+&++%%%+#%#$#%#+%                    ",
"           %>@->+;$#%#$;$$#+&+#+%+$#%#$$+#+%                    ",
"            >-@-+;$%#$;;$$#+&+##%#$+#$$##+%                     ",
"             >,@-+#%$;;;$$#&'%##+$#+#####+'))                   ",
"             >-!-+#%$;;;$#+&''''########+'~~)                   ",
"              >{!-+%#;;$#+&'~'~~'''''''''~]~)                   ",
"               !!->;%#$#+& )))'''~]']]~'~~))                    ",
"                >>->$++&&  )'')))'''))~~))')                    ",
"                  >>#+&   )']~'''))))''))'')                    ",
"                    &&   )'~]]~'''')''~'')'')                   ",
"                        ))~]]~~'~~')'~]~~''')                   ",
"                        ^/))~]'~]~')'~]]~~''')                  ",
"                       ^((//)~~]]~'''~~'')))))                  ",
"                       ^(__(/))~~~'''~'))////^)                 ",
"                       ^_._^(//))~'''')//((_(/^                 ",
"                        **(/^^^^ )))))^/(_.._(^                 ",
"                        *-******      ^/___^^/^                 ",
"                         *-,@-=*       ^(/_.._/^                ",
"                          *-@-=*       ^/(.__((^                ",
"                        **)>>>>*        ^/****/^                ",
"                        *-)~''')        ^*=-@-*^                ",
"                         **~~'')         *=-@-=*                ",
"                           *>>*          *=-@-=*                ",
"                                          *=>>>*                ",
"                                          *>~''=*               ",
"                                           )>>*')               ",
"                                           *&&&*)*              ",
"                                           *&&&&**              ",
"                                                                "};
