/* XPM */
static char * ground_xpm[] = {
"64 64 3 1",
" 	c #F7E09E",
".	c #F1CB7C",
"+	c #E4BF7D",
"                        ..                              ..      ",
"                        ..                              ..      ",
"        ..                              ..                      ",
"        ..                              ..                      ",
"                                                                ",
"                                                                ",
"                ++                              ++              ",
"                ++                              ++              ",
"                        ..                              ..      ",
"                        ..                              ..      ",
"            ..                              ..                  ",
"            ..                              ..                  ",
"    ++                              ++                          ",
"    ++                              ++                          ",
"                                                                ",
"                                                                ",
"        ++                              ++                      ",
"        ++                              ++                      ",
"                              ..                              ..",
"                              ..                              ..",
"                ++                              ++              ",
"                ++                              ++              ",
"                                                                ",
"                                                                ",
"        ..                              ..                      ",
"        ..                              ..                      ",
"                        ..                              ..      ",
"                        ..                              ..      ",
"                                                                ",
"                                                                ",
"..            ..                ..            ..                ",
"..            ..                ..            ..                ",
"                        ..                              ..      ",
"                        ..                              ..      ",
"        ..                              ..                      ",
"        ..                              ..                      ",
"                                                                ",
"                                                                ",
"                ++                              ++              ",
"                ++                              ++              ",
"                        ..                              ..      ",
"                        ..                              ..      ",
"            ..                              ..                  ",
"            ..                              ..                  ",
"    ++                              ++                          ",
"    ++                              ++                          ",
"                                                                ",
"                                                                ",
"        ++                              ++                      ",
"        ++                              ++                      ",
"                              ..                              ..",
"                              ..                              ..",
"                ++                              ++              ",
"                ++                              ++              ",
"                                                                ",
"                                                                ",
"        ..                              ..                      ",
"        ..                              ..                      ",
"                        ..                              ..      ",
"                        ..                              ..      ",
"                                                                ",
"                                                                ",
"..            ..                ..            ..                ",
"..            ..                ..            ..                "};
