/* XPM */
static char * attack3_xpm[] = {
"64 64 25 1",
" 	c None",
".	c #906028",
"+	c #A87838",
"@	c #D8A860",
"#	c #C09050",
"$	c #F8F848",
"%	c #F8F8F8",
"&	c #805018",
"*	c #F0C070",
"=	c #909090",
"-	c #C0C0C0",
";	c #D8D8D8",
">	c #D01028",
",	c #580000",
"'	c #787878",
")	c #A80810",
"!	c #A0A0A0",
"~	c #D06000",
"{	c #A84800",
"]	c #F87000",
"^	c #F8D000",
"/	c #F83030",
"(	c #6008A8",
"_	c #F8F8D8",
":	c #1850F0",
"                                                                ",
"                                                                ",
"                                                                ",
"                                                                ",
"                                                                ",
"                                                                ",
"                                                                ",
"                                                                ",
"                                                                ",
"                                                                ",
"                                                                ",
"                                                                ",
"                                                                ",
"                                                                ",
"                                                                ",
"                                                                ",
"                                                                ",
"                                                                ",
"                                                                ",
"                                                                ",
"                                                                ",
"                                                                ",
"                                                                ",
"                                                                ",
"                                                                ",
"                                                                ",
"                                                                ",
"                           ...........                          ",
"                         ..+@@+#.#++++.++                       ",
"                       ..+@++@+++#$$+@+$+.  +                   ",
"                     +.#@+++$+$@+$%@++$$++++                    ",
"                     .++@+$+%$+@+@+@+@%$+@$+                    ",
"   %               ..#+$++$@$%%@@+$++$%$+$+#..             %    ",
"                 +.###+@$+%$+$%$+$+$+@$@+@+##+..                ",
"                +##++##+@+$%@+$$++$+$+@+@+###+++&               ",
"               +#@@@++++++@$+@+@+$%$+@++$++++$+#+&              ",
"              +#@*@#@+@%$@++@%@++%%%@++$#$$%$+*@#+&             ",
"              +@**#@@@+$%%@+%%$@+$++$+@$+@%$+*+@@#&             ",
" %           +#**@+*@@#+@$+%$++$++@#+@++$%$+**+*@#+&         %  ",
" %           +@**##*+++++@+$+@@+@@*@#.+#$@++**##@##&         %  ",
"             +@**+***+$%@+$+@**@***@#.+$@+@+***+@##&            ",
"             +#**+**@#+$$++@++@***@+.+..+$+#@**+@#+&            ",
"              +**@*@++&+.*+@*=.+@+.=##.#.+&.+#@*@#&             ",
"%             +#@@#+#+++.@+#*-%;.;%-#+.@.++@#+#@#+&           % ",
"               .#.+#@*@$@.@.@*--@--@#.#.@$+*@#.&+&              ",
"              +#.+.@***+++..#***#**@+..+++**@#++&+&             ",
"%             +@##.@***@+&>>.#*+.+@#.>>.#***@#+##+&           % ",
"%             +#*@.#***@#&,,>.#@*@#.>,,.@***@#+@#+&           % ",
"%             '&#@*+#@**@.-),,.#@#.,,,!.@**@#+*@#&'           % ",
"%             '&+#@+##@@#.!))))...))),!.#@@##+@#+&'           % ",
"              '!&+#@.+~~~~')>>>>>)>)),'~~~~+.@#+&!'             ",
"               {~&+#@~]]^${)>/>/>>>>),~$^]]~@#+&~{              ",
" %             {]]&#~]^]^$]{>/>/>>>>)~^$^]^]~#&]]{           %  ",
" %              {(&+~(]^]$^{>/>/>)>>)~_$]^](~+&({            %  ",
"                (:({(:(^]^^]{/>/>)>>~^$^]^(:({(:(               ",
"   %             (]^{(]$^]$...>/>)>...^]^$]({^](           %    ",
"                 {]^{]^$$].#@*..>..*@#.]$$^]{^]{                ",
"     %%          {~~~{]^$.#@*#.#.#.#*@#.$^]{~~~{        %%      ",
"        % %     ,)))>>{]^..##*&*.*&*##..^]{>>))),     %         ",
"          % %%%{~~~~>,,{].#@*#.#.#.#*@#.]{,,>~~~~{%%%           ",
"               {%%%%% % {..##*&. .&*##..{ % %%%%%{              ",
"               {~~{      .#@*#.   .#*@#.      {~~{              ",
"                          .##@&   &@##.                         ",
"                           ...     ...                          "};
