/* XPM */
static char * attack13_xpm[] = {
"64 64 24 1",
" 	c None",
".	c #AD7939",
"+	c #DEAA63",
"@	c #FFFB4A",
"#	c #FFFBFF",
"$	c #946129",
"%	c #C69252",
"&	c #F7C373",
"*	c #949294",
"=	c #DEDBDE",
"-	c #C6C3C6",
";	c #845118",
">	c #D66100",
",	c #FF7100",
"'	c #FFD300",
")	c #6308AD",
"!	c #1851F7",
"~	c #AD4900",
"{	c #AD0810",
"]	c #FFFBDE",
"^	c #5A0000",
"/	c #D61029",
"(	c #A5A2A5",
"_	c #7B797B",
"                                                                ",
"                                                                ",
"                                                                ",
"                                                                ",
"                                                                ",
"                                                                ",
"                          .      .                              ",
"                         ..    ..                               ",
"                    .   .+.   .+.   .                           ",
"                    .. .@.  ..@. ...                            ",
"                   .+..@+. .@@. .+@.                            ",
"                  .+. .#@..@#+..@@.                             ",
"                  .@+..@+.+#++@.#+... ###                       ",
"                   .@+.++.@+@@.+@.+. ...  ##                    ",
"                 $ .#@+..+.@#++@+....@.      #                  ",
"                .$  .@.+@.+#+.++.++@#.                          ",
"                .+$..+.@#@.+.%.+@@#@.                           ",
"                .#@#@$...+@..+@###@.                            ",
"                 .#@+.++&..+.+##@+.                             ",
"                  $$.&&&++%..+@++....                           ",
"                 ###.&&+.%%.$$...@.                             ",
"                ### .+.$*%+.%%$.+.                              ",
"               ###  $$=#-++..+$+                                ",
"               ##   $+--++%$%$$.;                               ",
"              ##   .%&&++%.$$....>$$$$;;                        ",
"             ##    ..$.+%%$.....>$%++%%.;;                      ",
"            ###     $.+%%$%%%..>$+&&&+.%%.;                     ",
"           ###       $+%$%+%%%>$%&&&&&%.%%;                     ",
"           ###       ;$$%;++%%>$+&&&&&+.+%.;                    ",
"          ###       ;%+%>;++%>,$+&&&&&&%%+%;                    ",
"         ####       ;+&+>&;+%>,$%&&&&&&+.+%$;                   ",
"         ###       ;+&&+>>;%>',>$+&&&&&+.%%$;                   ",
"        ####       ;%++%>'>>>,,>$%+&&+++%%.;.;                  ",
"        ###        ;;;;%;>)),'>%%$%$;;$.%%;%%;                  ",
"       ####       ;;+++%;>)!)'>+%.$%++%$;.;+%.;                 ",
"       ####      ;++&&&+%;)),>%&.%$+&&&+.$%&%%;                 ",
"       ###      ;+&&&&&+%;>'>%+%&+$+&&&&%.+&%%;                 ",
"       ###     ~~+&&&++%%.;>>.+++%.$+&&&+%.+%.;                 ",
"       ###   ~~,,~++++%%;%.;$%...;%$%+&&+%$+%$;                 ",
"       ###  ~,,'',~%%%;;%..;;.+%.$$%$%+>>>>%%.;                 ",
"       ### ~,''@''>~;;...;;   ;.+%%${>>@'',>~.;                 ",
"       ###;,,@@'',,>~.;;;       .;;{>]@',,'',~                  ",
"       #;.%.;@'',,>>~;         $$$$>]',,'@'),~^                 ",
"       ;%+$%.;,,>>>~~         $&+.;',,'@@')!)~/^^^^^            ",
"       ;;%.;%;>>>~~          $$+.+.;'@@'',))~{{//^^             ",
"       ;%;;;.;~~~            $$%&%.;,'',,,~~^^^^^               ",
"       ;;;;;;                $+$%+$.;,,~~~((_                   ",
"        ;%.;                 _$;+.+%;~~(((___                   ",
"         ;;                  _-#;%%;--((__(((_                  ",
"                            _(##-;;#-(__((-((__~~               ",
"                            _-#-___((__(---(_(~,,~~^            ",
"                            _-###-(_(_ _(--(_~,,',{~~           ",
"                            _(>>>>-(_   _(--(~,''{~;;~          ",
"                             ~,'@,>~_    __((~,''{~;;;~         ",
"                             ~,),@',~      __~~,,,{~;;;~        ",
"                              )!)@@',~         ~~~^{~;;~        ",
"                               ),''@,~             ^~;;;~       ",
"                               ~>>>>,~            ~,~;;;~       ",
"                               ^{{/{>~            ~~~~~~        ",
"                              ~>>///{^                          ",
"                             ~,@'>{{{^                          ",
"                             ~~>>>~~~~                          ",
"                                                                ",
"                                                                "};
