/* XPM */
static char * kenz_exit1_xpm[] = {
"64 64 12 1",
" 	c #F7E09E",
".	c #F1CB7C",
"+	c #E4BF7D",
"@	c #D8E8F8",
"#	c #B0C0D0",
"$	c #687888",
"%	c #888888",
"&	c #585858",
"*	c #7088E8",
"=	c #2840A0",
"-	c #000400",
";	c #000000",
"                        ..                              ..      ",
"                        ..                              ..      ",
"        ..                              ..                      ",
"        ..                              ..                      ",
"                                                                ",
"                                                                ",
"                ++                              ++              ",
"                ++                              ++              ",
"                        ..                              ..      ",
"                        ..                              ..      ",
"        @@@@..                              ..      @@@@        ",
"        @@@@..                              ..      @@@@        ",
"    ++    @@@@@@          ######$$$$++          @@@@##          ",
"    ++    @@@@@@          ######$$$$++          @@@@##          ",
"            ##@@@@@@  @@@@@@@@######$$$$    @@@@@@##            ",
"            ##@@@@@@  @@@@@@@@######$$$$    @@@@@@##            ",
"        ++    ##@@@@@@##@@@@@@@@@@######$$@@@@##$$              ",
"        ++    ##@@@@@@##@@@@@@@@@@######$$@@@@##$$              ",
"                ##@@##@@@@@@@@@@@@@@@@####$$##$$              ..",
"                ##@@##@@@@@@@@@@@@@@@@####$$##$$              ..",
"              @@%%##@@@@@@@@@@@@@@@@@@@@####%%$$&&              ",
"              @@%%##@@@@@@@@@@@@@@@@@@@@####%%$$&&              ",
"            @@@@@@@@@@@@@@@@@@@@@@@@@@@@@@####$$$$&&            ",
"            @@@@@@@@@@@@@@@@@@@@@@@@@@@@@@####$$$$&&            ",
"        ..  @@@@@@@@@@@@@@@@@@@@@@@@@@@@@@####$$$$&&            ",
"        ..  @@@@@@@@@@@@@@@@@@@@@@@@@@@@@@####$$$$&&            ",
"          @@****@@@@@@@@@@@@@@@@@@@@@@@@@@@@##**==$$&&  ..      ",
"          @@****@@@@@@@@@@@@@@@@@@@@@@@@@@@@##**==$$&&  ..      ",
"          @@**==@@@@@@@@@@@@@@@@@@@@@@@@@@@@##====$$&&          ",
"          @@**==@@@@@@@@@@@@@@@@@@@@@@@@@@@@##====$$&&          ",
"..      @@@@@@@@@@@@@@@@@@@@@@@@@@@@@@@@@@@@####$$$$$$&&        ",
"..      @@@@@@@@@@@@@@@@@@@@@@@@@@@@@@@@@@@@####$$$$$$&&        ",
"        @@@@@@@@@@@@@@@@@@@@------@@@@@@@@@@@@####$$$$&&..      ",
"        @@@@@@@@@@@@@@@@@@@@------@@@@@@@@@@@@####$$$$&&..      ",
"        @@@@@@@@@@@@@@@@@@--;;;;;;--@@@@@@@@@@######$$&&        ",
"        @@@@@@@@@@@@@@@@@@--;;;;;;--@@@@@@@@@@######$$&&        ",
"        @@@@@@@@@@@@@@@@--;;;;;;;;;;--@@@@@@@@######$$&&        ",
"        @@@@@@@@@@@@@@@@--;;;;;;;;;;--@@@@@@@@######$$&&        ",
"        @@@@@@@@@@@@@@@@--;;;;;;;;;;--@@@@@@@@@@####$$&&        ",
"        @@@@@@@@@@@@@@@@--;;;;;;;;;;--@@@@@@@@@@####$$&&        ",
"        @@@@@@@@@@@@@@@@--;;;;;;;;;;--@@@@@@@@@@######&&..      ",
"        @@@@@@@@@@@@@@@@--;;;;;;;;;;--@@@@@@@@@@######&&..      ",
"          @@@@@@@@@@@@@@--;;;;;;;;;;--@@@@@@@@@@####&&          ",
"          @@@@@@@@@@@@@@--;;;;;;;;;;--@@@@@@@@@@####&&          ",
"    ++    @@@@@@@@@@@@@@--;;;;;;;;;;--@@@@@@@@@@####&&          ",
"    ++    @@@@@@@@@@@@@@--;;;;;;;;;;--@@@@@@@@@@####&&          ",
"            @@@@@@@@@@@@--;;;;;;;;;;--@@@@@@@@@@##&&            ",
"            @@@@@@@@@@@@--;;;;;;;;;;--@@@@@@@@@@##&&            ",
"        ++    @@@@@@@@@@@@--;;;;;;--@@@@@@@@@@##&&              ",
"        ++    @@@@@@@@@@@@--;;;;;;--@@@@@@@@@@##&&              ",
"                  @@@@@@@@@@------@@@@@@@@@@&&&&              ..",
"                  @@@@@@@@@@------@@@@@@@@@@&&&&              ..",
"                ++      @@@@@@@@@@@@@@&&&&&&    ++              ",
"                ++      @@@@@@@@@@@@@@&&&&&&    ++              ",
"                                                                ",
"                                                                ",
"        ..                              ..                      ",
"        ..                              ..                      ",
"                        ..                              ..      ",
"                        ..                              ..      ",
"                                                                ",
"                                                                ",
"..            ..                ..            ..                ",
"..            ..                ..            ..                "};
