/* XPM */
static char * sol_xpm[] = {
"64 64 8 1",
" 	c #787878",
".	c #E8F8D0",
"+	c #688040",
"@	c #F8F8F8",
"#	c #F0E8E0",
"$	c #B8B8B8",
"%	c #B8C088",
"&	c #98A060",
" ...............+@@@@@@@@@@@@@@@ ...............+@@@@@@@@@@@@@@@",
"+#$$$$$$$$$$$$$$ %&&&&&&&&&&&&&&+#$$$$$$$$$$$$$$ %&&&&&&&&&&&&&&",
"&@##############$.%%%%%%%%%%%%%%&@##############$.%%%%%%%%%%%%%%",
"&@##############$.%%%%%%%%%%%%%%&@##############$.%%%%%%%%%%%%%%",
"&@##############$.%%%%%%%%%%%%%%&@##############$.%%%%%%%%%%%%%%",
"&@##############$.%%%%%%%%%%%%%%&@##############$.%%%%%%%%%%%%%%",
"&@##############$.%%%%%%%%%%%%%%&@##############$.%%%%%%%%%%%%%%",
"&@##############$.%%%%%%%%%%%%%%&@##############$.%%%%%%%%%%%%%%",
"&@##############$.%%%%%%%%%%%%%%&@##############$.%%%%%%%%%%%%%%",
"&@##############$.%%%%%%%%%%%%%%&@##############$.%%%%%%%%%%%%%%",
"&@##############$.%%%%%%%%%%%%%%&@##############$.%%%%%%%%%%%%%%",
"&@##############$.%%%%%%%%%%%%%%&@##############$.%%%%%%%%%%%%%%",
"&@##############$.%%%%%%%%%%%%%%&@##############$.%%%%%%%%%%%%%%",
"&@##############$.%%%%%%%%%%%%%%&@##############$.%%%%%%%%%%%%%%",
"&@##############$.%%%%%%%%%%%%%%&@##############$.%%%%%%%%%%%%%%",
"&@##############$.%%%%%%%%%%%%%%&@##############$.%%%%%%%%%%%%%%",
"+@@@@@@@@@@@@@@@ ...............+@@@@@@@@@@@@@@@ ...............",
" %&&&&&&&&&&&&&&+#$$$$$$$$$$$$$$ %&&&&&&&&&&&&&&+#$$$$$$$$$$$$$$",
"$.%%%%%%%%%%%%%%&@##############$.%%%%%%%%%%%%%%&@##############",
"$.%%%%%%%%%%%%%%&@##############$.%%%%%%%%%%%%%%&@##############",
"$.%%%%%%%%%%%%%%&@##############$.%%%%%%%%%%%%%%&@##############",
"$.%%%%%%%%%%%%%%&@##############$.%%%%%%%%%%%%%%&@##############",
"$.%%%%%%%%%%%%%%&@##############$.%%%%%%%%%%%%%%&@##############",
"$.%%%%%%%%%%%%%%&@##############$.%%%%%%%%%%%%%%&@##############",
"$.%%%%%%%%%%%%%%&@##############$.%%%%%%%%%%%%%%&@##############",
"$.%%%%%%%%%%%%%%&@##############$.%%%%%%%%%%%%%%&@##############",
"$.%%%%%%%%%%%%%%&@##############$.%%%%%%%%%%%%%%&@##############",
"$.%%%%%%%%%%%%%%&@##############$.%%%%%%%%%%%%%%&@##############",
"$.%%%%%%%%%%%%%%&@##############$.%%%%%%%%%%%%%%&@##############",
"$.%%%%%%%%%%%%%%&@##############$.%%%%%%%%%%%%%%&@##############",
"$.%%%%%%%%%%%%%%&@##############$.%%%%%%%%%%%%%%&@##############",
"$.%%%%%%%%%%%%%%&@##############$.%%%%%%%%%%%%%%&@##############",
" ...............+@@@@@@@@@@@@@@@ ...............+@@@@@@@@@@@@@@@",
"+#$$$$$$$$$$$$$$ %&&&&&&&&&&&&&&+#$$$$$$$$$$$$$$ %&&&&&&&&&&&&&&",
"&@##############$.%%%%%%%%%%%%%%&@##############$.%%%%%%%%%%%%%%",
"&@##############$.%%%%%%%%%%%%%%&@##############$.%%%%%%%%%%%%%%",
"&@##############$.%%%%%%%%%%%%%%&@##############$.%%%%%%%%%%%%%%",
"&@##############$.%%%%%%%%%%%%%%&@##############$.%%%%%%%%%%%%%%",
"&@##############$.%%%%%%%%%%%%%%&@##############$.%%%%%%%%%%%%%%",
"&@##############$.%%%%%%%%%%%%%%&@##############$.%%%%%%%%%%%%%%",
"&@##############$.%%%%%%%%%%%%%%&@##############$.%%%%%%%%%%%%%%",
"&@##############$.%%%%%%%%%%%%%%&@##############$.%%%%%%%%%%%%%%",
"&@##############$.%%%%%%%%%%%%%%&@##############$.%%%%%%%%%%%%%%",
"&@##############$.%%%%%%%%%%%%%%&@##############$.%%%%%%%%%%%%%%",
"&@##############$.%%%%%%%%%%%%%%&@##############$.%%%%%%%%%%%%%%",
"&@##############$.%%%%%%%%%%%%%%&@##############$.%%%%%%%%%%%%%%",
"&@##############$.%%%%%%%%%%%%%%&@##############$.%%%%%%%%%%%%%%",
"&@##############$.%%%%%%%%%%%%%%&@##############$.%%%%%%%%%%%%%%",
"+@@@@@@@@@@@@@@@ ...............+@@@@@@@@@@@@@@@ ...............",
" %&&&&&&&&&&&&&&+#$$$$$$$$$$$$$$ %&&&&&&&&&&&&&&+#$$$$$$$$$$$$$$",
"$.%%%%%%%%%%%%%%&@##############$.%%%%%%%%%%%%%%&@##############",
"$.%%%%%%%%%%%%%%&@##############$.%%%%%%%%%%%%%%&@##############",
"$.%%%%%%%%%%%%%%&@##############$.%%%%%%%%%%%%%%&@##############",
"$.%%%%%%%%%%%%%%&@##############$.%%%%%%%%%%%%%%&@##############",
"$.%%%%%%%%%%%%%%&@##############$.%%%%%%%%%%%%%%&@##############",
"$.%%%%%%%%%%%%%%&@##############$.%%%%%%%%%%%%%%&@##############",
"$.%%%%%%%%%%%%%%&@##############$.%%%%%%%%%%%%%%&@##############",
"$.%%%%%%%%%%%%%%&@##############$.%%%%%%%%%%%%%%&@##############",
"$.%%%%%%%%%%%%%%&@##############$.%%%%%%%%%%%%%%&@##############",
"$.%%%%%%%%%%%%%%&@##############$.%%%%%%%%%%%%%%&@##############",
"$.%%%%%%%%%%%%%%&@##############$.%%%%%%%%%%%%%%&@##############",
"$.%%%%%%%%%%%%%%&@##############$.%%%%%%%%%%%%%%&@##############",
"$.%%%%%%%%%%%%%%&@##############$.%%%%%%%%%%%%%%&@##############",
"$.%%%%%%%%%%%%%%&@##############$.%%%%%%%%%%%%%%&@##############"};
