/* XPM */
static char * wall_xpm[] = {
"64 64 12 1",
" 	c #F7E09E",
".	c #F1CB7C",
"+	c #E4BF7D",
"@	c #B86828",
"#	c #885028",
"$	c #D8A080",
"%	c #C88050",
"&	c #783800",
"*	c #603820",
"=	c #F8C088",
"-	c #383838",
";	c #F8E0C8",
"                        ..                              ..      ",
"                        ..                              ..      ",
"        ..                              ..                      ",
"        ..                              ..                      ",
"                                                                ",
"                                                                ",
"                ++                              ++              ",
"                ++          @#####              ++              ",
"                        ..@@$$$%%@&**                   ..      ",
"                       @@%====$$$@%&&*                  ..      ",
"            ..         @@%====$$$@%&&*      ..                  ",
"            ..        @$$====$=$$$@&&*--    ..                  ",
"    ++                @$$====$=$$$@&&*--                        ",
"    ++                @$$====$=$$$@&&*--                        ",
"                     @=$$$====$==$$##&***                       ",
"                     @=$$$====$==$$##&***                       ",
"        ++          #@@===$$$==$$$@&&&--*-                      ",
"        ++          @$%%%@===$$$$%#&&***-**                     ",
"                   @===%%%@@$%@@@@&&&-&&&&-                   ..",
"                  #;=====$$$%#&&&&&&&&&&##&*                  ..",
"                ++#;=====$$$%#&&&&&&&&&&##&*    ++              ",
"                ++#%;=====$$$%&&&&&&&@###@&--   ++              ",
"                  #%;=====$$$%&&&&&&&@###@&--                   ",
"               ###%#%;====$$%#%@@&&@@#%%@%#*-                   ",
"        ..    @$$$$%@@;;;;%%&%$##&@%%%%%%#&-*---                ",
"        ..    @$$$$%@@;;;;%%&%$##&@%%%%%%#&-*---                ",
"              @$$$$%@@;;;;%%&%$##&@%%%%%%#&-*---        ..      ",
"              @$$$$$%@#@@@@@@$@&&&@%%%%%%#&&-***-       ..      ",
"             @$=====$$@###%%$%@&&%%%%%%%#&&&&***-               ",
"            @$=======$@@@%@@#&&@@@%%%%%%#&&&*---*-              ",
"..          @$=======$@@@%@@#&&@@@%%%%%%#&&&*---*-              ",
"..          @$======$@$==$%%@&&%%$$%%%%%#&&&&***--              ",
"            @$======$@$==$%%@&&%%$$%%%%%#&&&&***--      ..      ",
"            @;=====$%%====$$@##$$==$$$%%#&&&&&&&-*-     ..      ",
"        ..  #%;;;;$%#$=$$=$$@@%$$====$@@%&&&&***-*-             ",
"        ..  #%;;;;$%#$=$$=$$@@%$$====$@@%&&&&***-*-             ",
"            #@%%%%$#%$%==$%%##%$$==$$@%%##&&&&&&-*-             ",
"            #%@@@@%#$%$==$@@@#%$$====$%%%%&&&*****-             ",
"            #%@@@@%#$%$==$@@@#%$$====$%%%%&&&*****-             ",
"            #@%%%%#%%$$$$$@@&@%$$====$@@%@&&-&&&---             ",
"            #@%%%%#%%$$$$$@@&@%$$====$@@%@&&-&&&---     ..      ",
"            #%%###&%%$%$$%@@&@%$$====$%%%%#&&---**-     ..      ",
"            #%%###&%%$%$$%@@&@%$$====$%%%%#&&---**-             ",
"            ##@@@@#%@$$@@@&&&#@$$====$@@%%%&&&&&---             ",
"    ++      #@@@@@@%%@%%%&%%#@$$$==$$%@@#%@&&------             ",
"    ++      #@@@@@@%%@%%%&%%#@$$$==$$%@@#%@&&------             ",
"            #@%###%%@%@&&#$$%#%$$=$%%@&&&#@&-----*-             ",
"             @@@@@@#%@&##$@@%&%$$$%@@@&&&@#&&---*-              ",
"        ++    @@@@@%#&&%%@$$%&%@@$%@@#&&&#&&*----               ",
"        ++     ###%#@&&@@$%%@&%%%%@@@&&&##&*-                   ",
"               ###%#@&&@@$%%@&%%%%@@@&&&##&*-                 ..",
"               ###%#@&&@@$%%@&%%%%@@@&&&##&*-                 ..",
"               ###%#@&&@@$%%@&%%%%@@@&&&##&*-   ++              ",
"                ++#@&&&%%@@@@&#%%%@##&&&-*-     ++              ",
"                    &&&##@@@&&@@@#@---**                        ",
"                    &&&##@@@&&@@@#@---**                        ",
"        ..                &&&&&&&&&     ..                      ",
"        ..                              ..                      ",
"                        ..                              ..      ",
"                        ..                              ..      ",
"                                                                ",
"                                                                ",
"..            ..                ..            ..                ",
"..            ..                ..            ..                "};
