/* XPM */
static char * sol1_xpm[] = {
"64 64 5 1",
" 	c #383838",
".	c #604840",
"+	c #806850",
"@	c #C8A890",
"#	c #A08068",
" .++++++ .++++++ .++++++ .++++++ .++++++ .++++++ .++++++ .++++++",
"+@######+@######+@######+@######+@######+@######+@######+@######",
"+@######+@######+@######+@######+@######+@######+@######+@######",
"+@######+@######+@######+@######+@######+@######+@######+@######",
"+@######+@######+@######+@######+@######+@######+@######+@######",
"+@######+@######+@######+@######+@######+@######+@######+@######",
"+@######+@######+@######+@######+@######+@######+@######+@######",
".+@@@@@@.+@@@@@@.+@@@@@@.+@@@@@@.+@@@@@@.+@@@@@@.+@@@@@@.+@@@@@@",
" .++++++ .++++++ .++++++ .++++++ .++++++ .++++++ .++++++ .++++++",
"+@######+@######+@######+@######+@######+@######+@######+@######",
"+@######+@######+@######+@######+@######+@######+@######+@######",
"+@######+@######+@######+@######+@######+@######+@######+@######",
"+@######+@######+@######+@######+@######+@######+@######+@######",
"+@######+@######+@######+@######+@######+@######+@######+@######",
"+@######+@######+@######+@######+@######+@######+@######+@######",
".+@@@@@@.+@@@@@@.+@@@@@@.+@@@@@@.+@@@@@@.+@@@@@@.+@@@@@@.+@@@@@@",
" .++++++ .++++++ .++++++ .++++++ .++++++ .++++++ .++++++ .++++++",
"+@######+@######+@######+@######+@######+@######+@######+@######",
"+@######+@######+@######+@######+@######+@######+@######+@######",
"+@######+@######+@######+@######+@######+@######+@######+@######",
"+@######+@######+@######+@######+@######+@######+@######+@######",
"+@######+@######+@######+@######+@######+@######+@######+@######",
"+@######+@######+@######+@######+@######+@######+@######+@######",
".+@@@@@@.+@@@@@@.+@@@@@@.+@@@@@@.+@@@@@@.+@@@@@@.+@@@@@@.+@@@@@@",
" .++++++ .++++++ .++++++ .++++++ .++++++ .++++++ .++++++ .++++++",
"+@######+@######+@######+@######+@######+@######+@######+@######",
"+@######+@######+@######+@######+@######+@######+@######+@######",
"+@######+@######+@######+@######+@######+@######+@######+@######",
"+@######+@######+@######+@######+@######+@######+@######+@######",
"+@######+@######+@######+@######+@######+@######+@######+@######",
"+@######+@######+@######+@######+@######+@######+@######+@######",
".+@@@@@@.+@@@@@@.+@@@@@@.+@@@@@@.+@@@@@@.+@@@@@@.+@@@@@@.+@@@@@@",
" .++++++ .++++++ .++++++ .++++++ .++++++ .++++++ .++++++ .++++++",
"+@######+@######+@######+@######+@######+@######+@######+@######",
"+@######+@######+@######+@######+@######+@######+@######+@######",
"+@######+@######+@######+@######+@######+@######+@######+@######",
"+@######+@######+@######+@######+@######+@######+@######+@######",
"+@######+@######+@######+@######+@######+@######+@######+@######",
"+@######+@######+@######+@######+@######+@######+@######+@######",
".+@@@@@@.+@@@@@@.+@@@@@@.+@@@@@@.+@@@@@@.+@@@@@@.+@@@@@@.+@@@@@@",
" .++++++ .++++++ .++++++ .++++++ .++++++ .++++++ .++++++ .++++++",
"+@######+@######+@######+@######+@######+@######+@######+@######",
"+@######+@######+@######+@######+@######+@######+@######+@######",
"+@######+@######+@######+@######+@######+@######+@######+@######",
"+@######+@######+@######+@######+@######+@######+@######+@######",
"+@######+@######+@######+@######+@######+@######+@######+@######",
"+@######+@######+@######+@######+@######+@######+@######+@######",
".+@@@@@@.+@@@@@@.+@@@@@@.+@@@@@@.+@@@@@@.+@@@@@@.+@@@@@@.+@@@@@@",
" .++++++ .++++++ .++++++ .++++++ .++++++ .++++++ .++++++ .++++++",
"+@######+@######+@######+@######+@######+@######+@######+@######",
"+@######+@######+@######+@######+@######+@######+@######+@######",
"+@######+@######+@######+@######+@######+@######+@######+@######",
"+@######+@######+@######+@######+@######+@######+@######+@######",
"+@######+@######+@######+@######+@######+@######+@######+@######",
"+@######+@######+@######+@######+@######+@######+@######+@######",
".+@@@@@@.+@@@@@@.+@@@@@@.+@@@@@@.+@@@@@@.+@@@@@@.+@@@@@@.+@@@@@@",
" .++++++ .++++++ .++++++ .++++++ .++++++ .++++++ .++++++ .++++++",
"+@######+@######+@######+@######+@######+@######+@######+@######",
"+@######+@######+@######+@######+@######+@######+@######+@######",
"+@######+@######+@######+@######+@######+@######+@######+@######",
"+@######+@######+@######+@######+@######+@######+@######+@######",
"+@######+@######+@######+@######+@######+@######+@######+@######",
"+@######+@######+@######+@######+@######+@######+@######+@######",
".+@@@@@@.+@@@@@@.+@@@@@@.+@@@@@@.+@@@@@@.+@@@@@@.+@@@@@@.+@@@@@@"};
