/* XPM */
static char * sol2_xpm[] = {
"64 64 181 2",
"  	c #ABE3A7",
". 	c #A5CB93",
"+ 	c #989363",
"@ 	c #906030",
"# 	c #905D2D",
"$ 	c #B1D19B",
"% 	c #AABD8A",
"& 	c #9E8E61",
"* 	c #97673A",
"= 	c #966538",
"- 	c #96673A",
"; 	c #9B8B5D",
"> 	c #A1B883",
", 	c #BBAC82",
"' 	c #B59F76",
") 	c #A9855D",
"! 	c #A27249",
"~ 	c #A27148",
"{ 	c #9F7C51",
"] 	c #C09070",
"^ 	c #BA8A69",
"/ 	c #AF7F5A",
"( 	c #A87850",
"_ 	c #AA7A53",
": 	c #AD7D58",
"< 	c #C08F6F",
"[ 	c #BA8968",
"} 	c #B68663",
"| 	c #BB8B69",
"1 	c #A6764E",
"2 	c #A3744B",
"3 	c #A97953",
"4 	c #B48461",
"5 	c #B98967",
"6 	c #B68765",
"7 	c #B58564",
"8 	c #B58664",
"9 	c #B88968",
"0 	c #BD8E6D",
"a 	c #9B6B40",
"b 	c #9E6E45",
"c 	c #AB7B56",
"d 	c #A3744E",
"e 	c #9F6F48",
"f 	c #9E6F48",
"g 	c #9E6F47",
"h 	c #A97955",
"i 	c #99693E",
"j 	c #A77851",
"k 	c #956537",
"l 	c #926233",
"m 	c #9D6D45",
"n 	c #B0815E",
"o 	c #B48462",
"p 	c #9D6E43",
"q 	c #966639",
"r 	c #9C6D45",
"s 	c #B0805D",
"t 	c #A27248",
"u 	c #A17248",
"v 	c #9D6D42",
"w 	c #946537",
"x 	c #A77751",
"y 	c #956538",
"z 	c #926232",
"A 	c #99693F",
"B 	c #AF7F5B",
"C 	c #B0815D",
"D 	c #BD8D6D",
"E 	c #AC7C56",
"F 	c #AA7A52",
"G 	c #A4744B",
"H 	c #9B6C41",
"I 	c #A1724A",
"J 	c #B2825F",
"K 	c #9C6D44",
"L 	c #BA8B69",
"M 	c #B88866",
"N 	c #B2825E",
"O 	c #9E6E44",
"P 	c #B78765",
"Q 	c #9D6D43",
"R 	c #96663A",
"S 	c #A7774E",
"T 	c #BC8C6B",
"U 	c #BE8F6E",
"V 	c #9B6B42",
"W 	c #AC7D59",
"X 	c #946437",
"Y 	c #C29575",
"Z 	c #BC8E6D",
"` 	c #B0805C",
" .	c #C69C7C",
"..	c #BF9473",
"+.	c #B1835E",
"@.	c #C29474",
"#.	c #A1724B",
"$.	c #B48562",
"%.	c #AB7C56",
"&.	c #C8A080",
"*.	c #C19776",
"=.	c #B18460",
"-.	c #9C6C41",
";.	c #C09776",
">.	c #B1845F",
",.	c #A3734A",
"'.	c #9B6B3F",
").	c #A17149",
"!.	c #B1825F",
"~.	c #B58663",
"{.	c #AD7D57",
"].	c #A3734B",
"^.	c #A6774E",
"/.	c #CDA787",
"(.	c #C69F7E",
"_.	c #B98F6C",
":.	c #B0815C",
"<.	c #A3744D",
"[.	c #98693E",
"}.	c #D4B292",
"|.	c #CFAC8C",
"1.	c #BF9372",
"2.	c #BC8E6C",
"3.	c #B98968",
"4.	c #D2AF8F",
"5.	c #CEA989",
"6.	c #C59E7D",
"7.	c #B78865",
"8.	c #C79C7C",
"9.	c #C29676",
"0.	c #B78B69",
"a.	c #B88865",
"b.	c #B58562",
"c.	c #A17148",
"d.	c #A07047",
"e.	c #AE7E59",
"f.	c #A97952",
"g.	c #9D6D44",
"h.	c #8E5F31",
"i.	c #8F5F31",
"j.	c #936436",
"k.	c #96673D",
"l.	c #9E6D44",
"m.	c #9B6A3F",
"n.	c #946436",
"o.	c #8F5F2F",
"p.	c #8D5D2C",
"q.	c #8D5D2D",
"r.	c #885825",
"s.	c #875724",
"t.	c #8A5A28",
"u.	c #895926",
"v.	c #83531E",
"w.	c #895929",
"x.	c #97663C",
"y.	c #8B5C2E",
"z.	c #8D5D2E",
"A.	c #8F5F2E",
"B.	c #865622",
"C.	c #83531D",
"D.	c #815119",
"E.	c #885929",
"F.	c #8D8D5D",
"G.	c #8D8254",
"H.	c #8C6C3D",
"I.	c #8C5C2B",
"J.	c #8C5B2A",
"K.	c #895927",
"L.	c #804F16",
"M.	c #805018",
"N.	c #846535",
"O.	c #8A8052",
"P.	c #A1CA92",
"Q.	c #9AB480",
"R.	c #845520",
"S.	c #84521C",
"T.	c #81511A",
"U.	c #855520",
"V.	c #7F4D12",
"W.	c #99B480",
"X.	c #7F4C10",
"  . + @ # @ @ @ @ @ @ @ @ @ @ @ @ @ @ @ @ @ @ @ @ @ @ @ @ @ @ @ @ @ @ @ @ @ @ @ @ @ @ @ @ @ @ @ @ @ @ @ @ @ @ @ @ @ @ # @ + .   ",
"$ % & * = * - - - - - - - - - - - - - - - - - - - - - - - - - - - - - - - - - - - - - - - - - - - - - - - - - - - - - = * ; > . ",
", ' ) ! ~ ! ! ! ! ! ! ! ! ! ! ! ! ! ! ! ! ! ! ! ! ! ! ! ! ! ! ! ! ! ! ! ! ! ! ! ! ! ! ! ! ! ! ! ! ! ! ! ! ! ! ! ! ! ! ! ! { ; + ",
"] ^ / ( ( _ : / / / / / / / / / / / / / / / / / / / / / / / / / / / / / / / / / / / / / / / / / / / / / / / / / / / / : _ ! * @ ",
"< [ / ( ( : } ^ | ^ ^ ^ ^ ^ ^ ^ ^ ^ ^ ^ ^ ^ ^ ^ ^ ^ ^ ^ ^ ^ ^ ^ ^ ^ ^ ^ ^ ^ ^ ^ ^ ^ ^ ^ ^ ^ ^ ^ ^ ^ ^ ^ ^ ^ ^ ^ ^ | ^ } : ! = # ",
"] ^ / 1 2 3 4 5 6 7 7 7 7 7 7 7 7 7 7 7 7 7 7 7 7 7 7 7 7 7 7 7 7 7 7 7 7 7 7 7 7 7 7 7 7 7 7 7 7 7 7 7 7 7 7 7 8 9 0 | / ! - @ ",
"] ^ / 2 a b 3 c d e f e e e e e e e e e e e e e e e e e e e e e e e e e e e e e e e e e e e e e e e e e e e e g e h 9 | / ! - @ ",
"] ^ / ! - i j 3 b * - * - - - - - - - - - - - - - - - - - - - - - - - - - - - - - - - - - - - - - - - - - * * k l m n o 3 p k @ ",
"] ^ / ! q r s 4 3 t u t t t t t t t t t t t t t t t t t t t t t t t t t t t t t t t t t t t t t t t t t t ! t v w i x 3 b y z @ ",
"] ^ / t - e 7 ^ / ( ( _ : / / / / / / / / / / / / / / / / / / / / / / / / / / / / / / / / / / / / / / / / : _ ! * A j 3 b y l @ ",
"] ^ / t - e 8 ^ B ( ( : } ^ | ^ ^ ^ ^ ^ ^ ^ ^ ^ ^ ^ ^ ^ ^ ^ ^ ^ ^ ^ ^ ^ ^ ^ ^ ^ ^ ^ ^ ^ ^ ^ ^ ^ ^ ^ ^ | ^ } : ! * m C o 3 p k @ ",
"] ^ / t - e 7 ^ / 1 2 3 4 5 6 7 7 7 7 7 7 7 7 7 7 7 7 7 7 7 7 7 7 7 7 7 7 7 7 7 7 7 7 7 7 7 7 7 7 7 8 9 D ^ / ! - m C o 3 p k @ ",
"] ^ / t - e 7 ^ / 2 a b 3 c d e f e e e e e e e e e e e e e e e e e e e e e e e e e e e e e e e e g e h 9 | / ! - A j 3 b y l @ ",
"] ^ / t - e 7 ^ / ! - i j 3 b * - * - - - - - - - - - - - - - - - - - - - - - - - - - - - - - * * w l e 8 ^ / ! - A j 3 b y l @ ",
"] ^ / t - e 7 ^ / ! q r s 4 3 t u t t t t t t t t t t t t t t t t t t t t t t t t t t t t t t ! t v w g 7 ^ / ! - m C o 3 p k @ ",
"] ^ / t - e 7 ^ / t - e 7 ^ / ( ( _ : / / / / / / / / / / / / / / / / / / / / / / / / / / / / : _ t * e 7 ^ / ! - m C o 3 p k @ ",
"] ^ / t - e 7 ^ / t - e 8 ^ B ( ( : } ^ | ^ ^ ^ ^ ^ ^ ^ ^ ^ ^ ^ ^ ^ ^ ^ ^ ^ ^ ^ ^ ^ ^ ^ ^ | ^ } : ! * e 7 ^ / ! - A j 3 b y l @ ",
"] ^ / t - e 7 ^ / t - e 7 ^ / 1 2 3 4 5 6 7 7 7 7 7 7 7 7 7 7 7 7 7 7 7 7 7 7 7 7 7 7 7 8 9 D ^ / t - e 7 ^ / ! - A j 3 b y l @ ",
"] ^ / t - e 7 ^ / t - e 7 ^ / 2 a b 3 c d e f e e e e e e e e e e e e e e e e e e e e g e h 9 | / t - e 7 ^ / ! - m C o 3 p k @ ",
"] ^ / t - e 7 ^ / t - e 7 ^ / ! - i j 3 b * - * - - - - - - - - - - - - - - - - - * * w l e 8 ^ / t - e 7 ^ / ! - m C o 3 p k @ ",
"] ^ / t - e 7 ^ / t - e 7 ^ / ! q r s 4 3 t u t t t t t t t t t t t t t t t t t t ! t v w g 7 ^ / t - e 7 ^ / ! - A j 3 b y l @ ",
"] ^ / t - e 7 ^ / t - e 7 ^ / t - e 7 ^ / ( ( _ : / / / / / / / / / / / / / / / / : _ t * e 7 ^ / t - e 7 ^ / ! - A j 3 b y l @ ",
"] ^ / t - e 7 ^ / t - e 7 ^ / t - e 8 ^ B ( ( : } ^ | ^ ^ ^ ^ ^ ^ ^ ^ ^ ^ ^ ^ | ^ } : ! * e 7 ^ / t - e 7 ^ / ! - m C o 3 p k @ ",
"] ^ / t - e 7 ^ / t - e 7 ^ / t - e 7 ^ / 1 2 3 4 5 6 7 7 7 7 7 7 7 7 7 7 7 8 9 D ^ / t - e 7 ^ / t - e 7 ^ / ! - m C o 3 p k @ ",
"] ^ / t - e 7 ^ / t - e 7 ^ / t - e 7 ^ / 2 a b 3 c d e f e e e e e e e e g e h 9 | / t - e 7 ^ / t - e 7 ^ / ! - A j 3 b y l @ ",
"] ^ / t - e 7 ^ / t - e 7 ^ / t - e 7 ^ / ! - i j 3 b * * * * - - - - * * w l e 8 ^ / t - e 7 ^ / t - e 7 ^ / ! - A j 3 b y l @ ",
"] ^ / t - e 7 ^ / t - e 7 ^ / t - e 7 ^ / ! q r s 4 3 t u t t t t t t ! t v w g 7 ^ / t - e 7 ^ / t - e 7 ^ / ! - m C o 3 p k @ ",
"] ^ / t - e 7 ^ / t - e 7 ^ / t - e 7 ^ / t - e 7 ^ / 1 2 1 E / / / / : F u - f 7 ^ / t - e 7 ^ / t - e 7 ^ / ! - m C o 3 p k @ ",
"] ^ / t - e 7 ^ / t - e 7 ^ / t - e 7 ^ / t - e 8 | B G H I J ^ | | ^ } : ! * e 7 ^ / t - e 7 ^ / t - e 7 ^ / ! - A j 3 b y l @ ",
"] ^ / t - e 7 ^ / t - e 7 ^ / t - e 7 ^ / t - e 7 ^ / ! - K n ^ | L ^ M N 3 O d 6 | / t - e 7 ^ / t - e 7 ^ / ! - A j 3 b y l @ ",
"] ^ / t - e 7 ^ / t - e 7 ^ / t - e 7 ^ / t - e 7 ^ / ! q i j / / / / N P 4 3 c 5 ^ / t - e 7 ^ / t - e 7 ^ / ! - m C o 3 p k @ ",
"] ^ / t - e 7 ^ / t - e 7 ^ / t - e 7 ^ / t - e 7 ^ / ! q k Q ! ! ! ! j n s j 3 4 } : t - e 7 ^ / t - e 7 ^ / ! - m C o 3 p k @ ",
"] ^ / t - e 7 ^ / t - e 7 ^ / t - e 7 ^ / t - e 7 ^ / ! - l k - - R - i m r A b 3 : _ t * e 7 ^ / t - e 7 ^ / ! - A j 3 b y l @ ",
"] ^ / t - e 7 ^ / t - e 7 ^ / t - e 7 ^ / t - e 7 ^ / 2 a - q - - - - - - q - a 2 ( ( u - f 7 ^ / t - e 7 ^ / ! - A j 3 b y l @ ",
"] ^ / t - e 7 ^ / t - e 7 ^ / t - e 7 ^ / t - e 7 ^ / S 2 ! ! ! ! ! ! ! ! ! ! 2 1 ( ( t * e 7 ^ / t - e 7 ^ / ! - m C o 3 p k @ ",
"] ^ / t - e 7 ^ / t - e 7 ^ / t - e 7 ^ / t - e 8 T 4 / / / / / / / / / / / / / / B / 3 b d 6 | / t - e 7 ^ / ! - m C o 3 p k @ ",
"] ^ / t - e 7 ^ / t - e 7 ^ / t - e 7 ^ / t - f 7 U T ^ ^ ^ ^ ^ ^ ^ ^ ^ ^ ^ ^ ^ ^ ^ ^ 4 3 c 5 ^ / t - e 7 ^ / ! - A j 3 b y l @ ",
"] ^ / t - e 7 ^ / t - e 7 ^ / t - e 7 ^ / ! q V W 7 8 7 7 7 7 7 7 7 7 7 7 7 7 7 7 8 7 s j 3 4 } : t - e 7 ^ / ! - A j 3 b y l @ ",
"] ^ / t - e 7 ^ / t - e 7 ^ / t - e 7 ^ / ! - X V f e e e e e e e e e e e e e e e e e r i b 3 : _ t * e 7 ^ / ! - m C o 3 p k @ ",
"] ^ / t - e 7 ^ / t - e 7 ^ / t - e 7 ^ / 2 a - q - - - - - - - - - - - - - - - - - - q - a 2 ( ( u - f 7 ^ / ! - m C o 3 p k @ ",
"] ^ / t - e 7 ^ / t - e 7 ^ / t - e 7 ^ / S 2 ! ! t t t t t t t t t t t t t t t t t t ! ! 2 1 ( ( t * e 7 ^ / ! - A j 3 b y l @ ",
"] ^ / t - e 7 ^ / t - e 7 ^ / t - e 8 T 4 / / / / / / / / / / / / / / / / / / / / / / / / / / B / 3 b d 6 | / ! - A j 3 b y l @ ",
"] ^ / t - e 7 ^ / t - e 7 ^ / t - f 7 U T ^ ^ ^ ^ ^ ^ ^ ^ ^ ^ ^ ^ ^ ^ ^ ^ ^ ^ ^ ^ ^ ^ ^ ^ ^ ^ ^ ^ 4 3 c 5 ^ / ! - m C o 3 p k @ ",
"Y Z ` t - e 7 ^ / t - e 7 ^ / ! q V W 7 8 7 7 7 7 7 7 7 7 7 7 7 7 7 7 7 7 7 7 7 7 7 7 7 7 7 7 8 7 s j 3 4 } : ! - m C o 3 p k @ ",
" ...+.t q e 7 ^ / t - e 7 ^ / ! - X V f e e e e e e e e e e e e e e e e e e e e e e e e e e e e e r i b 3 : _ ! * A j 3 b y l @ ",
" ...+.t q e 7 ^ / t - e 7 ^ / 2 a - q - - - - - - - - - - - - - - - - - - - - - - - - - - - - - - q - a 2 ( ( t - i j 3 b y l @ ",
"Y Z ` t - e 7 ^ / t - e 7 ^ / S 2 ! ! t t t t t t t t t t t t t t t t t t t t t t t t t t t t t t ! ! 2 1 ( ( ! * m C o 3 p k @ ",
"@.Z ` t - e 7 ^ / t - e 8 T 4 / / / / / / / / / / / / / / / / / / / / / / / / / / / / / / / / / / / / / / B / 3 b #.J $.3 p k @ ",
" ...+.t q e 7 ^ / t - f 7 U T ^ ^ ^ ^ ^ ^ ^ ^ ^ ^ ^ ^ ^ ^ ^ ^ ^ ^ ^ ^ ^ ^ ^ ^ ^ ^ ^ ^ ^ ^ ^ ^ ^ ^ ^ ^ ^ ^ ^ ^ o 3 1 %.3 b y l @ ",
"&.*.=.t q e 8 | / ! q V W 7 8 7 7 7 7 7 7 7 7 7 7 7 7 7 7 7 7 7 7 7 7 7 7 7 7 7 7 7 7 7 7 7 7 7 7 7 7 7 7 8 7 n j G 1 G -.y l @ ",
"&.*.=.t q e 7 ^ / ! - X V f e e e e e e e e e e e e e e e e e e e e e e e e e e e e e e e e e e e e e e e e e m i -.G 1 G p y @ ",
"&.;.>.,.'.).!.~.{.].a q q - - - - - - - - - - - - - - - - - - - - - - - - - - - - - - - - - - - - - - - - - - q - a 2 1 2 Q k @ ",
"&.;.=.1 ,.1 %.{._ S G ! ! t t t t t t t t t t t t t t t t t t t t t t t t t t t t t t t t t t t t t t t t t t ! ! G ^.G -.y l @ ",
"/.(._.=.>.=.=.+.` :.+.+.:./ / / / / / / / / / / / / / / / / / / / / / / / / / / / / / / / / / / / / / / / / / / / / / c <.r [.- ",
"}.|.(.;.;.;.;.1.2.Z ....Z ^ ^ ^ ^ ^ ^ ^ ^ ^ ^ ^ ^ ^ ^ ^ ^ ^ ^ ^ ^ ^ ^ ^ ^ ^ ^ ^ ^ ^ ^ ^ ^ ^ ^ ^ ^ ^ ^ ^ ^ ^ ^ ^ ^ ^ ^ 3.6 n j ! ",
"4.5.6.*.;.*.*...Z Z ....Z ^ ^ ^ ^ ^ ^ ^ ^ ^ ^ ^ ^ ^ ^ ^ ^ ^ ^ ^ ^ ^ ^ ^ ^ ^ ^ ^ ^ ^ ^ ^ ^ ^ ^ ^ ^ ^ ^ ^ ^ ^ ^ ^ L L ^ L L 7.N / ",
"8.9.0.=.=.=.=.+.` :.+.+.:./ / / / / / / / / / / / / / / / / / / / / / / / / / / / / / / / / / / / / / / / / / / / / / / / J a.^ ",
"L b.3 ! ! ! ! ! ! ! ! ! ! ! ! ! ! ! ! ! ! ! ! ! ! ! ! ! ! ! ! ! ! ! ! ! ! ! ! ! ! ! ! ! ! ! ! ! ! ! ! ! ! ! ! c.d.d.u c.d.x 4 L ",
"e.f.g.q q q q q - - q q - - - - - - - - - - - - - - - - - - - - - - - - - - - - - - - - - - - - - - - - - * - X h.i.X j.i.k.x / ",
"l.m.n.@ @ @ @ @ @ @ @ @ @ @ @ @ @ @ @ @ @ @ @ @ @ @ @ @ @ @ @ @ @ @ @ @ @ @ @ @ @ @ @ @ @ @ @ @ @ @ @ o.p.q.o.q.r.s.t.u.v.w.x.l.",
"y.z.o.@ @ @ @ @ @ @ @ @ @ @ @ @ @ @ @ @ @ @ @ @ @ @ @ @ @ @ @ @ @ @ @ @ @ @ @ @ @ @ @ @ @ @ @ @ @ @ @ p.s.s.p.A.p.t.B.C.D.v.E.y.",
"F.G.H.I.J.I.I.I.I.I.I.I.I.I.I.I.I.I.I.I.I.I.I.I.I.I.I.I.I.I.I.I.I.I.I.I.I.I.I.I.I.I.I.I.I.I.I.I.I.I.I.K.v.v.K.I.I.K.v.L.M.N.O.F.",
"P.Q.G.R.S.R.R.R.R.R.R.R.R.R.R.R.R.R.R.R.R.R.R.R.R.R.R.R.R.R.R.R.R.R.R.R.R.R.R.R.R.R.R.R.R.R.R.R.R.R.R.v.T.T.v.R.U.v.T.V.M.O.W.P.",
"  P.F.M.X.M.M.M.M.M.M.M.M.M.M.M.M.M.M.M.M.M.M.M.M.M.M.M.M.M.M.M.M.M.M.M.M.M.M.M.M.M.M.M.M.M.M.M.M.M.M.M.M.M.M.M.M.M.M.X.M.F.P.  "};
