/* XPM */
static char * Start4_xpm[] = {
"64 64 31 1",
" 	c None",
".	c #A87838",
"+	c #D8A860",
"@	c #F8F8F8",
"#	c #F8F848",
"$	c #C09050",
"%	c #906028",
"&	c #805018",
"*	c #F0C070",
"=	c #C0C0C0",
"-	c #D8D8D8",
";	c #D06000",
">	c #F8D000",
",	c #A84800",
"'	c #F87000",
")	c #6008A8",
"!	c #1850F0",
"~	c #F8F8D8",
"{	c #F86000",
"]	c #A80810",
"^	c #580000",
"/	c #D01028",
"(	c #F83030",
"_	c #A0A0A0",
":	c #787878",
"<	c #A82040",
"[	c #984820",
"}	c #F84000",
"|	c #F88000",
"1	c #F8B068",
"2	c #B06038",
"                                                                ",
"                                                                ",
"                             .          .                       ",
"                             ..        ..                       ",
"                             .+.. .   .+.  ..                   ",
"                             .@.#....++#. .#.   .               ",
"                         .   .#.+#+.+.#@#.##....                ",
"                          .. ..+.#.+#+.##+@#.+#.                ",
"                          .#.#.....#@#+...#+.#.                 ",
"                          .+#$#..#+#@@#.+.+.++.                 ",
"                       ..  .+.#+.@#+##+##..#@.   ...            ",
"                        ....#+..+@@#..#@#.+##....#.             ",
"                         .+@#.$.+#@+.+#@+.+.$##@#.              ",
"                          .#@#+#..#.#.+#...#.+@#.               ",
"                           .++##.+.#@#.+.+#@#@#.                ",
"                        .....@..+@+..#+.+.++#+.                 ",
"                    ....%.#@+@+.@@#+.#..#.+#%% %&&&             ",
"                  ..$++$%%.#@#.@#..#..+$.+.. %%.$$.&&           ",
"                 .$+***+$.%..+.#.++.++*+$%#+..+$...$.&&&&       ",
"                .+******+$.@+.#.+**+***+$%+.+.**+++..$&..&&     ",
"               .$***+$**+$.##..++++***+$$..#.*******+.$&$..&    ",
"               .+**+$+**+$$.%*.$.%%.+.%.%$%.+******+$$.&$$$&    ",
"               .***$$***+$$$$+..$=@-%-@=$;;.$*****+%%%&%.$%.&   ",
"               .***.+***+$$.$+;>.$==+==+.>;$%+***+&$++$.%;;,,   ",
"               .+**.***+$$$.+*$;>...*...#;.$$$**+&$+**+.;>'>',  ",
"               .$+*$**++$$..$++$;>#'%'#>;.$$..$+$%+***+;>#'>))  ",
"              .$%$++*++$..%+****$;>)!)>;.$$+++$%%&+**+$;~'>)!)  ",
"              .+$%$$$.%%%..$+**$..;')';..$+++$.$&%$+*+;>#'>'),  ",
"             .$*+$%..$$$.$$+*****+$;>;$+****++$.& %++$;~>'#>',  ",
"             .+**$.$++$$%..$******+$;$+*****+{.%&  %&;>#'>#',   ",
"             .**+%+***+$%$$.$+***+$.$.$+***+$..&    %%%>'#>',   ",
"             .+*$.****+$&%$$.%%%%..$++.%%%%..$&   %%*+$&>#',    ",
"             .$+.$****$.&&&$$$$.$$$.%..%**++$&   %$%$*+$&>',    ",
"              %$%$+**+$&  &%+..++.*$.+$%$]]]^&   %*&*$$%&',     ",
"               %%$$++$.&   ]/]]]]]$$%+*$]//]]^   %$%$*+$&,      ",
"              %+%;;,..&    ]/((///]]]]]]](]]]^    %&*$$%&,      ",
"              %$;'>',&     ]//^^//]/(/(/]]^]^^    &%$*+$&       ",
"              %;'>#>',      ]^]]^^///,,,^^]^]^     &+$$%        ",
"              ,'>'>#>',      ]//]^^]'>';]^^__]^     %%&         ",
"              ,)#>''..,      ](/]]/];;;]]^_==_]^                ",
"              )!'#...$%     ](:__]({//]/]^==-=:^                ",
"               )'.$$$*$%    ]:_=_]{{(///]^=-@:=:^               ",
"               ,.$$*.%*$%% <:=-==](/(/]/]^=@@=-_:               ",
"                %$*$*%%+$% ]:-@@=](/(/]/]^=@@@@=:               ",
"                %*$**%.%%  :-@@@-]//(/]//]^:@@@-_:              ",
"                 %%*$%$&   :@@---_]]/]/]/]^=@@-=_:   {{         ",
"                { %$+%+*[  :@-::==}]]]^^^^^_--==_:     {{       ",
"               {   %$$%[[  {-:---=}      :=-_;;;;:       {      ",
"   {          |     %*%    |{-@1|}    {  :__;'>>',        {     ",
"  {           |     %$+[    |{{|}[        :;'>#')',       |     ",
" |            |      %[[    1[>#{[{{{{{   ,'>>#)!),       |     ",
"|            1            |{|[21{[     {{ ,'>##')',      |      ",
"1            1           |1|} [[|         ,'>#>>',     11 }     ",
"1             1          }|}   1|}        {,'#>>',    1  }||    ",
"|              |          }}   ||} {|      ,'>]/]^  {|   }1|    ",
" |              ||||           }}  1|| |1|  ^]//]^ { {{  }| {   ",
"  {{                {{{{{{{       {|}}}}}}} ^]/]]]^  }{ {1|}{   ",
"    {{{      {             {{{  {{}}        ,]];;;,   }{|||} {  ",
"                                             ,;>#>',   }}}}     ",
"                                              ,;;;,,       {    ",
"                                                                ",
"                                                                ",
"                                                                ",
"                                                                "};
