/* XPM */
static char * StartB07_xpm[] = {
"64 64 31 1",
" 	c None",
".	c #B83878",
"+	c #F870B0",
"@	c #F888B8",
"#	c #D85090",
"$	c #F8A0C8",
"%	c #981858",
"&	c #000008",
"*	c #C00000",
"=	c #F80000",
"-	c #F8B8D8",
";	c #C0C0C0",
">	c #F0F0F0",
",	c #F8F8F8",
"'	c #A0A0A0",
")	c #D8D8D8",
"!	c #F8B8E0",
"~	c #F8D0E0",
"{	c #880050",
"]	c #703800",
"^	c #F8A800",
"/	c #F87000",
"(	c #301000",
"_	c #A84800",
":	c #D06000",
"<	c #606060",
"[	c #787878",
"}	c #F8D000",
"|	c #909090",
"1	c #503000",
"2	c #382000",
"                                                                ",
"                                                                ",
"                                                                ",
"                                                                ",
"                                                                ",
"                                 ...                            ",
"                               ..+@+.                           ",
"                              .#+$+%#.                          ",
"                             .$#$@.%.+%                         ",
"                            .+#@$@%&%.%                         ",
"                            .$$$@+%@.%%                         ",
"                           .@&&*.*&&+.%                         ",
"                          ..+#&=@=%#+.%                         ",
"                         .@.++$-@@#.##+%                        ",
"                         .+##########++%                        ",
"                         .#..;>,>>;'+##%                        ",
"                          ..#.;;;;;#.%%                         ",
"                            %.;,>)'.%                           ",
"                            %.$$#...%                           ",
"                            %#.-$+#%%                           ",
"                            %#@.%%%+%                           ",
"                        ....+%#@$+.%+%%%%                       ",
"                     ...#+.+#.#@$+..#+#++%%%                    ",
"                   ..#++@++$#..$@#+%#+++@++#%%                  ",
"                  .#++++++#++#@.$+##++#++++++#%                 ",
"                  .$!@+##++#%###+##.#%++##+@!$%                 ",
"                  .@.@#.+@#+-#%+#+%#-@###.#@.@%                 ",
"                  .#+#..#@$-~$$@.@$--$+@+..#+#%                 ",
"                 .#...##.+$$##++.#..#@@+###...#%                ",
"                 .#@$+.#.+##+$@@#@@#..####.+$@#%                ",
"                 .#+$$+...+$$$$@#@@@+#....+$$+#%                ",
"                 .#.+@@{.#$$$$$$.#+@@++##{@@+.#%                ",
"                 .##]]]{-~--$$$@.#+@@@@+#{]]]#.%                ",
"                  .]^&]]..~-$@++.###+++.{]]&^]%                 ",
"                  ]/(]/.&.~~--$@#+@@@@+.({/](/]                 ",
"                  ](]^.$.,~~-$$$#+@@@+++...^](]                 ",
"                  (]^.@$+.~--$++%##++++.+$@.^](                 ",
"                  (]/.#+$.$$$$@@.@@@++#.$.#./](                 ",
"                   ]_.##...#@@@@@++++##..##._]                  ",
"                    ]]...&&&&&:_/__&&&&&...]]                   ",
"                        <[<'&&_}_^_&&['';<                      ",
"                        <';>;,'___'))[';;<                      ",
"                        <'))>>)[<)'>)|');<                      ",
"                        <')>,)'[<)')'););<                      ",
"                        <>,>;['[<[))')>)'<                      ",
"                        <,,)';[< <[>)>,)'<                      ",
"                       <;,>;);[< <[)>,,;'<                      ",
"                       <)>)>>;<  <'[),,';<                      ",
"                       <>;>,)'<   <;;'>>')<                     ",
"                      <','))'[<   <;)>)'))<                     ",
"                     <;>)''['<    <'),>');[<                    ",
"                     <>,,>);;<     [;)')>;[<                    ",
"                    <;))>))';<&&&&&<[[;>)'['<                   ",
"                    <>)'''';'<&&&&&<')>,;[''<                   ",
"                    <;,>;;;'<&&&&&&&<),>|);'<                   ",
"                     <''[['<&&&&&&&&&<''['<<                    ",
"                    &&&&&&&&&&&&&&&&&&&&&&&&                    ",
"                    &&&&&__&&&&&&&&&&&_&&&&&                    ",
"                     _^/_12&&&&&&&&&&&2_//_2                    ",
"                     21]]12&&&&&&&&&&&21]]12                    ",
"                    222222&&&&&&&&&&&&&222222                   ",
"                           &&&&&&&&&&                           ",
"                                                                ",
"                                                                "};
