/* XPM */
static char * StartB04_xpm[] = {
"64 64 30 1",
" 	c None",
".	c #B83878",
"+	c #F870B0",
"@	c #F888B8",
"#	c #D85090",
"$	c #F8A0C8",
"%	c #981858",
"&	c #F8B8D8",
"*	c #F8D0E0",
"=	c #000008",
"-	c #F80000",
";	c #880050",
">	c #F8B8E0",
",	c #703800",
"'	c #F8A800",
")	c #301000",
"!	c #F87000",
"~	c #D06000",
"{	c #F8D000",
"]	c #A84800",
"^	c #606060",
"/	c #A0A0A0",
"(	c #C0C0C0",
"_	c #909090",
":	c #D8D8D8",
"<	c #787878",
"[	c #F0F0F0",
"}	c #F8F8F8",
"|	c #503000",
"1	c #382000",
"                                                                ",
"                                 ...                            ",
"                                .+@#.                           ",
"                               .+$+.+%                          ",
"                               .$@% .%                          ",
"                              .@&@% %.%                         ",
"                             ..**@%%.+%                         ",
"                            .+.&*@%#%#%                         ",
"                            .%.@$@.=..%                         ",
"                           .@@@#$++++%                          ",
"                           .+$.@#@%++%                          ",
"                          ..+$+$@++@+.%                         ",
"                         .@.+=.@#@.=+#+%                        ",
"                         .+#+==-.-==#++%                        ",
"                         .#.#+##+##@###%                        ",
"                         .#+++#+.#++++#%                        ",
"                         .++@@++.+$$@@+%                        ",
"                         .+$$@#.%..$&$@%                        ",
"                         .@$*$@$$+#&*&@%                        ",
"                         .#&**$###$&*&#%                        ",
"                          .@&&$@+$@$&&%                         ",
"                          .#+$@@+$@$$#%                         ",
"                        ....#++@+@@@#%.;;                       ",
"                       .#++.##+++++@#%+#.;                      ",
"                      .++++$..##++#%%++++#;                     ",
"                     .$>@+#++#..%%%#++#+@>$;                    ",
"                     .@.@#.#%###+##.#%.#@.@;                    ",
"                     .#+#..+&#%+#+%#&@..#+#;                    ",
"                    .#...##&*$$@.@$&$$##...#;                   ",
"                    .#@>+.#*&$+@.+@$$@#.+>@#;                   ",
"                    .#$#$+.*$$@+.+@$$@.+$#$#;                   ",
"                    .#.+.@;+@+#.%.#+@+;@.+.#;                   ",
"                 ...,,,@.#;###+@&@+...;#.@,,,..;                ",
"                ..+>.=',#.;$$$@*+$@$$+;.#,'=.>+.;               ",
"               .+>;.+.)!,; .##*$#$$+#% ;,!).+.;>+;              ",
"               .$.++;;,),  .$+&$#@$+$%  ,),;;++.$;              ",
"                ;$$.+.',)  =%+$+.#$+%=  ),'.+.$$;               ",
"                ;+.$.;!,)  ===~'{~]===  ),!;.$.+;               ",
"                 ;+.;;],  ^/==~]!]]==/^  ,];;.+;                ",
"                  ;;;,,   ^(/=]{]']=/_^   ,,;;;                 ",
"                          ^::(<]]]<((/^                         ",
"                          ^:://<^</::/^                         ",
"                         ^([(::/^/:}[</^                        ",
"                         ^::[[:<^:/[:_/^                        ",
"                         ^:[}:/<^:/:/:(^                        ",
"                        ^[}[(</<^<::/:[:^                       ",
"                        ^}}:/(<^ ^<[:[}:^                       ",
"                       ^(}[(:(<^ ^<:[}}(/^                      ",
"                       ^:[:[[(^  ^/<:}}/(^                      ",
"                       ^[([}:/^   ^((/[[/:^                     ",
"                      ^/}/::/<^   ^(:[:/::^                     ",
"                     ^([://</^    ^/:}[/:(<^                    ",
"                     ^[}}[:((^     <(:/:[(<^                    ",
"                    ^(::[::/(^=====^<<([:/</^                   ",
"                    ^[:////(/^=====^/:[}(<//^                   ",
"                    ^(}[(((/^=======^:}[_:(/^                   ",
"                     ^//<</^=========^//</^^                    ",
"                    ========================                    ",
"                    =====]]===========]=====                    ",
"                     ]'!]|1===========1]!!]1                    ",
"                     1|,,|1===========1|,,|1                    ",
"                    111111=============111111                   ",
"                           ==========                           ",
"                                                                "};
