/* XPM */
static char * StartB1_xpm[] = {
"64 64 31 1",
" 	c None",
".	c #F8F8F8",
"+	c #981858",
"@	c #B83878",
"#	c #F870B0",
"$	c #D85090",
"%	c #F8A0C8",
"&	c #F8B8E0",
"*	c #000008",
"=	c #F888B8",
"-	c #703800",
";	c #F87000",
">	c #A84800",
",	c #880050",
"'	c #F8A800",
")	c #C00000",
"!	c #F0F0F0",
"~	c #D8D8D8",
"{	c #C0C0C0",
"]	c #580000",
"^	c #900000",
"/	c #F8B8D8",
"(	c #F8D0E0",
"_	c #D06000",
":	c #F8D000",
"<	c #606060",
"[	c #A0A0A0",
"}	c #909090",
"|	c #787878",
"1	c #503000",
"2	c #382000",
"                                                                ",
"                                                                ",
"                 ..   ++                ++    .. .              ",
"             ....   ++@#+              +#@++    ..              ",
"            ...    +@$+@+       @@@    +@+$@+ ..  ..            ",
"           .   .  +%&++*$+    @@#=#@  +$*++&%.      .           ",
"           .    . +$+@++@+   @$#%#+$@ +@++@+.+ +    .           ",
"          .      ..$#+&%+   @%$%=@+@#+ +%...$-  +    .          ",
"          .   +  -;.>.#@+  @#$=%=+,+@+ +@..>>;-  +   .          ",
"         .   +   *>'.>>+   @%%%=#+=@++  +>>.'>*  +    .         ",
"     ..  .  +   ***.>.-   @=**)@)**#@+   -;>.***  +   .         ",
"       ...  +  ***.**>   @@#$+$=$+$#@+   ->**.**  +   .         ",
"        . .+   ***.**   @=@#!..!!~{$$#+   ***.**   +  .         ",
"        .  +...>>*.**   @#$$).)))~]$##+   ***.>>-  +.....       ",
"       .   +  -....>-   @$@#))))^^]#$$+   ->..... .+   .        ",
"       .  +  +>>;'..@    @@$$))^^]@@++    @@>'.>>+ +   .        ",
"       .  +  +@%%.#=#@     @$^^^]]@+     @#=#@.%@+  +  .        ",
"       .      +#%.#%%#@@@  @$!^]]{@+  @@@#%%##.#+               ",
"              +@#.=&%#$%$@$@$!.!~{@++@$%=#%&=$.@+      .        ",
"               +$..==#@&#@#@%$@@@@@+#+#&$#.==$.+        .       ",
"      .         .+$##=$=##@$#%=%#@#$+##===#..+.         .       ",
"              ..  +$$$$##$##$=#@##$##$##$$$$+..         .       ",
"                   ++$#==#$+$$$@$$@$+#==#$++   .        .       ",
"      .              +$#=$#/$+#$#+$/=$$#$+     . .              ",
"      . ..            +$=%/(%%=@=%/%%#=#+      .   ..           ",
"      ..              @#%/((/%#@#=(/%%=#+            ..         ",
"     . .           +   @#%(/%#=@#=%%==#@+              .        ",
"                  +    @$$#=#$@+@$#=#@@+                 .      ",
"                ++      @#$$$#=/=#@@@$$+                        ",
"               +        @$#=/=($%=%%#$+       .                 ",
"                         @$$$(%$%%#$$+                  .       ",
"                          @%#/%$=%#%+     +                     ",
"                          *+#%#@$%#+*                           ",
"                    +     ***_':_>***                   .       ",
"                   +      ***_>;>>***                   .       ",
"                         <[**>:>'>**[<                          ",
"                         <{[**>>>**[}<                          ",
"                         <~~{||<||{{[<                          ",
"                         <~~[[{<{[~~[<                          ",
"                        <{!{~~[<[~.!|[<                         ",
"                        <~~!!~|<~[!~}[<                         ",
"                        <~!.~[|<~[~[~{<                         ",
"                       <!.!{|[|<|~~[~!~<                        ",
"                       <..~[{|< <|!~!.~<                        ",
"                      <{.!{~{|< <|~!..{[<                       ",
"                      <~!~!!{<  <[|~..[{<                       ",
"                      <!{!.~[<   <{{[!![~<                      ",
"                     <[.[~~[|<   <{~!~[~~<                      ",
"                    <{!~[[|[<    <[~.![~{|<                     ",
"                    <!..!~{{<     |{~[~!{|<                     ",
"                   <{~~!~~[{<     <||{!~[|<                     ",
"                   <.~[[[[{[<     <[~!.{|[<                     ",
"                   <{.!{{{[<*******<~.!}~{<                     ",
"                    <[[||[<*********<[[|[|<                     ",
"                     <<<<<***********<<<<<                      ",
"                    **********************                      ",
"                   *****>>***********>*****                     ",
"                   ***;>12***********2>;;>2                     ",
"                    >'--12***********21-->2                     ",
"                    21222*************22212                     ",
"                   222 ****************  222                    ",
"                          **********                            ",
"                                                                ",
"                                                                "};
