/* XPM */
static char * Start2_xpm[] = {
"64 64 31 1",
" 	c None",
".	c #A87838",
"+	c #F8F8F8",
"@	c #F8F848",
"#	c #D8A860",
"$	c #C09050",
"%	c #A87850",
"&	c #805018",
"*	c #F0C070",
"=	c #906028",
"-	c #C0C0C0",
";	c #F0F0F0",
">	c #D8D8D8",
",	c #D06000",
"'	c #F86000",
")	c #F8D000",
"!	c #F87000",
"~	c #F88000",
"{	c #F8B068",
"]	c #A84800",
"^	c #6008A8",
"/	c #1850F0",
"(	c #F8F8D8",
"_	c #A80810",
":	c #787878",
"<	c #A0A0A0",
"[	c #D01028",
"}	c #580000",
"|	c #F84000",
"1	c #F83030",
"2	c #606060",
"                                                                ",
"                                                                ",
"                                                                ",
"                                                                ",
"                                                                ",
"                                                                ",
"                                                                ",
"                                                                ",
"                                                                ",
"                                                                ",
"                                                                ",
"                                                                ",
"                               .        .                       ",
"                               .  .    ..                       ",
"                               .. .   .+.  .   .                ",
"                          .  . .@.#..$@@. .@. ..                ",
"                          .. ...@.@#@#.#..@@..+.                ",
"                          .+..@.+@+##.@..#+@.#@.                ",
"                          .@+.@#.@+@.@.@.#@@.@.                 ",
"                          .#@.++#.@@..@.@.#..#. %%%             ",
"                        .. .#.#@.#.#.@+@.#..@.&&....%           ",
"                        .#...#..#+#..+++#..@$....@.$$%          ",
"                         .#+++#.++@#.#@+@.#@.#@+@.###$%         ",
"                          .@#@.+@..@...#+#..@++@.$#**#%         ",
"                           ..#.@.##.##*.@=.$@#..#$#***$&        ",
"                        ....#=@.#**#***.#=.@#.#.###***#&        ",
"                         .@+@==.###***##..==.@#.###***$&        ",
"                       ..=.@@#.$.==.#.=.=.=#=@.**#****%&        ",
"                    ...$$.=.==#=*-+===+-$=$==.&#$=***#%&        ",
"                  ==$$$$$$.=.#==#*--#--#$==.=..#$=**#$&         ",
"                ==.=$$$$##$.==#=.#$$$$.$.=$=#@.=$=##$%.&        ",
"             &&=.$=.$$#####$=.===$;;>>>.===...##$=$$%$$&        ",
"           &&.$$$$=$###****#$.$#=$#**#$.=#$,$###$=&&$#*& &&&    ",
"          &.$###$.=###*****##.#**=$....=$*#,#.##$=#.&**&&#*%&   ",
"         &.$#$$$...##*****#$#.=*#.=$#$=.##,,###'.=#$&#&%&*$%&   ",
"       &&..$..=..=$##***##.$$.=,,#*===##,,,.$##'=**$.&*&$%&*$&  ",
"      &.$#==.$$$.=.$#*##$.##.$=)!,,#*#,,!),$##$'~*#$&&$&&$$&%&  ",
"     &..#*=.$###$.=$#*$.$#$$.$=,)@!,,,!)@,.'#$'{~#.$]&&%$%**&   ",
"     =*]]]]]=#**#$.=$####$$.#$$$,)@!^!@),.'~..'~&.$&]&.%**%%&   ",
"     =],,,,,]=##*#$=.$$$$$.'$'#*$,)^/^),.$'##$'  &%%])&$%$$&,   ",
"     ],)@!@))]==#*#$......~{''*$..,!^!,..{~#$.   &%$]!)%&&&),   ",
"     ]!^@(!())]]#$..      ~={'$**#$,),$#{'*#__:::&&%$])@@@)!,   ",
"   ' ]^/^((!@)!]..  '     ' ~~.$#*#$,${''~._::<<<:&&.]!))!,,    ",
"     ],^!]]]]))]$ ''    '     &====.$.''~~_:<<->><: &.],,,   '  ",
"  '   ],]].*$])!] '   ''       &.#.===.$*_[:>-<>''~: &&&&     ~ ",
"      ],]=.*#$]!]'  ''       '''_.*$&#$._[}:>|||~''~:   ''    ~ ",
"       ]=.#**#$, ' |~{||    ''|}[________[}:~||~'''~~~ '|    {  ",
"       =.#*#*#*= ' |'~{|   ''~|:}[[11[1[}}::{|~''{~~{~'|     ~  ",
"      =#%#*%#%%#='  |'~~|'''~{~|:}}_!)!,_}2~~~''~~||||      '   ",
"  '   =*=#%=#==%#='  ||''~~'''{~~~'_,,,__~~{'''|||        ''    ",
"       = *==*= ==  '   ||||||||||||||||||||||||    ''' '''      ",
"                                                                ",
"                                                                ",
"                                                                ",
"                                                                ",
"                                                                ",
"                                                                ",
"                                                                ",
"                                                                ",
"                                                                ",
"                                                                ",
"                                                                ",
"                                                                ",
"                                                                "};
