/* XPM */
static char * StartB2_xpm[] = {
"64 64 31 1",
" 	c None",
".	c #E0F8F8",
"+	c #C8E8F8",
"@	c #F8F8F8",
"#	c #A8D0F8",
"$	c #B83878",
"%	c #F8A0C8",
"&	c #F870B0",
"*	c #F888B8",
"=	c #D85090",
"-	c #981858",
";	c #880050",
">	c #F8B8D8",
",	c #F8D0E0",
"'	c #F8B8E0",
")	c #703800",
"!	c #000008",
"~	c #F8A800",
"{	c #301000",
"]	c #F87000",
"^	c #606060",
"/	c #A84800",
"(	c #F8D000",
"_	c #909090",
":	c #A0A0A0",
"<	c #D8D8D8",
"[	c #F0F0F0",
"}	c #C0C0C0",
"|	c #787878",
"1	c #503000",
"2	c #382000",
"                                                                ",
"                                                                ",
"                                                                ",
"                                                                ",
"                                                                ",
"                                                                ",
"                                                                ",
"                                                                ",
"                                                                ",
"                                                                ",
"                                                                ",
"                            ...                                 ",
"                           +@+@+                                ",
"                          .@@@@+#    .+..                       ",
"                          .@+++##   ++.+..                      ",
"                           @ +# #  ++..+@..                     ",
"                             @+$$$$..+.@.@.+                    ",
"            @  %             +#&*&=#+ @.@@++         @          ",
"             @               @#%&-$&- +@@++#       @@           ",
"             ;@       ++#    +#*-  $-#+  +#      @@             ",
"               @     #@@+#  $+%*-  -@## ##   % @@  ;            ",
"                @    @#@ #  $@>*-  #+@#      @@@  ;             ",
"                 @   @@ +  $$,,*-- @+#         @ ;              ",
"            %         @ #@#&$>,*-=@+#-        %@ ;              ",
"            ;;          @@#&$%>*$=@#           @;               ",
"                         $@#$*%*$@#-           @                ",
"                         $&@@=%&@#&-           @                ",
"            %%          $$&%@*=*@&&$-         @ %               ",
"            %          $*$&%&%*&&*&=&-        @ %               ",
"           ;;          $&=&=*%&>*$=&&-        @ %               ",
"              @        $=$=&$*=*$====-        @ %% ;            ",
"              @      $$&$$&-;=$=;-&--$;;      @  ;;             ",
"          %%@@@@@   $=&&=$%==;*-==&-=&=$;     @    @@@@@        ",
"      @@@@@@; @    $&&&&&$*>%=$=*%*-&&&&=;   @@@@@@             ",
"              @   $%'*&==>$*&=*=%*-%==&*'%;   @                 ",
"          %%%  @  $*$*=$&,$&*--$*=-*&$=*$*;   @ %%              ",
"          %%;; @  $=&=$$&&>$&===&-*=&$$=&=;   @%%%%             ",
"               @ $=$$$==%,>%$$$$-%%**==$$$=; @@                 ",
"               @ $=*'&$==&*&=$-$=&*&$=$&'*=;  @                 ",
"          %%%%;@ $=%=%&$&===&*>*&$$$=$&%=%=;  @@%%              ",
"          %%%; @ @=$&$*;&**>*,=%*%%&=;*$&$=; @ %@%%   ;         ",
"           %; $$@)))*$=;!*>>,%=%%&==!;=$*)))$@;  @@  ;          ",
"        ;    $$@@$!~)=$;!!======---!!;$=)~!$@&$;   @ ;          ",
"         ;  $&@;$@${]);^^!!!/(/~/!!!^^;)]{$&@;'&;   @           ",
"         ;  @@$&&@;){)^_::_!!///!!^:<_^){);@&&$%;  ; @          ",
"          ;@ ;%%$&$~){_<@<:[<:^:<[:<@<_{)~$&$%%;   ;  @         ",
"          @  ;&$%$;]){<@@<}_<_^_<_}<@@<{)];$%$&;  ;             ",
"         @ ;  ;&$;;/)}[}<<[:<_^_}:[<@}[<)/;;$&; ;;              ",
"            ;  ;;;))[}<[:<[<::^|:<[<:[}:[));;; ;                ",
"                 ^}[<:}<}|}:|^^^|:}|}}:|:[}^                    ",
"                 ^<}}}|:::|^^   ^^|:::|:}[<^                    ",
"                 ^|[:<:||^^       ^^^^<<:[<^                    ",
"                 ^}<[}}<:|^!!!!!!!^|:<@<[<}^                    ",
"                 ^}<<}||||^!!!!!!!^:}<<@<<|^                    ",
"                  ^}@[}}:|^!!!!!!!^:}}}[@|^                     ",
"                   ^::|||^!!!!!!!!!^||||^^                      ",
"                  !!!!!!!!!!!!!!!!!!!!!!!!                      ",
"                  !!!!!//!!!!!!!!!!!//!!!!                      ",
"                   /~]/12!!!!!!!!!!!21//]/                      ",
"                   21))12!!!!!!!!!!!21))12                      ",
"                  222222!!!!!!!!!!!!!222222                     ",
"                         !!!!!!!!!!                             ",
"                                                                ",
"                                                                "};
