/* XPM */
static char * StartB01_xpm[] = {
"64 64 28 1",
" 	c None",
".	c #B83878",
"+	c #F8A0C8",
"@	c #F888B8",
"#	c #D85090",
"$	c #981858",
"%	c #F870B0",
"&	c #F8D0E0",
"*	c #000008",
"=	c #880050",
"-	c #F80000",
";	c #D8D8D8",
">	c #F8F8F8",
",	c #F0F0F0",
"'	c #F8B8D8",
")	c #F87000",
"!	c #D06000",
"~	c #703800",
"{	c #A84800",
"]	c #F8B8E0",
"^	c #F8A800",
"/	c #606060",
"(	c #909090",
"_	c #C0C0C0",
":	c #A0A0A0",
"<	c #787878",
"[	c #382000",
"}	c #503000",
"                                                                ",
"                                                                ",
"                                                                ",
"                                        ....                    ",
"                                     ...+++@..                  ",
"                                   ..++@#$$#%@.                 ",
"                                  .+@%#$$  $$#@.                ",
"                                 .+@%#$      $#%.               ",
"                                .+@%#$       $#@$               ",
"                               .++%#.$$      .%#$               ",
"                               .&@##.##$      .$                ",
"                              .++@@$%%*#$                       ",
"                              .&+.@%@@%#$                       ",
"                              .&+%#%@@%##$                      ",
"                             .+#&@.@%.$.#$                      ",
"                             ..#@.$@.#@#.$                      ",
"                              =.$$*%#+=%$$                      ",
"                              .%-*#%##%#$                       ",
"                              .##%%@%#$.$                       ",
"                    $$         $.#;+@@%#$                       ",
"            $$$... $%#$        .>,#%#.#.$                       ",
"           $%.$$$$$%#$$         $$@%.@%#$                       ",
"           $*$$$%%.$$@%$         ...%+@%#$                      ",
"            $%@'$$$$@%$**       .%.#%.$$.$                      ",
"            $*$@%%%%%$)!***~!$$......%@%$#$                     ",
"               $$#%#$@$~~**{{..$%$#$$++@%.$                     ",
"                 $#%@#{))***~!$$$$$#+]@@#.$                     ",
"                  $@%#{^{***{{.#@%.+#@%%$.$                     ",
"                   $#.{^{***){.@]@.#%%%#$$                      ",
"                    $${){***^{%%@%%#.##$#$                      ",
"                       ~~***)%....%@#.$#$                       ",
"                          **~$$%@%@#$$#$                        ",
"                             .@$$$$$##$                         ",
"                             $#@+%##.$$                         ",
"                              $+%$#%%#$                         ",
"                              .%$$$****                         ",
"                              {{{******                         ",
"                              ){{**/((/                         ",
"                              {^{*(;(_(/                        ",
"                              {{:(_,_;(/                        ",
"                              /<__(,,;</                        ",
"                              /<;,(;,:</                        ",
"                              /<_;,_;<:/                        ",
"                              /<:;,,<__/                        ",
"                              /<(;;:;,</                        ",
"                              /:<(,;,::/                        ",
"                              /_<<;,>,_</                       ",
"                              /_<:(;>>_</                       ",
"                              /;<__:>>_</                       ",
"                              /,<_>_:;(:/                       ",
"                              /,<:>>;((_</                      ",
"                              /;:<_>>>;_</                      ",
"                              /:_<<;>>;<::/                     ",
"                              /<:<:<;;;__:/***                  ",
"                            *****<:_<:;;:</*****                ",
"                           *******</::_://*******               ",
"                          *****~{{{~**************              ",
"                          *****[}}}[**************              ",
"                           ***[[[[[{)^^){********               ",
"                            *******[}~~}[*******                ",
"                              ****[[[[[[[*****                  ",
"                                 **********                     ",
"                                                                ",
"                                                                "};
