/* XPM */
static char * StartB6_xpm[] = {
"64 64 34 1",
" 	c None",
".	c #C8E8F8",
"+	c #F8F8F8",
"@	c #A8D0F8",
"#	c #E0F8F8",
"$	c #B83878",
"%	c #F870B0",
"&	c #F888B8",
"*	c #D85090",
"=	c #F8A0C8",
"-	c #981858",
";	c #F8B8D8",
">	c #F8D0E0",
",	c #880050",
"'	c #000008",
")	c #C00000",
"!	c #F80000",
"~	c #F8B8E0",
"{	c #703800",
"]	c #F87000",
"^	c #F8A800",
"/	c #301000",
"(	c #606060",
"_	c #D06000",
":	c #F8D000",
"<	c #A84800",
"[	c #D8D8D8",
"}	c #C0C0C0",
"|	c #A0A0A0",
"1	c #F0F0F0",
"2	c #787878",
"3	c #909090",
"4	c #503000",
"5	c #382000",
"                                                                ",
"                                                   .++          ",
"              @@@             +     #..             +@          ",
"     +##     ###.@                #+#.#.+     ++                ",
"     .++@   .@+@#.@     ###       #+##.#.   +.+.          @+    ",
"     ++.    .+@+#.@     #+.@      ##.##.@  +.+.           +.    ",
"      @     .++@#.@     #.#@        #..   +++.+                 ",
"             @##...      @@              +.+..@                 ",
"             .....           +    $$$$  +. +.@                  ",
"              ...                $%&%*$+@ +@  #@#               ",
"                                $%=%-$+. .@  +@+.@              ",
"                              + $=&-  +@ +   @++.@         .    ",
"      ##       +@              +&=&- +.$-    +...@              ",
"     #++@        ++@           @+;&- +@%-     @@@               ",
"     #+#@        @.+@      +  $@.>&-+ $*-                       ",
"      @@          @.++@      $%$+>&-*- $-                       ",
"                  @.@..+     $%$=;&$*$    .+#                   ",
"                   @@@ @.   $+-$&=&$,%-  .+.                    ",
"                        @@  $%&&*=%%%%-  +.                     ",
"                           $$%=$&*&-%%$-+@                      ",
"                          $&$%=%=&%%&%*+@                       ",
"                        + $%*%$&=%;&$*%%-                       ",
"                          $*$*'$&*&$'***-                       ",
"                           $$%'')$)''%--                        ",
"                             $&'!&!'*-                          ",
"                             $%&*$*%%-                          ",
"                          $$%*$%*&*%$*%--                       ",
"                        $$%%=*$%&=%*$*%%$,,                     ",
"                       $*%%*%%*$$$$$*%%*%*$,                    ",
"                      $%%%%%*-***%**$*-%%%%*,                   ",
"                     $=~&%**%;*-%*%-*;&**%&~=,                  ",
"                     $&$&*$%;>==&$&=;==%$*&$&,                  ",
"                     $*%*$$%>==&%$%&==&%$$*%*,                  ",
"                    $*$$$***%&%*$-$*%&%$**$$$*,                 ",
"                    $*&~%$*%***%&;&%$$$**$%~&*,                 ",
"                    $*=*=%$*===&>%=&==%%$%=*=*,                 ",
"                    {{{%$&,$***>=*==%**-,&$%{{{                 ",
"                   {]^^{$*, $=%;=*&=%=- ,*${^]]{                ",
"                   ////]{,  '-%=%$*=%-'  ,{]////                ",
"                   $${{/{   '''-=*=-'''   {/{{$$,               ",
"                  $%~$^{/  ('''_^:_<'''   /{^$~%$,              ",
"                 ,~,$%${/  ([[}_<]<<'}(   /{$%$,~%,             ",
"                 ,$%%,,{   ([[|<:<^<[[|(   {,,%%$=,             ",
"                 ,==$%$   (}1}[[<<<[+12|(   $%$==,              ",
"                 ,%$=$,   ([[11[2([|1[3|(   ,$=$%,              ",
"                  ,%$,    ([1+[|2([|[|[}(    ,,,,               ",
"                   ,,     (1+1}2|([[|[1[(                       ",
"                          (++[|}}(21[1+[2(                      ",
"                         (}+1}[}|(2[1++}|(                      ",
"                         ([1[11}((|2[++|}(                      ",
"                         (1}1+[|( (}}|11|[(                     ",
"                         (+|[[|(( (}[1[|[[(                     ",
"                        (}1[||2|( (|[+1|[}2(                    ",
"                        (1++1[}}(  2}[|[1}2(                    ",
"                       (}[[1[[|}(''(22}1[|2|(                   ",
"                       (1[||||}|(''(|[1+}2||(                   ",
"                       (}+1}}}|('''(}[+13[}|(                   ",
"                      ''(||22|('''''((||2|((                    ",
"                     ''''''''''''''''''''''''                   ",
"                     '''''''<<''''''''<''''''                   ",
"                      ''<^]<45''''''''5<]]<5                    ",
"                       '54{{45''''''''54{{45                    ",
"                       555555''''''''''555555                   ",
"                            ''''''''''                          "};
