/* XPM */
static char * Start3_xpm[] = {
"64 64 29 1",
" 	c None",
".	c #906028",
"+	c #A87838",
"@	c #F8F848",
"#	c #D8A860",
"$	c #F8F8F8",
"%	c #A87850",
"&	c #C09050",
"*	c #F0C070",
"=	c #805018",
"-	c #D06000",
";	c #F87000",
">	c #F8D000",
",	c #6008A8",
"'	c #F8B068",
")	c #F88000",
"!	c #1850F0",
"~	c #F84000",
"{	c #F86000",
"]	c #A84800",
"^	c #580000",
"/	c #A80810",
"(	c #F83030",
"_	c #787878",
":	c #A0A0A0",
"<	c #D01028",
"[	c #C0C0C0",
"}	c #D8D8D8",
"|	c #E02078",
"                                                                ",
"                                                                ",
"                                                                ",
"                                                                ",
"                                                                ",
"                                                                ",
"                                                                ",
"                                                                ",
"                              ...+.                             ",
"                      ...   ..++@++.                            ",
"                     .+#$. .+++..+@+..+++++.                    ",
"                    .+@+@$..+@#+++$#++$++@. .                   ",
"                    . ++##.#@+#$@+##+$@+#+                      ",
"                        +.#$++#@#+++@@#+++++                    ",
"                    ++  +#@+#@++#@#+#++##+$@++%%                ",
"                     +++@++#$#+@$@+#+#@$$@##@#+&%%              ",
"                      +#++#@++@+@+#@+++@$#..$@+#&&%             ",
"               ++++   ++#+&+#@$#+#@$#+#++++&....##&%            ",
"             ++&##&.. +@@#++#$$@++@$@+#@@#+&##&#**#%            ",
"            +&#***#&+.@$#+@#+$@#@@#@@++@$$@+&#&#***&=           ",
"           +#******#&+.@#&@++@#@$$@+#+#+#@$#+###***#=           ",
"          +&***#&**#&&+++@+++++@$@#+++@#++++++##***&=           ",
"          +#**#&#**#&&+#+#+#+@+#@#+@@#$@+#++.++****%=           ",
"          +***&&***#&&&+#+#@#@#+#+@$@+@$+@#+#*****#%=           ",
"          +***+#***#&&++@+@$@+@++##$$@#@++@+&##**#&=            ",
"          +#**+***#&&++@#+$$#+#+#+#+@$+@+#+++&%##&%+=           ",
"          +&#*&**##&++.+++$@++#$@+#@+@+++##++=+&&%&&=           ",
"         +&.&##*##&++.=&&+@+-+@@&.++#++-+&#++#&==&#*= ===       ",
"         +#&.&&&+....=+##++-++++#*#+-;+-&##.&**#+=**==#*%=      ",
"        +&*#&.++&&&+=+#**##&->@;---;>@-+&#&.#**#&=#=%=*&%=      ",
"        +#**&+&##&&. =+&##*#&->@;,;@>-+&+').&***&+=*=&%=*&=     ",
"        +**#.#***#&.  ==&#**#&->,!,>-+&&#)~.=#*#&==&==&&=%=     ",
"        +#*&+****#&=    =&##&++-;,;-++##{)~ =&#+&]==%&%**=      ",
"        +&#+&****&+=    {{)***#&->-&#***~~.  =+&=]=+%**%%=      ",
"        ].&.&#**#&=    {')~#&#*#&-&#**#++.^^  =%%]>=&%&&=-      ",
"        ];].&&##&+=    ))~=&=...+&+....&^^//^ =%&];>%===>-      ",
"        ];-]#*#++=     ~~=&#&##+...+&^^^(/^^^^==%&]>@@@>;-      ",
"       ]-;>-]]*+=       ////&&&#&=#///(/^^___:::=+];>>;--       ",
"       ],;@>>]]]]       ^<//////////(</^__{:[[}}[_+]---         ",
"       ,!,>->;;]        ^^^<<<<<(((^^{^__[}[}$$$}:_===          ",
"      ]-,>;>@>]  {{{   //</^^^^-;>;-{{^_:[[}$$$}:__             ",
"      ];>;>@>;]{{     /|////<</<---^~~_:::[}_:}{}[:_            ",
"     ==]>>@>>]       /</_:::///<(<<</^__:::_}${{{)[_            ",
"    =*+=]->>-]       /_[}}}}::/<<<(</^  ___:$){')~:_            ",
"   ==+#&&]]-] {{{   /_}[_::[[://<<(<(/^   _:){')~;]             ",
"   =*####&=] {      _[_:[[}}[[_/(<(<(/^   =-){)~,;]   {)        ",
"   {=+#**#&={     ~ __[}$$${}[_/{<(<(/^  {]{{')~!, {{{{)~       ",
"  {=#&***&*+=   )))~_[$$$$$$}:_/(<(/^^    ])))~;,{{)){')~       ",
"  )=#**#&++#+=  )'{~_[$$}}}$}[_/</^){)   {{{~@{){{)')))~    {   ",
"  ' =+##====*= ~)){{_[$$~~[}}[_ /{{{{'){{{~~>@>)))))~~~         ",
"  )=+*#= {{ =  ~)'){{}}~))~:[:_  {)')))~~~]-;>;]~~~~       )    ",
"  {=*+=   {     ~)'{{~~{{{)~_:_  {{)~~~   ]^---]                ",
"   {++    {{     ~~){{{{)')~:_={{))~      ]^<<---        '      ",
"     {{    {{{     ~~~~{))')){{~~~~        ^^]>>;]    )))       ",
"       {     {{      _]>~~~~~~               ]]]]]  {{          ",
"                                                                ",
"                                                                ",
"                                                                ",
"                                                                ",
"                                                                ",
"                                                                ",
"                                                                ",
"                                                                ",
"                                                                "};
