/* XPM */
static char * StartB03_xpm[] = {
"64 64 31 1",
" 	c None",
".	c #B83878",
"+	c #F870B0",
"@	c #F888B8",
"#	c #D85090",
"$	c #F8A0C8",
"%	c #981858",
"&	c #F8B8D8",
"*	c #F8D0E0",
"=	c #000008",
"-	c #880050",
";	c #C00000",
">	c #F80000",
",	c #F8B8E0",
"'	c #703800",
")	c #F8A800",
"!	c #F87000",
"~	c #301000",
"{	c #A84800",
"]	c #F8D000",
"^	c #D06000",
"/	c #A0A0A0",
"(	c #787878",
"_	c #606060",
":	c #D8D8D8",
"<	c #F0F0F0",
"[	c #F8F8F8",
"}	c #C0C0C0",
"|	c #909090",
"1	c #382000",
"2	c #503000",
"                                 ....                           ",
"                                .+@+#.                          ",
"                               .+$+%.+%                         ",
"                               .$@% %$%                         ",
"                              .@$@%  %$%                        ",
"                              .$&@%  .+#%                       ",
"                            ..**@%%   .#%                       ",
"                           .+.&*@%#%   .%                       ",
"                           .+.$&@.#.                            ",
"                          ..@$@.=+++%                           ",
"                          .@#$++@$@+%                           ",
"                         ...@#@%+@+..%                          ",
"                         ..+$@++@+#+#+%                         ",
"                         .#@$+&@.+##-+%                         ",
"                        .+#.@#@.=+#+##%                         ",
"                       .++==;.;==#+.%%                          ",
"                       .+@#=>@>=#++%#%                          ",
"                       .@$&@+.+@$$&$#%                          ",
"                       .$*&@@.@@$&*&+%                          ",
"                       .#**$.%..$&*&+%                          ",
"                        .@$@&$@#@$&&+%                          ",
"                       ..#@+@##+@$$$#%                          ",
"                     ..#+.##+++#@++#%                           ",
"                    .#+++...###@##..$..                         ",
"                    .$,@.#@#.@@$+.#$++#..                       ",
"                    .@.@.&@.#....#-#++++#.                      ",
"                    .#+#.*&#%+++-#&@#+@,$.                      ",
"                   .#....$*&@@#@@@*&.#@.@.                      ",
"                   .#@$+.+$$@+.@@+$*..#+#.                      ",
"                   .#+$$+.@$+#.+@$+###...#.                     ",
"                   .#.+@@-....%+++$##.+$@#.                     ",
"                   .##'''-$@@@$####+.+$$+#.                     ",
"                    .')=''+$@$+*@++#-@@+.#.                     ",
"                    '!~'!!'+$$.$*##.-'''##.                     ",
"                    '~')...+$@.$$++#''=)'.                      ",
"                    ~').@$+.)#.+#.#'!!'~!'                      ",
"                    ~'!.#+$.{]^{==~...)'~'                      ",
"                     '{.##..)!{{==.+$@.)'~                      ",
"                      ''.../{{]{=(.$+#.!'~                      ",
"                        _:::({{(/(..##.{'                       ",
"                        _:://(_(:<[...''                        ",
"                       _}<}::/_/:[<(/_                          ",
"                       _::<<:(_:/<:|/_                          ",
"                       _:<[:((_:/:/:}_                          ",
"                      __[[:/}(_(::/:</_                         ",
"                      _}[<}:}(__(<:<[:_                         ",
"                      _:<:<<}_ _(:<[[}/_                        ",
"                      _<}<[:/_ _/(:[[/}_                        ",
"                     _}<://(/_  _}}/<</:_                       ",
"                     _<[[<:}}(_ _}:<:/::_                       ",
"                     _}::<::/}_ _/:[</:}(_                      ",
"                     _<:////}/_  (}:/:<}(_                      ",
"                     _}[<}}}/_===_((}<:/(/_                     ",
"                      _//((/_====_/:<[}(//_                     ",
"                    ==============_:[<|:}/_                     ",
"                   ======={{=======_//(/11                      ",
"                  ====={!{21=========={1==1                     ",
"                  =====1''21======={!{1===1                     ",
"                   ===11111=========11===1                      ",
"                    ================1===1                       ",
"                      ===============111                        ",
"                         ==========                             ",
"                                                                ",
"                                                                "};
