/* XPM */
static char * Start0_xpm[] = {
"64 64 29 1",
" 	c None",
".	c #A87838",
"+	c #C09050",
"@	c #F8F848",
"#	c #D8A860",
"$	c #F8F8F8",
"%	c #F0C070",
"&	c #906028",
"*	c #909090",
"=	c #C0C0C0",
"-	c #805018",
";	c #F0F0F0",
">	c #D8D8D8",
",	c #D06000",
"'	c #F8D000",
")	c #F87000",
"!	c #6008A8",
"~	c #1850F0",
"{	c #A84800",
"]	c #F8F8D8",
"^	c #F86000",
"/	c #F88000",
"(	c #F8B068",
"_	c #A80810",
":	c #580000",
"<	c #F84000",
"[	c #D01028",
"}	c #F83030",
"|	c #A87850",
"                                                                ",
"                                                                ",
"                                                                ",
"                                                                ",
"                                                                ",
"                                                                ",
"                                                                ",
"                                                                ",
"                                                                ",
"                                                                ",
"                                                                ",
"                            .  .   .... ..                      ",
"                          . .. .. +@@. .@.   .                  ",
"                      .   ...@.@#.@$#..@@....                   ",
"                       .. .@.$@.#.#.#.#$@.#@.                   ",
"                       .@..@#@$$##.@..@$@.@.                    ",
"                       .#@.$@.@$@.@.@.#@#.#.                    ",
"                    ..  .#.@$#.@@..@.@.#.#.   ...               ",
"                     ......#@.#.#.@$@.#..@....@.                ",
"                      .#$@#..#$#..$$$#..@+@@$@.                 ",
"                       .@$$#.$$@#.@..@.#@.#$@.                  ",
"                        .#@.$@..@..#+.#..@$@.                   ",
"                     .....#.@.##.##%#+&.+@#..                   ",
"                      .@$#.@.#%%#%%%#+&.@#.#.                   ",
"                       .@@..#.&#%%%#.&.&&.@.                    ",
"                       &.&%.#%*&.#.&*++&+&.                     ",
"                 .....&@.&#.+%=$&&&$=+.&#&..                    ",
"               ..+++++..@#&#&#%==#==#+&+&#@.  &&&-              ",
"              .+#####++& ..&&+%%%+%%#.&&... &&+++.--            ",
"             .+#%%%%%#++&  &&.#+;$>.#.&&   &.+##+++.-           ",
"             .##%%#.%%#+.&,&#&+;;>>>+&#+,&&.+#%+##++.-          ",
"            .+#%%+.#%%#+.&,+%&+;$$$>.&%#,..+#%%%.##++.-         ",
"            &##%#.+%%%#+++,,%&+#%%#+.&#,,+.#%%%%%.#+++-         ",
"            &.#%.#%%%#+++++,,,&+....&,,,.+.#%%%%%++#++-         ",
"          .&.&#%+%%%##+.++#,'),&+#+&,)',+###%%%%%%.%++-         ",
"         .+#+&+#%####+.++#%+,'@)&&&)'@,.++##%%%%%%.%++-         ",
"         .#%#+&++..+++.+.+##+,'@)!)@',.++.###%%%%%+#+.-         ",
"        .#%#+.&&&&&&.+&&#%%%%+,'!~!',.++###.+#%%%###+&&-        ",
"        .#%#.&.+#+...&+.+#%%+..,)!),..+###++.&-&.+#+-++-        ",
"        &#.+&.#%#++.&&.+#%%%%%#+,',+#%%%%##.+.+#+.&-+#+.-       ",
"       &,,,,##%%#+.&  &.+%%%%%%#+,+#%%%%%##+.&#%%#+.+%++-       ",
"       {)@@',,%#+.-   &+.+#%%%#+.+.+#%%%#+.++.%%%%#+.#++-       ",
"       {'@]@'),+.-    &.+.&&&&..+##.&&&&..+.&.#%%%#,,,,,{       ",
"      ~!@]@''),.-   ^  &++++.+++.&.+++.+#++--&+%%,,@]')){       ",
"      !!@]@'),{    /   &+#..#%#+%.#.+##..#.- /&#{,)@]')!~       ",
"      {'@@@'),{   ^   ^^&+#%%%+..&..&%%#++-   &+{,'@'')!!       ",
"     {,,,,,),{   ^   ^(/^&+#%#.%+.#+&+___:^/   &+{+#%.&){       ",
"     {.#%%#,,{   /  <^/^_[____________[[__:^//  ^+#%%#.&{       ",
"    &.#%#%#%&    ^   <<^^[^}[[_[}}[^^^[:__^(/<  &%#%#%#.&       ",
"   &#|#%|#||#&    /    <^^/(/////^///(^^^^//<  &#||#|%#|#&      ",
"   &%&#|&#&&|#&   </    <^(/^^^^^^^^(//^^//<  &#|&&#&|#&%&      ",
"    & %& && &&      ^^   <<<<<<<<<<<<<<<<<     && &%& | &       ",
"                                                                ",
"                                                                ",
"                                                                ",
"                                                                ",
"                                                                ",
"                                                                ",
"                                                                ",
"                                                                ",
"                                                                ",
"                                                                ",
"                                                                ",
"                                                                "};
