/* XPM */
static char * Start1_xpm[] = {
"64 64 25 1",
" 	c None",
".	c #A87838",
"+	c #C09050",
"@	c #F8F848",
"#	c #D8A860",
"$	c #F8F8F8",
"%	c #805018",
"&	c #906028",
"*	c #F0C070",
"=	c #909090",
"-	c #F86000",
";	c #C0C0C0",
">	c #D06000",
",	c #F8D000",
"'	c #F8F8D8",
")	c #F87000",
"!	c #A84800",
"~	c #F0F0F0",
"{	c #D8D8D8",
"]	c #1850F0",
"^	c #6008A8",
"/	c #F8B068",
"(	c #F88000",
"_	c #A87850",
":	c #F84000",
"                                                                ",
"                                                                ",
"                                                                ",
"                                                                ",
"                                                                ",
"                                                                ",
"                                                                ",
"                                                                ",
"                                                                ",
"                                                                ",
"                                                                ",
"                                                                ",
"                                                                ",
"                                                                ",
"                                                                ",
"                                                                ",
"                                                                ",
"                                                                ",
"                                                                ",
"                           .  .   .... ..                       ",
"                         . .. .. +@@. .@.   .                   ",
"                     .   ...@.@#.@$#..@@....                    ",
"                      .. .@.$@.#.#.#.#$@.#@.                    ",
"                      .@..@#@$$##.@..@$@.@.                     ",
"                      .#@.$@.@$@.@.@.#@#.#.                     ",
"                     %%.#.@$#.@@..@.@.#.#.   ...                ",
"                 .........#@.#.#.@$@.#..@....@.                 ",
"                .&&#..#$@#..#$#..$$$#..@+@@$@.                  ",
"              ..+++.#+.@$$#.$$@#.@..@.#@.#$@.%                  ",
"             .+..+#+%#+.#@.$@..@..#+.#..@$@.&&%                 ",
"            .+.+#**#.....#.@.##.##*#+&.+@#..+++%%               ",
"            ..+#***#..@$#.@.#**#***#+&.@#.#.#+.#+.%%            ",
"           .%.+#***#+&.@@..#.&#***#.&.&&.@.#*#+.&&%+%           ",
"          .+%&&.+#*##&#.&*.#*=&.#.&=++&+&..#*+.##++.+%          ",
"        -.+.++##.+#*#...&#.+*;$&&&$;+.&#&..&#.#**#++.%          ",
"      -- ..++#**#.##&&#@#&#&#*;;#;;#+&+&#@.#.+**#>>>>>%         ",
"    --  .>>>>>#**+.#&#&...&&+***+**#.&&...#*.#*#>,@',)!         ",
"   -    !),'@,>#*#.%%%%+#>+&.#+~${.#.&+>+.##&#*#>,@',)!         ",
"   -   ]^),@,@,>*#&+ %+##>#&&+~~{{{+&*>>##.#&+*>,@,@,)^]        ",
"  -    ^>>>>,@,>#+&&/%+*#>>&&+~$$${.&#>>##.+&.#>,@,+#*.&        ",
"  -   !.#**#>,,>+.(/(%-(#>,>&+#**#+.&>>.+#&+.&+>,,+#**#.&       ",
"  -  &.#*#*#*&)>.&((--(/(#>@&&+....&),>+##(-&-.>)&*#*#*#.&      ",
"  - &#_#*_#__#&!& :::-((-*(((@&+#+&,@>.+/(--(:&!&#__#_*#_#&     ",
"   -&*&#_&#&&_#&    :::---(/(--&&&@,>--.(--::: &#_&&#&_#&*&     ",
"   - & *& &&>&&-       ::::::::::::::::::::     &&>&*& _ &      ",
"                                                                ",
"                                                                ",
"                                                                ",
"                                                                ",
"                                                                ",
"                                                                ",
"                                                                ",
"                                                                ",
"                                                                ",
"                                                                ",
"                                                                ",
"                                                                ",
"                                                                ",
"                                                                ",
"                                                                ",
"                                                                ",
"                                                                ",
"                                                                ",
"                                                                "};
