/* XPM */
static char * StartB0_xpm[] = {
"64 64 32 1",
" 	c None",
".	c #B83878",
"+	c #F870B0",
"@	c #F888B8",
"#	c #F8A0C8",
"$	c #981858",
"%	c #D85090",
"&	c #F8D0E0",
"*	c #F8B8D8",
"=	c #880050",
"-	c #000008",
";	c #C00000",
">	c #F80000",
",	c #301000",
"'	c #F8F8F8",
")	c #F8B8E0",
"!	c #703800",
"~	c #900000",
"{	c #F87000",
"]	c #F8A800",
"^	c #A84800",
"/	c #D06000",
"(	c #F8D000",
"_	c #606060",
":	c #A0A0A0",
"<	c #C0C0C0",
"[	c #909090",
"}	c #D8D8D8",
"|	c #787878",
"1	c #F0F0F0",
"2	c #503000",
"3	c #382000",
"                                                                ",
"                                                                ",
"                               ...                              ",
"                              .+@+.                             ",
"                             .+#+$%.                            ",
"                             .#@$ .+$                           ",
"                            .@#@$  .$                           ",
"                           ..&&@$$ $.$                          ",
"                          .+.*&@$%$.+$                          ",
"                          .$.#*@.=..%$                          ",
"                         .@#.@#@.++$.$                          ",
"                        ..+#.#@+$@+.$                           ",
"                       .@.+.@#+*@.%%+$                          ",
"                       .+%%--;.;--%++$                          ",
"                       .%.+@->@>-%+%%$                          ",
"                        ..%+@%.%++.$$                           ",
"     .,        .....      .@'''''+$      .....                  ",
"     .)$  ,,!!.%%%%%....  .@;;;~~%$  ....%%%%%.!!,,   ,$        ",
"     .%.$!!!,{!%.+@.%@#%..+.~~~~~$+$.%#@%.@+.%!{,!!! $)$        ",
"      .%@$$]!,]!+##.+.)+.+%.%...%.%+$+).+.##+!],!]{^$.%$        ",
"      ..)@.$]!-!@#+.%@@++#%+.@#+.+%+++@@%.+#@!-!].$$@%$         ",
"     .%@##@.${!!@+.%.%++%++%@...+%++%++%%+.+@!!{.$.@).$         ",
"    .)%.@@+%${!==.$$.%%++%$%%%+%%.%$++%+.$$.==!{$.@##@%$        ",
"   .@..+.%$+$!      $.+@%+*%$+%+$%*@%%%.$      !$%+@@.%)$       ",
"  .). $)$@$).        $%@#*&##@.@#*##+@+$        $+$%.+..@$      ",
"  .. .@$.#$.    '     .+#&*#+@.+@##@@+.$  '     .)$@$)$ .).     ",
"     .). ).     ' '   .+#&##@+.+@##@+%$    ''    .$#.$@. ..     ",
"      .  .      ''    .%++@+%.$.%+@+..$      ''   .) .).        ",
"  '       #   '' '     .+%%%+@*@+...%%$   $ '  ''  .  .         ",
"  '       # ''   '$    .%###@&+#@##++$     $'    ''  #    '     ",
"   '       #     $      .%%%&#%##+%%$       $      '#     '     ",
"   '     ''#    $''      .#+*#%@#+#$    '    $      #''   '     ",
"   '   ''  #   $  '      -$+#+.%#+$-    ' '   $$   #   '' '     ",
"   ' ''     #$$    ' '   ---/](/^---     '      $$ #     ''     ",
"   ''      $$      ''   _:--/^{^^--:_    '        $$      '''   ",
"  ' '    $$  #      '   _<:-^(^]^-:[_     '      #  $     '     ",
"    '   $    #     '    _}}<|^^^|<<:_  $  '     #        '      ",
"     '        #   '     _}}::|_|:}}:_  $   '   #         '      ",
"     '         ## '    _<1<}}:_:}'1|:_  $  '  #         '       ",
"      '          #  $  _}}11}|_}:1}[:_  $   '#          '       ",
"      '         ' #$   _}1'}:|_}:}:}<_      #          '        ",
"       '       '   $  _1'1<|:|_|}}:}1}_    #'          '        ",
"        ''     '  $   _''}:<|_ _|1}1'}_      '        '         ",
"          ''  '  $   _<'1<}<|_ _|}1''<:_     '        '         ",
"            ''       _}1}11<_  _:|}'':<_      '      '          ",
"             '''     _1<1'}:_   _<<:11:}_     '    ''           ",
"            '       _:':}}:|_   _<}1}:}}_      ''''             ",
"                   _<1}::|:_    _:}'1:}<|_  ''''                ",
"                   _1''1}<<_     |<}:}1<|_      '               ",
"                  _<}}1}}:<_     _||<1}:|:_     '               ",
"                  _1}::::<:_-----_:}1'<|::_                     ",
"                  _<'1<<<:_-------_}'1[}<:_                     ",
"                   _::||:_---------_::|:__                      ",
"                   ----------------------                       ",
"                  -----^^-----------^-----                      ",
"                  ---{^23-----------3^{{^3                      ",
"                   ^]!!23-----------32!!^3                      ",
"                   32333-------------33323                      ",
"                  333 ----------------  333                     ",
"                        -------------                           ",
"                                                                ",
"                                                                ",
"                                                                ",
"                                                                "};
