/* XPM */
static char * StartB02_xpm[] = {
"64 64 28 1",
" 	c None",
".	c #B83878",
"+	c #F8A0C8",
"@	c #F888B8",
"#	c #F870B0",
"$	c #F8D0E0",
"%	c #D85090",
"&	c #981858",
"*	c #000008",
"=	c #F8F8F8",
"-	c #F8F8D8",
";	c #F8B8D8",
">	c #D8D8D8",
",	c #880050",
"'	c #F87000",
")	c #F0F0F0",
"!	c #A84800",
"~	c #703800",
"{	c #F8A800",
"]	c #F8B8E0",
"^	c #606060",
"/	c #909090",
"(	c #C0C0C0",
"_	c #A0A0A0",
":	c #787878",
"<	c #F8D000",
"[	c #382000",
"}	c #503000",
"                                                                ",
"                                                                ",
"                                     .......                    ",
"                                   ..+@+++@#.                   ",
"                                  .@$++@@@#+#..                 ",
"                                 .@$+@#######@%.                ",
"                                .+%+@.%&%.&%.+@%.               ",
"                           &&  &.%@+#%##.%..&&&%+.              ",
"                         &&*#& .#&%@.##@#*%&   &%+.             ",
"                       & *#&%& %%.&&#@@@#%%&    &%.             ",
"                     &&& &@&.& =-@%#@.&.#%&     &@.             ",
"                    &&&-&@;&&   >.+#.%@%.%&     &@.             ",
"                  -&& --&#&#& -- .;#%+,#&.&    &@#.             ",
"                  &- --*%#&%--   .;#%%#%&&    &%#.              ",
"                 &  --*'##&.&  --.;@&%&.&     &%#&              ",
"                &   ---'%#&&%-   .+@#%.&      &%&               ",
"               &   -&*-@&#@&.#- .%+#%.&       &&                ",
"             - &   -&*'%@&#@&%) .;@#.&                          ",
"             -&     !*'!&'&#&=>.%@#.&                           ",
"              -   -~*'{%~'%& >.%;#.&&                           ",
"             & -- *~%!!%~**  .%@#%&%&                           ",
"             &  --**%******..%#%.&@%&                           ",
"            &  - *-*%*****+%%%%&&%@#%&                          ",
"            &  - *'-****'!+..&&%.#+@#%&                         ",
"            & -   % ~'{+!&&&&&&&%##@#.&#                        ",
"            & -   % &#@+&]+&%@##.&++@#%&                        ",
"            & - *'% &.#+#+@.%@#.++]@@%.&                        ",
"          - &   *'%  &.##@%.@]@.%%@##&.&                        ",
"           -&   *     &.##.##@##%###%&.&                        ",
"            --- *      &&.#....#@.%%&#&                         ",
"               -*-%      &&&#@#@%%.&&%&                         ",
"             &            &%&&&&&&&&%&                          ",
"             &  -         .%%@+@%&.%&                           ",
"                          .@#%.&.%%&                            ",
"              &   *'   %  &%@+#%%.&&                            ",
"              & - *        &+#&%##%&                            ",
"                -  -       .#&&&****                            ",
"                  -        !!!******                            ",
"               & - *       '!!**^//^                            ",
"                --         !{!*/>/(/^                           ",
"                &          !!_/()(>/^                           ",
"                 &  *      ^:((/))>:^                           ",
"                   -       ^:>)/>)_:^                           ",
"                   &       ^:(>)(>:_^                           ",
"                       <   ^:_>)):((^                           ",
"                           ^:/>>_>):^                           ",
"                           ^_:/)>)__^                           ",
"                           ^(::>)=)(:^                          ",
"                           ^(:_/>==(:^                          ",
"                           ^>:((_==(:^                          ",
"                           ^):(=(_>/_^                          ",
"                           ^):_==>//(:^                         ",
"                           ^>_:(===>(:^                         ",
"                           ^_(::>==>:__^                        ",
"                           ^:_:_:>>>((_^***                     ",
"                         *****:_(:_>>_:^*****                   ",
"                        *******:^__(_^^*******                  ",
"                       *****~!!!~**************                 ",
"                       *****[}}}[**************                 ",
"                        ***[[[[[!'{{'!********                  ",
"                         *******[}~~}[*******                   ",
"                           ****[[[[[[[*****                     ",
"                              **********                        ",
"                                                                "};
