/* XPM */
static char * Death7_xpm[] = {
"64 64 19 1",
" 	c None",
".	c #F8F8F8",
"+	c #000008",
"@	c #F8B8D8",
"#	c #F870B0",
"$	c #F888B8",
"%	c #580000",
"&	c #981858",
"*	c #D85090",
"=	c #703800",
"-	c #B83878",
";	c #F8A800",
">	c #D06000",
",	c #A84800",
"'	c #606060",
")	c #A0A0A0",
"!	c #D8D8D8",
"~	c #382000",
"{	c #503000",
"                                                                ",
"                                                                ",
"                                                                ",
"                      .                                         ",
"                              +                                 ",
"                          + .           .@                      ",
"                           +            ##.                     ",
"                           @@           @#@@                    ",
"                           $# +          #@@                    ",
"                          $#$            #                      ",
"                          ##             @                      ",
"                         + #                                    ",
"                      .  +                                      ",
"                      @    +                                    ",
"                                                                ",
"                                                                ",
"                                                                ",
"                             +++ +                              ",
"                        +++++                                   ",
"                          +                                     ",
"                        ++                                      ",
"                                  +++                           ",
"                                ++                              ",
"                            ++++   ++                           ",
"                                 +++                            ",
"                         +++                                    ",
"                                                                ",
"                                                                ",
"                             ++++++                             ",
"                                       +                        ",
"                     +                  +                       ",
"                     +                  +                       ",
"                           ++++                                 ",
"                          %%%   %%&                             ",
"                         +    +   *&                            ",
"                           ++++++                               ",
"                           %%%%%%                               ",
"                       =-*&                                     ",
"                            %%%%%%%%%+%%%                       ",
"                     *$+     ###*&*$;+$*-%                      ",
"                  +++    *&&    *&-$;+$*-%&                     ",
"                   %%*$+   &##-     >+$*-&                      ",
"                   &&&$+>*    -#*&&   $*&&                      ",
"                    &&&==& +-    + &=  &                        ",
"                           ++,,,                                ",
"                           '),;,)'                              ",
"                          ').),).)'                             ",
"                                  '                             ",
"                          '. )' .                               ",
"                         +!) ' ') )+                            ",
"                         +++'   ++++                            ",
"                         +++'   ++++                            ",
"                         ~;>~   ~;>~                            ",
"                         ~;>~   ~;>~                            ",
"                         ~;>~   ~;>~                            ",
"                         ~={~   ~={~                            ",
"                          ~~+++++~~                             ",
"                          ++++++++++                            ",
"                          ++++++++++                            ",
"                           ++++++++                             ",
"                                                                ",
"                                                                ",
"                                                                ",
"                                                                "};
