/* XPM */
static char * Death5_xpm[] = {
"64 64 25 1",
" 	c None",
".	c #F8F8F8",
"+	c #F8D0E0",
"@	c #F888B8",
"#	c #F8B8D8",
"$	c #000008",
"%	c #F870B0",
"&	c #580000",
"*	c #981858",
"=	c #C00000",
"-	c #B83878",
";	c #D85090",
">	c #A0A0A0",
",	c #900000",
"'	c #F0F0F0",
")	c #C0C0C0",
"!	c #D8D8D8",
"~	c #F8A0C8",
"{	c #703800",
"]	c #F8A800",
"^	c #D06000",
"/	c #A84800",
"(	c #606060",
"_	c #382000",
":	c #503000",
"                                                                ",
"                                                                ",
"                                                                ",
"                                                                ",
"                                                                ",
"                                                                ",
"                                                                ",
"                                                                ",
"                                                                ",
"                                                                ",
"                                                                ",
"                         .+                                     ",
"                        +@++         .+                         ",
"                        +  +         # #                        ",
"                        #  +    $   +  #                        ",
"                        #  #   @    +   #                       ",
"                        # @#   #   +    #                       ",
"                         ##    #   @    +                       ",
"                         @@  $##    @  +                        ",
"                         @@   #@#   @  @                        ",
"                         @   #@%#   @@ @                        ",
"                            #@$$$   @%%@                        ",
"                            #@%@#$$$ %%@                        ",
"                            #%@@#  $$ %@                        ",
"                            #%%%#     %                         ",
"                            #&%%#     %                         ",
"                      @     &$$&&                               ",
"                            *$$=*&$   %                         ",
"                           -;$$       %  .                      ",
"                                >>%*     .                      ",
"                      .   ***= &&   ***  #                      ",
"                      +   -@%=   ,&&--*  #.                     ",
"                      #.  --  ==,,&*-**  %#                     ",
"                      #+    -;,,,&&-*;*  ##                     ",
"                      #@#  --;,,&&&-**   #%                     ",
"                     #@%#   --',&&)**   # #                     ",
"                     #@@#   --'.'!)**   # @                     ",
"                    #@@@%#   -@@%@%-    # @#                    ",
"                    #@%% @# *@~#;%@%*   # @#                    ",
"                    #@@%  @**;#@;@%;@*  % @@                    ",
"                   #@@%%  *@*-;;-;;-~@*  @%%#                   ",
"                   @%%%*${-;**~@;@%*@;-{$%%%%                   ",
"                    **~-;$]@-*~@;@%*-@]$;~;*%                   ",
"                    *--;@$^;**%@;%;**;^$@;--*                   ",
"                     *-;@$^;**%@;%;**;^$@;**                    ",
"                      ***{{* $-%-%-$ *{{**                      ",
"                             $$///$$                            ",
"                             (>/]/>(                            ",
"                            (>.>/>.>(                           ",
"                            (.!>(!.!(                           ",
"                           $!>!( (>!>$                          ",
"                           $$$(   $$$$                          ",
"                           _]^_   _]^_                          ",
"                           _]^_$$$_]^_                          ",
"                           _{:_$$$_{:_                          ",
"                            __$$$$$__$                          ",
"                             $$$$$$$$                           ",
"                                                                ",
"                                                                ",
"                                                                ",
"                                                                ",
"                                                                ",
"                                                                ",
"                                                                "};
