/* XPM */
static char * Death0_xpm[] = {
"64 64 22 1",
" 	c None",
".	c #F8B8D8",
"+	c #F8A0C8",
"@	c #F888B8",
"#	c #F870B0",
"$	c #D85090",
"%	c #981858",
"&	c #B83878",
"*	c #F8D0E0",
"=	c #880050",
"-	c #000008",
";	c #703800",
">	c #F87000",
",	c #D06000",
"'	c #A84800",
")	c #606060",
"!	c #A0A0A0",
"~	c #F8A800",
"{	c #F8F8F8",
"]	c #D8D8D8",
"^	c #503000",
"/	c #382000",
"                                                                ",
"                                                                ",
"                                                                ",
"                                                                ",
"                                                                ",
"                                                                ",
"                                                                ",
"                                                                ",
"                                                                ",
"                                                                ",
"                                                                ",
"                                                                ",
"                                                                ",
"                                                                ",
"                              ...   .                           ",
"                              +++.  +.                          ",
"                             .+@@+..@+                          ",
"                             .@@@@++@+.                         ",
"                            .+@@###@@+.                         ",
"                          . +@@#$@##@+.                         ",
"                          +.@@#@+#%&#@.                         ",
"                         .++@#$+@% %#$.                         ",
"                         .@@$&@++%% %$.                         ",
"                         @@$#&+*+%$$@.                          ",
"                         .@$#&+.@&$$@.                          ",
"                         .$@=&++#&-#$+.                         ",
"                         @$@+&#@####$@+                         ",
"                         @$+@+$$@##@$@.                         ",
"                         @$@&&&#.=&$$@+                         ",
"                         $@&&.@;;$%%#$@                         ",
"                         &&%&@#>-;&&%%                          ",
"                         &.@%&%-->$@#%                          ",
"                         &+@#,;-',>#$%                          ",
"                          &;>-'#;;;%%                           ",
"                           %;-,&&#%%                            ",
"                            -&#&#&-                             ",
"                            --'''--                             ",
"                            )!'~'!)                             ",
"                           ){]!'!]!)                            ",
"                          ){]]!)]{]!)                           ",
"                          )!]!)))]!])                           ",
"                          -)!)   ))!-                           ",
"                         ----     ----                          ",
"                         ;~>'-----'~>;                          ",
"                        ^;;^/-----/^;^/                         ",
"                        ////-------////                         ",
"                            --------                            ",
"                                                                ",
"                                                                ",
"                                                                ",
"                                                                ",
"                                                                ",
"                                                                ",
"                                                                ",
"                                                                ",
"                                                                ",
"                                                                ",
"                                                                ",
"                                                                ",
"                                                                ",
"                                                                ",
"                                                                ",
"                                                                ",
"                                                                "};
