/* XPM */
static char * Death8_xpm[] = {
"64 64 16 1",
" 	c None",
".	c #000008",
"+	c #981858",
"@	c #580000",
"#	c #D85090",
"$	c #703800",
"%	c #B83878",
"&	c #F888B8",
"*	c #D06000",
"=	c #606060",
"-	c #A84800",
";	c #A0A0A0",
">	c #F8F8F8",
",	c #382000",
"'	c #F8A800",
")	c #503000",
"                                                                ",
"                                                                ",
"                                                                ",
"                                                                ",
"                                                                ",
"                                                                ",
"                              .                                 ",
"                              .                                 ",
"                              .                                 ",
"                                                                ",
"                                                                ",
"                                .                               ",
"                                                                ",
"                                                                ",
"                                                                ",
"                             .                                  ",
"                                  .                             ",
"                                  .                             ",
"                                                                ",
"                          .                                     ",
"                                                                ",
"                                                                ",
"                                                                ",
"                       .              .                         ",
"                             ....     .                         ",
"                            .       +                           ",
"                              .   @@@                           ",
"                              .   @@@                           ",
"                           .    .   #+                          ",
"                             ......                             ",
"                                  @                             ",
"                         +@@@                                   ",
"                         $%#+                                   ",
"                                    .                           ",
"                       #&.                 @                    ",
"                      .    @@@                                  ",
"                             +@@@     *.                        ",
"                     @  @              .   +                    ",
"                                           +                    ",
"                      ++ ++              +                      ",
"                             ..@                                ",
"                              =  -                              ",
"                            @@    ==@                           ",
"                            =;>    ;=                           ",
"                                    =                           ",
"                               ;;;;                             ",
"                           . ;;=    ;.                          ",
"                           .       ...                          ",
"                                    ..                          ",
"                             .=   . .                           ",
"                            ..=                                 ",
"                            **,    '*                           ",
"                           ,'     ,'*,                          ",
"                                                                ",
"                           ,'*,   ,'*,                          ",
"                           ,$),   ,$),                          ",
"                            ,,     ,,                           ",
"                             ........                           ",
"                            ..........                          ",
"                            ..........                          ",
"                             ........                           ",
"                                                                ",
"                                                                ",
"                                                                "};
